
<svg width="28px" height="28px" viewBox="0 0 28 28" version="1.1" xmlns="http://www.w3.org/2000/svg" xmlns:xlink="http://www.w3.org/1999/xlink">
    <defs>
        <filter x="-50%" y="-50%" width="200%" height="200%" filterUnits="objectBoundingBox" id="filter-1">
            <feOffset dx="0" dy="2" in="SourceAlpha" result="shadowOffsetOuter1"></feOffset>
            <feGaussianBlur stdDeviation="2" in="shadowOffsetOuter1" result="shadowBlurOuter1"></feGaussianBlur>
            <feColorMatrix values="0 0 0 0 0   0 0 0 0 0   0 0 0 0 0  0 0 0 0.131765172 0" type="matrix" in="shadowBlurOuter1" result="shadowMatrixOuter1"></feColorMatrix>
            <feMerge>
                <feMergeNode in="shadowMatrixOuter1"></feMergeNode>
                <feMergeNode in="SourceGraphic"></feMergeNode>
            </feMerge>
        </filter>
    </defs>
    <g stroke="none" stroke-width="1" fill="none" fill-rule="evenodd" stroke-linecap="round" stroke-linejoin="round">
        <g filter="url(#filter-1)" transform="translate(-1187.000000, -13.000000)" stroke="#0D5694" stroke-width="0.4" fill="#0D5694">
            <g transform="translate(1191.000000, 15.000000)">
                <path d="M11.4365601,19.0398405 C11.9058418,19.3362287 12.4121715,19.4844228 12.9555499,19.4844228 C13.6965204,19.4597241 14.3263455,19.2003839 14.8450252,18.7064036 L15.7712379,17.7801909 C16.3887136,17.1380158 16.5122084,16.4217446 16.1417235,15.631376 C16.0429274,15.4090852 15.919432,15.2238424 15.7712379,15.0756483 L14.104054,13.3714157 C13.7088697,13.0009308 13.2519381,12.815688 12.733259,12.815688 C12.1651813,12.8403873 11.720599,13.0256295 11.3995121,13.3714157 L11.0290265,13.7419013 C9.30009526,12.284659 7.71935813,10.7039218 6.28681511,8.99968994 L6.65730069,8.62920436 C7.27477581,8.01172924 7.41062057,7.30780739 7.06483432,6.51743883 C6.94133955,6.29514735 6.80549479,6.09755521 6.65730069,5.92466241 L4.95306815,4.25747856 C4.60728191,3.88699298 4.16269959,3.70175019 3.6193212,3.70175019 C3.07594281,3.72644952 2.61901114,3.91169231 2.24852556,4.25747856 L1.32231288,5.18369124 C0.556643013,5.94936111 0.334352171,6.85087509 0.655439084,7.88823383 C0.754235154,8.15992334 0.865380576,8.39456417 0.98887598,8.59215631 C3.80456399,12.76629 7.28712516,16.2488511 11.4365601,19.0398405 L11.4365601,19.0398405 Z M1.76689519,5.62827419 L2.73015657,4.70206087 C2.95244804,4.4550707 3.24883625,4.33157529 3.6193212,4.33157529 C3.98980678,4.35627463 4.28619499,4.4797694 4.50848584,4.70206087 L6.21271837,6.36924409 C6.65730069,6.83852574 6.71904807,7.3572048 6.39796053,7.92528252 C6.34856312,8.02407859 6.28681511,8.11052531 6.21271837,8.18462205 L5.65699063,8.74034978 C5.55819456,8.91324322 5.54584458,9.06143733 5.61994195,9.18493273 C7.20067907,11.1114555 8.94195966,12.8527367 10.8437837,14.4087745 C10.9919784,14.4828719 11.1401719,14.4705219 11.2883667,14.3717258 L11.8440944,13.8159981 C12.1157833,13.5690079 12.4121715,13.4455131 12.733259,13.4455131 C13.0790453,13.4702118 13.3877828,13.5937072 13.6594723,13.8159981 L15.3266556,15.5202306 C15.7959372,15.9648129 15.8700339,16.483492 15.548947,17.0762684 C15.4748497,17.1750645 15.4007529,17.2615112 15.3266556,17.3356079 L14.4004422,18.2618212 C13.9805593,18.6570055 13.4989283,18.8545977 12.9555499,18.8545977 C12.5109676,18.829899 12.1281326,18.7187529 11.8070457,18.5211608 C7.68230944,15.7548708 4.24914631,12.3217077 1.50755567,8.22167073 C1.01357531,7.43130217 1.02592466,6.65328295 1.54460372,5.88761372 C1.61870109,5.78881765 1.69279782,5.70237093 1.76689519,5.62827419 L1.76689519,5.62827419 Z M10.0287164,1.14540233 C12.6468123,1.14540233 14.8326752,2.10866371 16.5863058,4.03518708 C18.1176449,5.73941962 18.8833141,7.72769038 18.8833141,10 C18.9080134,10.1975921 19.0068095,10.3087376 19.1797023,10.3334369 C19.3772945,10.2840389 19.4884405,10.1728934 19.5131392,10 C19.5131392,7.25840873 18.5004798,4.94905105 16.4751597,3.07192571 C14.6474331,1.36769318 12.4986182,0.515577227 10.0287164,0.515577227 C9.83112429,0.564975262 9.71997887,0.676120683 9.69527954,0.849014123 C9.74467757,1.02190693 9.855823,1.120703 10.0287164,1.14540233 L10.0287164,1.14540233 Z M10.0287164,4.33157529 C11.8564437,4.33157529 13.3507342,5.06019647 14.5115883,6.51743883 C15.3019569,7.55479694 15.6971411,8.71565108 15.6971411,10 C15.7218398,10.1975921 15.8206359,10.3087376 15.9935294,10.3334369 C16.1911215,10.2840389 16.3022669,10.1728934 16.3269662,10 C16.3269662,7.97468055 15.548947,6.33219604 13.9929086,5.07254582 C12.8073558,4.15868249 11.4859588,3.70175019 10.0287164,3.70175019 C9.83112429,3.75114885 9.71997887,3.86229427 9.69527954,4.03518708 C9.74467757,4.20808052 9.855823,4.30687659 10.0287164,4.33157529 L10.0287164,4.33157529 Z M10.0287164,7.51774889 C11.0413758,7.51774889 11.782347,7.9623312 12.251628,8.85149584 C12.4245208,9.22198079 12.5109676,9.60481572 12.5109676,10 C12.5356669,10.1975921 12.634463,10.3087376 12.8073558,10.3334369 C13.0049479,10.2840389 13.1160933,10.1728934 13.1407927,10 C13.1407927,8.83914585 12.6468123,7.94998122 11.6588516,7.3325061 C11.1401719,7.03611788 10.5967942,6.88792378 10.0287164,6.88792378 C9.83112429,6.93732181 9.71997887,7.04846723 9.69527954,7.22136067 C9.74467757,7.39425348 9.855823,7.49304955 10.0287164,7.51774889 L10.0287164,7.51774889 Z"></path>
            </g>
        </g>
    </g>
</svg>