<?xml version="1.0" encoding="UTF-8" standalone="no"?>
<svg width="115px" height="115px" viewBox="0 0 115 115" version="1.1" xmlns="http://www.w3.org/2000/svg" xmlns:xlink="http://www.w3.org/1999/xlink">
    <!-- Generator: Sketch 3.7.1 (28215) - http://www.bohemiancoding.com/sketch -->
    <title>Artboard 21</title>
    <desc>Created with Sketch.</desc>
    <defs></defs>
    <g id="WEB" stroke="none" stroke-width="1" fill="none" fill-rule="evenodd">
        <g id="Artboard-21" stroke="#4990E2" stroke-width="2">
            <g id="Group-2" transform="translate(22.000000, 23.000000)">
                <circle id="Oval-34" cx="35" cy="35" r="35"></circle>
                <path d="M8,12.5005995 L8,12.5005995 C14.6390717,20.1827511 24.1823603,25 34.7874341,25 C45.6210367,25 55.3466,19.9729003 62,12" id="Oval-34-Copy"></path>
                <path d="M8,45.5005995 L8,45.5005995 C14.6390717,53.1827511 24.1823603,58 34.7874341,58 C45.6210367,58 55.3466,52.9729003 62,45" id="Oval-34-Copy-2" transform="translate(35.000000, 51.500000) scale(1, -1) translate(-35.000000, -51.500000) "></path>
                <path d="M0,35 L70,35" id="Path-152"></path>
                <path d="M35,70 L35,0" id="Path-152-Copy"></path>
                <g id="Group" transform="translate(15.000000, 0.000000)">
                    <path d="M19.8971519,0.242828825 C19.8971519,0.242828825 0.150316456,12.1062413 0.150316456,35.261194 C0.150316456,58.4161468 19.8971519,70 19.8971519,70" id="Path-156"></path>
                </g>
                <g id="Group-Copy-2" transform="translate(45.000000, 35.000000) scale(-1, 1) translate(-45.000000, -35.000000) translate(35.000000, 0.000000)">
                    <path d="M19.8971519,0.242828825 C19.8971519,0.242828825 0.150316456,12.1062413 0.150316456,35.261194 C0.150316456,58.4161468 19.8971519,70 19.8971519,70" id="Path-156"></path>
                </g>
            </g>
        </g>
    </g>
</svg>