<?xml version="1.0" encoding="UTF-8" standalone="no"?>
<svg width="30px" height="48px" viewBox="0 0 30 48" version="1.1" xmlns="http://www.w3.org/2000/svg" xmlns:xlink="http://www.w3.org/1999/xlink">
    <!-- Generator: Sketch 3.7.1 (28215) - http://www.bohemiancoding.com/sketch -->
    <title>Scroll Icon</title>
    <desc>Created with Sketch.</desc>
    <defs></defs>
    <g id="WEB" stroke="none" stroke-width="1" fill="none" fill-rule="evenodd">
        <g id="Main" transform="translate(-705.000000, -660.000000)" fill="#FFFFFF">
            <g id="Scroll-Icon" transform="translate(705.000000, 660.000000)">
                <g id="mouse">
                    <path d="M15,0 C6.715,0 0,6.0435 0,13.5 L0,34.5 C0,41.9565 6.715,48 15,48 C23.285,48 30,41.9565 30,34.5 L30,13.5 C30,6.0435 23.285,0 15,0 L15,0 Z M26.6666667,34.5 C26.6666667,40.299 21.4433333,45 15,45 C8.55666667,45 3.33333333,40.299 3.33333333,34.5 L3.33333333,13.5 C3.33333333,7.701 8.55666667,3 15,3 C21.4433333,3 26.6666667,7.701 26.6666667,13.5 L26.6666667,34.5 L26.6666667,34.5 Z" id="Shape"></path>
                    <circle id="Oval-13" cx="15" cy="15" r="2"></circle>
                </g>
            </g>
        </g>
    </g>
</svg>