<svg width="20px" height="31px" viewBox="0 0 20 31" version="1.1" xmlns="http://www.w3.org/2000/svg" xmlns:xlink="http://www.w3.org/1999/xlink">
    <g stroke="none" stroke-width="1" fill="none" fill-rule="evenodd">
        <g transform="translate(-1230.000000, -17.000000)" fill="#FFFFFF">
            <g transform="translate(1230.000000, 17.000000)">
                <path d="M16.6666667,31 L3.33333333,31 C1.492,31 0,29.4917826 0,27.6304348 L0,15.5 C0,13.6393261 1.492,12.1304348 3.33333333,12.1304348 L6,12.1304348 C6.36866667,12.1304348 6.66666667,12.4323478 6.66666667,12.8043478 C6.66666667,13.1763478 6.36866667,13.4782609 6,13.4782609 L3.33333333,13.4782609 C2.22933333,13.4782609 1.33333333,14.384 1.33333333,15.5 L1.33333333,27.6304348 C1.33333333,28.7471087 2.22933333,29.6521739 3.33333333,29.6521739 L16.6666667,29.6521739 C17.7713333,29.6521739 18.6666667,28.7471087 18.6666667,27.6304348 L18.6666667,15.5 C18.6666667,14.384 17.7713333,13.4782609 16.6666667,13.4782609 L14,13.4782609 C13.6313333,13.4782609 13.3333333,13.1763478 13.3333333,12.8043478 C13.3333333,12.4323478 13.6313333,12.1304348 14,12.1304348 L16.6666667,12.1304348 C18.508,12.1304348 20,13.6393261 20,15.5 L20,27.6304348 C20,29.4917826 18.508,31 16.6666667,31 L16.6666667,31 Z M14.8893333,6.54706522 L10.6666667,2.2785 L10.6666667,19.5434783 C10.6666667,19.9161522 10.3686667,20.2173913 10,20.2173913 C9.63133333,20.2173913 9.33333333,19.9161522 9.33333333,19.5434783 L9.33333333,2.2785 L5.11066667,6.54706522 C4.85666667,6.80382609 4.44466667,6.80382609 4.19,6.54706522 C3.936,6.29030435 3.936,5.87315217 4.19,5.6163913 L9.46,0.289108696 C9.48133333,0.257434783 9.49533333,0.221043478 9.52333333,0.192065217 C9.65333333,0.061326087 9.824,-0.00134782609 9.99333333,0.00134782609 C9.996,0.00134782609 9.99733333,0 10,0 C10.0026667,0 10.0046667,0.00134782609 10.0066667,0.00134782609 C10.1773333,-0.000673913043 10.3473333,0.061326087 10.4766667,0.192065217 C10.504,0.220369565 10.5166667,0.255413043 10.5373333,0.286413043 L15.81,5.6163913 C16.064,5.87315217 16.064,6.29030435 15.81,6.54706522 C15.5553333,6.80382609 15.1433333,6.80382609 14.8893333,6.54706522 L14.8893333,6.54706522 Z"></path>
            </g>
        </g>
    </g>
</svg>