<?xml version="1.0" encoding="UTF-8" standalone="no"?>
<svg width="115px" height="115px" viewBox="0 0 115 115" version="1.1" xmlns="http://www.w3.org/2000/svg" xmlns:xlink="http://www.w3.org/1999/xlink">
    <!-- Generator: Sketch 3.8.3 (29802) - http://www.bohemiancoding.com/sketch -->
    <title>Artboard 3</title>
    <desc>Created with Sketch.</desc>
    <defs></defs>
    <g id="Page-1" stroke="none" stroke-width="1" fill="none" fill-rule="evenodd">
        <g id="Artboard-3">
            <g id="smartwatch-square-wifi.3.3.1" transform="translate(21.000000, 21.000000)">
                <g id="Group">
                    <g id="Outline_Icons_1_" transform="translate(13.166667, 1.000000)" stroke-linecap="round" stroke-width="2" stroke="#4990E2" stroke-linejoin="round">
                        <g id="New_icons_1_">
                            <g id="Group">
                                <g>
                                    <path d="M46.1458333,49.1875 C46.1458333,52.5455 43.4205,55.2708333 40.0625,55.2708333 L6.60416667,55.2708333 C3.24616667,55.2708333 0.520833333,52.5455 0.520833333,49.1875 L0.520833333,21.8125 C0.520833333,18.4514583 3.24616667,15.7291667 6.60416667,15.7291667 L40.0625,15.7291667 C43.4205,15.7291667 46.1458333,18.4514583 46.1458333,21.8125 L46.1458333,49.1875 L46.1458333,49.1875 Z" id="Shape"></path>
                                    <polygon id="Shape" points="37.0208333 9.64583333 9.64583333 9.64583333 6.60416667 15.7291667 40.0625 15.7291667"></polygon>
                                    <rect id="Rectangle-path" x="9.64583333" y="0.520833333" width="27.375" height="9.125"></rect>
                                    <polygon id="Shape" points="9.64583333 61.3541667 37.0208333 61.3541667 40.0625 55.2708333 6.60416667 55.2708333"></polygon>
                                    <rect id="Rectangle-path" x="9.64583333" y="61.3541667" width="27.375" height="9.125"></rect>
                                </g>
                            </g>
                        </g>
                    </g>
                    <g id="Invisible_Shape">
                        <rect id="Rectangle-path" x="0" y="0" width="73" height="73"></rect>
                    </g>
                </g>
            </g>
        </g>
    </g>
</svg>