<?xml version="1.0" encoding="UTF-8" standalone="no"?>
<svg width="115px" height="115px" viewBox="0 0 115 115" version="1.1" xmlns="http://www.w3.org/2000/svg" xmlns:xlink="http://www.w3.org/1999/xlink">
    <!-- Generator: Sketch 3.8.3 (29802) - http://www.bohemiancoding.com/sketch -->
    <title>Artboard 3</title>
    <desc>Created with Sketch.</desc>
    <defs></defs>
    <g id="Page-1" stroke="none" stroke-width="1" fill="none" fill-rule="evenodd">
        <g id="Artboard-3" stroke="#4990E2">
            <g id="Group-3" transform="translate(11.000000, 31.000000)">
                <g id="Group-2" transform="translate(24.910714, 14.078125)">
                    <path d="M21.5892857,23.1875 C33.512719,23.1875 43.1785714,11.59375 43.1785714,11.59375 C43.1785714,11.59375 33.512719,0 21.5892857,0 C9.66585246,0 0,11.59375 0,11.59375 C0,11.59375 9.66585246,23.1875 21.5892857,23.1875 Z" id="Oval-76" stroke-width="2"></path>
                    <ellipse id="Oval-77" stroke-width="3" cx="21.5892857" cy="11.59375" rx="5.8125" ry="5.796875"></ellipse>
                </g>
                <path d="M21.2568445,0.591508902 C7.33317495,1.47830067 5.79551262,12.4151257 6.01091443,12.1895311 C6.01091443,12.1895311 2.49107143,33.3347158 2.49107143,36.2050991 C2.49107143,39.0754825 2.5289886,43.2764636 7.38722709,46.1936066 C12.2454656,49.1107495 18.488891,53 24.4862581,53 C30.4836253,53 38.8036209,47.723548 46.5,47.723548 C54.2189681,47.723548 62.5163747,53 68.5137419,53 C74.511109,53 80.7545344,49.1107495 85.6127729,46.1936066 C90.4710114,43.2764636 90.5089286,39.0754825 90.5089286,36.2050991 C90.5089286,33.3347158 86.9890856,12.1895311 86.9890856,12.1895311 C87.2044874,12.4151257 85.666825,1.47830067 71.7431555,0.591508902 C57.8194859,-0.295282866 51.952812,0.0779735955 47.5608741,0.0779736134 C43.1689361,0.0779736313 35.1805141,-0.295282866 21.2568445,0.591508902 Z" id="Path-1460" stroke-width="2" stroke-linecap="round" stroke-linejoin="round"></path>
                <polyline id="Path-1461" stroke-width="2" stroke-linecap="round" stroke-linejoin="round" points="4.9317724 14.90625 0 14.90625 1.0030331e-15 31.2429893"></polyline>
                <polyline id="Path-1461" stroke-width="2" stroke-linecap="round" stroke-linejoin="round" transform="translate(90.483743, 23.074620) scale(-1, 1) translate(-90.483743, -23.074620) " points="92.9496295 14.90625 88.0178571 14.90625 88.0178571 31.2429893"></polyline>
            </g>
        </g>
    </g>
</svg>