<?xml version="1.0" encoding="UTF-8" standalone="no"?>
<svg width="525px" height="296px" viewBox="0 0 525 296" version="1.1" xmlns="http://www.w3.org/2000/svg" xmlns:xlink="http://www.w3.org/1999/xlink">
    <!-- Generator: Sketch 3.7.1 (28215) - http://www.bohemiancoding.com/sketch -->
    <title>Artboard 19</title>
    <desc>Created with Sketch.</desc>
    <defs></defs>
    <g id="WEB" stroke="none" stroke-width="1" fill="none" fill-rule="evenodd">
        <g id="Artboard-19">
            <g id="Group-15" transform="translate(61.000000, 8.000000)">
                <path d="M187.172576,152.573678 C191.970632,153.509617 196.928048,154 202,154 C244.525926,154 279,119.525926 279,77 C279,34.4740743 244.525926,0 202,0 C159.474074,0 125,34.4740743 125,77 C125,88.9059712 127.702183,100.180814 132.526716,110.244695 L132.526716,110.244695" id="Oval-442" stroke="#4990E2" fill="#FFFFFF"></path>
                <g id="Group-14" transform="translate(0.000000, 9.000000)">
                    <g id="Group-13">
                        <g id="Group-7">
                            <g id="Group-6">
                                <g id="Group-4" transform="translate(0.000000, 32.000000)">
                                    <circle id="Oval-106" stroke="#4990E2" stroke-width="2" fill="#FFFFFF" cx="52.5" cy="52.5" r="52.5"></circle>
                                    <ellipse id="Oval-46-Copy-2" stroke="#4990E2" stroke-width="2" cx="52.6713617" cy="45.675" rx="17.0625" ry="17.85"></ellipse>
                                    <path d="M15.6588617,89.5125 C15.6588617,77.7695455 25.1763933,68.25 36.9221312,68.25 L68.9455922,68.25 C80.6889717,68.25 90.2088617,77.7669636 90.2088617,89.5125 L90.2088617,89.5125" id="Rectangle-366-Copy-5" stroke="#4990E2" stroke-width="2"></path>
                                    <path d="M35.970211,47.3467873 C35.970211,47.3467873 34.9809654,35.9065034 35.970211,31.528855 C36.9594566,27.1512065 42.7998191,26.1331057 42.7998191,26.1331057 C42.7998191,26.1331057 47.7924455,18.6031494 58.0540432,21.4029785 C68.3156409,24.2028075 66.8862453,25.8562502 68.3156399,28.223364 C69.7450344,30.5904777 68.3156399,31.5288549 68.3156399,31.5288549 C68.3156399,31.5288549 70.1129003,32.5332248 70.1129005,36.3825417 C70.1129006,40.2318586 70.1129005,46.76334 70.1129005,46.76334" id="Path-893-Copy-2" stroke="#4990E2" stroke-width="2" transform="translate(52.821723, 34.062893) scale(-1, 1) translate(-52.821723, -34.062893) "></path>
                                    <circle id="Oval-47-Copy-3" fill="#4990E2" cx="52.4088617" cy="79.8" r="1.05"></circle>
                                    <g id="Group-4-Copy-4" transform="translate(51.358862, 87.675000)" fill="#4990E2">
                                        <ellipse id="Oval-47-Copy" cx="1.05" cy="1.05" rx="1.05" ry="1.05"></ellipse>
                                    </g>
                                    <g id="Group-4-Copy-5" transform="translate(51.358862, 96.600000)" fill="#4990E2">
                                        <ellipse id="Oval-47-Copy" cx="1.05" cy="1.05" rx="1.05" ry="1.05"></ellipse>
                                    </g>
                                    <path d="M36.75,68.25 C36.75,68.25 51.897583,82.1968506 52.6409912,68.4689209" id="Path-1250" stroke="#4990E2" stroke-width="2"></path>
                                    <path d="M52.9545044,68.25 C52.9545044,68.25 68.1020874,82.1968506 68.8454956,68.4689209" id="Path-1250-Copy" stroke="#4990E2" stroke-width="2" transform="translate(60.900000, 71.381989) scale(-1, 1) translate(-60.900000, -71.381989) "></path>
                                </g>
                                <g id="Group-4-Copy" transform="translate(133.000000, 0.000000)">
                                    <path d="M46.8018968,133.492224 C53.620535,135.767628 60.9163496,137 68.5,137 C106.331505,137 137,106.331505 137,68.5 C137,30.6684946 106.331505,0 68.5,0 C30.6684946,0 0,30.6684946 0,68.5 C0,77.6248981 1.78419064,86.3330761 5.02274022,94.2947023 L5.02274022,94.2947023" id="Oval-106" stroke="#4990E2" stroke-width="2.6" stroke-linecap="round" stroke-linejoin="round" fill="#FFFFFF"></path>
                                    <ellipse id="Oval-46-Copy-2" stroke="#4990E2" stroke-width="2.6" cx="68.7235863" cy="59.595" rx="22.2625" ry="23.29"></ellipse>
                                    <path d="M20.4310863,116.7925 C20.4310863,101.47074 32.8491989,89.05 48.1745903,89.05 L89.9575822,89.05 C105.279896,89.05 117.701086,101.467371 117.701086,116.7925 L117.701086,116.7925" id="Rectangle-366-Copy-5" stroke="#4990E2" stroke-width="2.6"></path>
                                    <path d="M46.932561,61.7762843 C46.932561,61.7762843 45.641831,46.8494377 46.932561,41.1376488 C48.2232911,35.4258599 55.8435734,34.0974807 55.8435734,34.0974807 C55.8435734,34.0974807 62.3577622,24.2726806 75.746704,27.925791 C89.1356457,31.5789013 87.2706249,33.7362503 89.1356444,36.8247701 C91.0006639,39.91329 89.1356444,41.1376487 89.1356444,41.1376487 C89.1356444,41.1376487 91.4806414,42.4481123 91.4806416,47.4705544 C91.4806418,52.4929964 91.4806416,61.0150246 91.4806416,61.0150246" id="Path-893-Copy-2" stroke="#4990E2" stroke-width="2.6" transform="translate(68.919772, 44.443965) scale(-1, 1) translate(-68.919772, -44.443965) "></path>
                                    <ellipse id="Oval-47-Copy-3" fill="#4990E2" cx="68.3810863" cy="104.12" rx="1.37" ry="1.37"></ellipse>
                                    <g id="Group-4-Copy-4" transform="translate(67.011086, 114.395000)" fill="#4990E2">
                                        <ellipse id="Oval-47-Copy" cx="1.37" cy="1.37" rx="1.37" ry="1.37"></ellipse>
                                    </g>
                                    <g id="Group-4-Copy-5" transform="translate(67.011086, 126.040000)" fill="#4990E2">
                                        <ellipse id="Oval-47-Copy" cx="1.37" cy="1.37" rx="1.37" ry="1.37"></ellipse>
                                    </g>
                                    <path d="M47.95,89.05 C47.95,89.05 67.7139893,107.247319 68.68396,89.3356396" id="Path-1250" stroke="#4990E2" stroke-width="2.6"></path>
                                    <path d="M69.09302,89.05 C69.09302,89.05 88.8570093,107.247319 89.82698,89.3356396" id="Path-1250-Copy" stroke="#4990E2" stroke-width="2.6" transform="translate(79.460000, 93.136500) scale(-1, 1) translate(-79.460000, -93.136500) "></path>
                                </g>
                                <g id="Group-4-Copy-2" transform="translate(298.000000, 32.000000)">
                                    <circle id="Oval-106" stroke="#4990E2" stroke-width="2" fill="#FFFFFF" cx="52.5" cy="52.5" r="52.5"></circle>
                                    <ellipse id="Oval-46-Copy-2" stroke="#4990E2" stroke-width="2" cx="52.6713617" cy="45.675" rx="17.0625" ry="17.85"></ellipse>
                                    <path d="M15.6588617,89.5125 C15.6588617,77.7695455 25.1763933,68.25 36.9221312,68.25 L68.9455922,68.25 C80.6889717,68.25 90.2088617,77.7669636 90.2088617,89.5125 L90.2088617,89.5125" id="Rectangle-366-Copy-5" stroke="#4990E2" stroke-width="2"></path>
                                    <path d="M35.970211,47.3467873 C35.970211,47.3467873 34.9809654,35.9065034 35.970211,31.528855 C36.9594566,27.1512065 42.7998191,26.1331057 42.7998191,26.1331057 C42.7998191,26.1331057 47.7924455,18.6031494 58.0540432,21.4029785 C68.3156409,24.2028075 66.8862453,25.8562502 68.3156399,28.223364 C69.7450344,30.5904777 68.3156399,31.5288549 68.3156399,31.5288549 C68.3156399,31.5288549 70.1129003,32.5332248 70.1129005,36.3825417 C70.1129006,40.2318586 70.1129005,46.76334 70.1129005,46.76334" id="Path-893-Copy-2" stroke="#4990E2" stroke-width="2" transform="translate(52.821723, 34.062893) scale(-1, 1) translate(-52.821723, -34.062893) "></path>
                                    <circle id="Oval-47-Copy-3" fill="#4990E2" cx="52.4088617" cy="79.8" r="1.05"></circle>
                                    <g id="Group-4-Copy-4" transform="translate(51.358862, 87.675000)" fill="#4990E2">
                                        <ellipse id="Oval-47-Copy" cx="1.05" cy="1.05" rx="1.05" ry="1.05"></ellipse>
                                    </g>
                                    <g id="Group-4-Copy-5" transform="translate(51.358862, 96.600000)" fill="#4990E2">
                                        <ellipse id="Oval-47-Copy" cx="1.05" cy="1.05" rx="1.05" ry="1.05"></ellipse>
                                    </g>
                                    <path d="M36.75,68.25 C36.75,68.25 51.897583,82.1968506 52.6409912,68.4689209" id="Path-1250" stroke="#4990E2" stroke-width="2"></path>
                                    <path d="M52.9545044,68.25 C52.9545044,68.25 68.1020874,82.1968506 68.8454956,68.4689209" id="Path-1250-Copy" stroke="#4990E2" stroke-width="2" transform="translate(60.900000, 71.381989) scale(-1, 1) translate(-60.900000, -71.381989) "></path>
                                </g>
                            </g>
                        </g>
                        <g id="Group-5" transform="translate(0.000000, 167.000000)">
                            <g id="Group-4-Copy-3">
                                <circle id="Oval-106" stroke="#4990E2" stroke-width="2" fill="#FFFFFF" cx="52.5" cy="52.5" r="52.5"></circle>
                                <ellipse id="Oval-46-Copy-2" stroke="#4990E2" stroke-width="2" cx="52.6713617" cy="45.675" rx="17.0625" ry="17.85"></ellipse>
                                <path d="M15.6588617,89.5125 C15.6588617,77.7695455 25.1763933,68.25 36.9221312,68.25 L68.9455922,68.25 C80.6889717,68.25 90.2088617,77.7669636 90.2088617,89.5125 L90.2088617,89.5125" id="Rectangle-366-Copy-5" stroke="#4990E2" stroke-width="2"></path>
                                <path d="M35.970211,47.3467873 C35.970211,47.3467873 34.9809654,35.9065034 35.970211,31.528855 C36.9594566,27.1512065 42.7998191,26.1331057 42.7998191,26.1331057 C42.7998191,26.1331057 47.7924455,18.6031494 58.0540432,21.4029785 C68.3156409,24.2028075 66.8862453,25.8562502 68.3156399,28.223364 C69.7450344,30.5904777 68.3156399,31.5288549 68.3156399,31.5288549 C68.3156399,31.5288549 70.1129003,32.5332248 70.1129005,36.3825417 C70.1129006,40.2318586 70.1129005,46.76334 70.1129005,46.76334" id="Path-893-Copy-2" stroke="#4990E2" stroke-width="2" transform="translate(52.821723, 34.062893) scale(-1, 1) translate(-52.821723, -34.062893) "></path>
                                <circle id="Oval-47-Copy-3" fill="#4990E2" cx="52.4088617" cy="79.8" r="1.05"></circle>
                                <g id="Group-4-Copy-4" transform="translate(51.358862, 87.675000)" fill="#4990E2">
                                    <ellipse id="Oval-47-Copy" cx="1.05" cy="1.05" rx="1.05" ry="1.05"></ellipse>
                                </g>
                                <g id="Group-4-Copy-5" transform="translate(51.358862, 96.600000)" fill="#4990E2">
                                    <ellipse id="Oval-47-Copy" cx="1.05" cy="1.05" rx="1.05" ry="1.05"></ellipse>
                                </g>
                                <path d="M36.75,68.25 C36.75,68.25 51.897583,82.1968506 52.6409912,68.4689209" id="Path-1250" stroke="#4990E2" stroke-width="2"></path>
                                <path d="M52.9545044,68.25 C52.9545044,68.25 68.1020874,82.1968506 68.8454956,68.4689209" id="Path-1250-Copy" stroke="#4990E2" stroke-width="2" transform="translate(60.900000, 71.381989) scale(-1, 1) translate(-60.900000, -71.381989) "></path>
                            </g>
                            <g id="Group-4-Copy-6" transform="translate(149.000000, 0.000000)">
                                <circle id="Oval-106" stroke="#4990E2" stroke-width="2" fill="#FFFFFF" cx="52.5" cy="52.5" r="52.5"></circle>
                                <ellipse id="Oval-46-Copy-2" stroke="#4990E2" stroke-width="2" cx="52.6713617" cy="45.675" rx="17.0625" ry="17.85"></ellipse>
                                <path d="M15.6588617,89.5125 C15.6588617,77.7695455 25.1763933,68.25 36.9221312,68.25 L68.9455922,68.25 C80.6889717,68.25 90.2088617,77.7669636 90.2088617,89.5125 L90.2088617,89.5125" id="Rectangle-366-Copy-5" stroke="#4990E2" stroke-width="2"></path>
                                <path d="M35.970211,47.3467873 C35.970211,47.3467873 34.9809654,35.9065034 35.970211,31.528855 C36.9594566,27.1512065 42.7998191,26.1331057 42.7998191,26.1331057 C42.7998191,26.1331057 47.7924455,18.6031494 58.0540432,21.4029785 C68.3156409,24.2028075 66.8862453,25.8562502 68.3156399,28.223364 C69.7450344,30.5904777 68.3156399,31.5288549 68.3156399,31.5288549 C68.3156399,31.5288549 70.1129003,32.5332248 70.1129005,36.3825417 C70.1129006,40.2318586 70.1129005,46.76334 70.1129005,46.76334" id="Path-893-Copy-2" stroke="#4990E2" stroke-width="2" transform="translate(52.821723, 34.062893) scale(-1, 1) translate(-52.821723, -34.062893) "></path>
                                <circle id="Oval-47-Copy-3" fill="#4990E2" cx="52.4088617" cy="79.8" r="1.05"></circle>
                                <g id="Group-4-Copy-4" transform="translate(51.358862, 87.675000)" fill="#4990E2">
                                    <ellipse id="Oval-47-Copy" cx="1.05" cy="1.05" rx="1.05" ry="1.05"></ellipse>
                                </g>
                                <g id="Group-4-Copy-5" transform="translate(51.358862, 96.600000)" fill="#4990E2">
                                    <ellipse id="Oval-47-Copy" cx="1.05" cy="1.05" rx="1.05" ry="1.05"></ellipse>
                                </g>
                                <path d="M36.75,68.25 C36.75,68.25 51.897583,82.1968506 52.6409912,68.4689209" id="Path-1250" stroke="#4990E2" stroke-width="2"></path>
                                <path d="M52.9545044,68.25 C52.9545044,68.25 68.1020874,82.1968506 68.8454956,68.4689209" id="Path-1250-Copy" stroke="#4990E2" stroke-width="2" transform="translate(60.900000, 71.381989) scale(-1, 1) translate(-60.900000, -71.381989) "></path>
                            </g>
                            <g id="Group-4-Copy-7" transform="translate(298.000000, 0.000000)">
                                <circle id="Oval-106" stroke="#4990E2" stroke-width="2" fill="#FFFFFF" cx="52.5" cy="52.5" r="52.5"></circle>
                                <ellipse id="Oval-46-Copy-2" stroke="#4990E2" stroke-width="2" cx="52.6713617" cy="45.675" rx="17.0625" ry="17.85"></ellipse>
                                <path d="M15.6588617,89.5125 C15.6588617,77.7695455 25.1763933,68.25 36.9221312,68.25 L68.9455922,68.25 C80.6889717,68.25 90.2088617,77.7669636 90.2088617,89.5125 L90.2088617,89.5125" id="Rectangle-366-Copy-5" stroke="#4990E2" stroke-width="2"></path>
                                <path d="M35.970211,47.3467873 C35.970211,47.3467873 34.9809654,35.9065034 35.970211,31.528855 C36.9594566,27.1512065 42.7998191,26.1331057 42.7998191,26.1331057 C42.7998191,26.1331057 47.7924455,18.6031494 58.0540432,21.4029785 C68.3156409,24.2028075 66.8862453,25.8562502 68.3156399,28.223364 C69.7450344,30.5904777 68.3156399,31.5288549 68.3156399,31.5288549 C68.3156399,31.5288549 70.1129003,32.5332248 70.1129005,36.3825417 C70.1129006,40.2318586 70.1129005,46.76334 70.1129005,46.76334" id="Path-893-Copy-2" stroke="#4990E2" stroke-width="2" transform="translate(52.821723, 34.062893) scale(-1, 1) translate(-52.821723, -34.062893) "></path>
                                <circle id="Oval-47-Copy-3" fill="#4990E2" cx="52.4088617" cy="79.8" r="1.05"></circle>
                                <g id="Group-4-Copy-4" transform="translate(51.358862, 87.675000)" fill="#4990E2">
                                    <ellipse id="Oval-47-Copy" cx="1.05" cy="1.05" rx="1.05" ry="1.05"></ellipse>
                                </g>
                                <g id="Group-4-Copy-5" transform="translate(51.358862, 96.600000)" fill="#4990E2">
                                    <ellipse id="Oval-47-Copy" cx="1.05" cy="1.05" rx="1.05" ry="1.05"></ellipse>
                                </g>
                                <path d="M36.75,68.25 C36.75,68.25 51.897583,82.1968506 52.6409912,68.4689209" id="Path-1250" stroke="#4990E2" stroke-width="2"></path>
                                <path d="M52.9545044,68.25 C52.9545044,68.25 68.1020874,82.1968506 68.8454956,68.4689209" id="Path-1250-Copy" stroke="#4990E2" stroke-width="2" transform="translate(60.900000, 71.381989) scale(-1, 1) translate(-60.900000, -71.381989) "></path>
                            </g>
                        </g>
                    </g>
                    <g id="Group-2" transform="translate(127.000000, 93.000000)">
                        <polyline id="Rectangle-224" stroke="#4990E2" stroke-width="2" fill="#FFFFFF" transform="translate(12.497887, 51.328905) rotate(-330.000000) translate(-12.497887, -51.328905) " points="20.5466679 42.2341679 20.5466679 60.4236416 12.6334748 55.1921556 4.44910691 60.4236416 4.44910691 42.2341679"></polyline>
                        <g id="Group-17" transform="translate(44.000000, 51.410526) scale(-1, 1) translate(-44.000000, -51.410526) translate(32.000000, 39.410526)" stroke-width="2" stroke="#4990E2" fill="#FFFFFF">
                            <polyline id="Rectangle-224-Copy" transform="translate(11.820570, 11.996287) rotate(-330.000000) translate(-11.820570, -11.996287) " points="19.5339841 2.75017568 19.5339841 21.2423977 11.9505074 15.9238381 4.10715487 21.2423977 4.10715487 2.75017568"></polyline>
                        </g>
                        <ellipse id="Oval-247-Copy" stroke="#4990E2" stroke-width="2" fill="#FFFFFF" cx="28.3323171" cy="23.7473684" rx="23.6432927" ry="23.7473684"></ellipse>
                        <path d="M30.7471706,43.3048386 C40.4431108,42.1094784 47.9512195,33.8090894 47.9512195,23.7473684 C47.9512195,12.8644521 39.1675377,4.04210526 28.3323171,4.04210526 C17.4970964,4.04210526 8.71341463,12.8644521 8.71341463,23.7473684 C8.71341463,33.7873157 16.1890632,42.0735458 25.8545478,43.2969785 L25.8545478,43.2969785" id="Oval-247" stroke="#4990E2" stroke-width="2" stroke-linecap="round"></path>
                        <text id="1" font-family="OpenSans-Semibold, Open Sans" font-size="24" font-weight="500" letter-spacing="2.38545442" fill="#4990E2">
                            <tspan x="20.7621951" y="31.1052632">1</tspan>
                        </text>
                    </g>
                </g>
            </g>
        </g>
    </g>
</svg>