<?xml version="1.0" encoding="UTF-8"?><svg width="58" height="58" viewBox="0 0 45 56" version="1.1" xmlns="http://www.w3.org/2000/svg" xmlns:xlink="http://www.w3.org/1999/xlink">        <title>location pin library 2.2.3.1</title>        <defs/>    <g id="Page-1" stroke="none" stroke-width="1" fill="none" fill-rule="evenodd">        <g id="Camp-Page" transform="translate(-536.000000, -10669.000000)">            <g id="location-pin-library-2.2.3.1" transform="translate(532.000000, 10669.000000)">                <g id="Group">                    <g id="Filled_Icons_1_" transform="translate(4.634483, 0.000000)" fill="#4990E2">                        <path d="M22.0137931,0.0139034483 C9.46361379,0.0139034483 0,9.9734069 0,23.1863172 C0,39.8078897 20.4635586,54.7795862 21.3348414,55.4075586 C21.5364414,55.5558621 21.7774345,55.6276966 22.0137931,55.6276966 C22.2501517,55.6276966 22.4911448,55.5558621 22.6927448,55.4075586 C23.5617103,54.7795862 44.0275862,39.8078897 44.0275862,23.1863172 C44.0275862,9.97572414 34.5639724,0.0139034483 22.0137931,0.0139034483 L22.0137931,0.0139034483 Z M20.8551724,36.5892414 L9.83205517,29.9758345 C9.48215172,29.7649655 9.26896552,29.3895724 9.26896552,28.9794207 L9.26896552,15.7363862 C9.26896552,15.3192828 9.49373793,14.9346207 9.85522759,14.7283862 C10.2190345,14.5221517 10.6662621,14.5267862 11.0231172,14.7422897 L20.8551724,20.6443034 L20.8551724,36.5892414 L20.8551724,36.5892414 Z M22.6649379,17.9099586 C22.4679724,18.0443586 22.2408828,18.1092414 22.0114759,18.1092414 C21.782069,18.1092414 21.5549793,18.0443586 21.3580138,17.9099586 L14.4062897,13.161931 C13.8779586,12.8004414 13.7412414,12.0797793 14.102731,11.5537655 C14.4665379,11.0231172 15.1872,10.8887172 15.7132138,11.2478897 L22.0114759,15.5510069 L28.3097379,11.2478897 C28.8357517,10.8887172 29.558731,11.0231172 29.9202207,11.5537655 C30.2817103,12.0797793 30.1449931,12.8004414 29.6166621,13.161931 L22.6649379,17.9099586 L22.6649379,17.9099586 Z M34.7586207,28.9794207 C34.7586207,29.3895724 34.5431172,29.7626483 34.195531,29.9735172 L23.1724138,36.5892414 L23.1724138,20.6443034 L33.004469,14.7446069 C33.3613241,14.5291034 33.8085517,14.524469 34.1723586,14.7307034 C34.5338483,14.9323034 34.7586207,15.3169655 34.7586207,15.7363862 L34.7586207,28.9794207 L34.7586207,28.9794207 Z" id="Shape"/>                    </g>                    <g id="invisible_shape">                        <rect id="Rectangle-path" x="0" y="0" width="55.6137931" height="55.6137931"/>                    </g>                </g>            </g>        </g>    </g></svg>