<?xml version="1.0" encoding="UTF-8"?><svg width="58px" height="58px" viewBox="0 0 58 58" version="1.1" xmlns="http://www.w3.org/2000/svg" xmlns:xlink="http://www.w3.org/1999/xlink">        <title>car park.2.3.1</title>        <defs/>    <g id="Page-1" stroke="none" stroke-width="1" fill="none" fill-rule="evenodd">        <g id="Camp-Page" transform="translate(-1012.000000, -10666.000000)">            <g id="car-park.2.3.1" transform="translate(1012.000000, 10666.000000)">                <g id="Group">                    <g id="Filled_Icons" fill="#4990E2">                        <g id="Group">                            <path d="M43.3211667,36.77925 C41.9485,36.076 40.5081667,36.25 40.5081667,36.25 L7.82516667,36.25 L11.6918333,26.5833333 L24.3648333,26.5833333 C23.9153333,25.81 23.5141667,25.00525 23.1734167,24.1666667 L10.875,24.1666667 C10.3795833,24.1666667 9.93491667,24.4663333 9.75125,24.9255 L5.00975,36.7768333 L0.352833333,41.4361667 C0.128083333,41.6633333 0,41.97025 0,42.2916667 L0,45.9166667 L12.0833333,45.9166667 C12.7503333,45.9166667 13.2916667,46.458 13.2916667,47.125 C13.2916667,47.792 12.7503333,48.3333333 12.0833333,48.3333333 L0,48.3333333 L0,51.9583333 C0,52.6253333 0.541333333,53.1666667 1.20833333,53.1666667 L2.41666667,53.1666667 L2.41666667,56.7916667 C2.41666667,57.4586667 2.958,58 3.625,58 L10.875,58 C11.542,58 12.0833333,57.4586667 12.0833333,56.7916667 L12.0833333,53.1666667 L36.25,53.1666667 L36.25,56.7916667 C36.25,57.4586667 36.7913333,58 37.4583333,58 L44.7083333,58 C45.3753333,58 45.9166667,57.4586667 45.9166667,56.7916667 L45.9166667,53.1666667 L47.125,53.1666667 C47.792,53.1666667 48.3333333,52.6253333 48.3333333,51.9583333 L48.3333333,48.3333333 L36.25,48.3333333 C35.583,48.3333333 35.0416667,47.792 35.0416667,47.125 C35.0416667,46.458 35.583,45.9166667 36.25,45.9166667 L48.3333333,45.9166667 L48.3333333,42.2916667 C48.3333333,41.97025 48.20525,41.6633333 47.9805,41.4361667 L43.3211667,36.77925 L43.3211667,36.77925 Z" id="Shape"/>                            <g transform="translate(24.166667, 0.000000)" id="Shape">                                <path d="M18.125,9.66666667 L14.5,9.66666667 L14.5,16.9166667 L18.125,16.9166667 C20.1235833,16.9166667 21.75,15.29025 21.75,13.2916667 C21.75,11.2930833 20.1235833,9.66666667 18.125,9.66666667 L18.125,9.66666667 Z"/>                                <path d="M16.9166667,0 C7.58833333,0 0,7.59075 0,16.9166667 C0,26.2425833 7.58833333,33.8333333 16.9166667,33.8333333 C26.245,33.8333333 33.8333333,26.2425833 33.8333333,16.9166667 C33.8333333,7.59075 26.245,0 16.9166667,0 L16.9166667,0 Z M18.125,19.3333333 L14.5,19.3333333 L14.5,25.375 C14.5,26.042 13.9586667,26.5833333 13.2916667,26.5833333 C12.6246667,26.5833333 12.0833333,26.042 12.0833333,25.375 L12.0833333,8.45833333 C12.0833333,7.79133333 12.6246667,7.25 13.2916667,7.25 L18.125,7.25 C21.4551667,7.25 24.1666667,9.95908333 24.1666667,13.2916667 C24.1666667,16.62425 21.4551667,19.3333333 18.125,19.3333333 L18.125,19.3333333 Z"/>                            </g>                        </g>                    </g>                    <g id="invisible_shape">                        <rect id="Rectangle-path" x="0" y="0" width="58" height="58"/>                    </g>                </g>            </g>        </g>    </g></svg>