<?xml version="1.0" encoding="UTF-8"?><svg width="58" height="58" viewBox="0 0 59 42" version="1.1" xmlns="http://www.w3.org/2000/svg" xmlns:xlink="http://www.w3.org/1999/xlink">        <title>food dome.2.3.1</title>        <defs/>    <g id="Page-1" stroke="none" stroke-width="1" fill="none" fill-rule="evenodd">        <g id="Camp-Page" transform="translate(-163.000000, -10678.000000)">            <g id="food-dome.2.3.1" transform="translate(163.500000, 10671.000000)">                <g id="Group">                    <g id="Filled_Icons" transform="translate(0.000000, 7.250000)" fill="#4990E2">                        <g id="Group">                            <path d="M56.7916667,33.8333333 L1.20833333,33.8333333 C0.541333333,33.8188333 0,34.3625833 0,35.0271667 C0,35.6965833 0.541333333,36.2355 1.20833333,36.2355 L3.12475,36.2355 L7.60525,40.716 C7.83241667,40.948 8.13933333,41.0688333 8.45833333,41.0688333 L49.5416667,41.0688333 C49.8630833,41.0688333 50.17,40.9455833 50.3971667,40.716 L54.8776667,36.2355 L56.7916667,36.2355 C57.4586667,36.2355 58,35.6965833 58,35.0271667 C58,34.3625833 57.4586667,33.8188333 56.7916667,33.8333333 L56.7916667,33.8333333 Z" id="Shape"/>                            <path d="M7.25,31.4166667 L50.75,31.4166667 L50.7741667,31.4166667 C51.4411667,31.4166667 51.9825,30.87775 51.9825,30.2083333 C51.9825,19.1303333 43.9108333,9.52408333 32.9415833,7.6125 C33.4974167,6.82466667 33.8333333,5.87008333 33.8333333,4.83333333 C33.8333333,2.17016667 31.6631667,0 29,0 C26.332,0 24.1666667,2.17016667 24.1666667,4.83333333 C24.1666667,5.8725 24.5001667,6.82708333 25.0584167,7.6125 C14.2728333,9.49266667 6.04166667,18.8959167 6.04166667,30.2083333 C6.04166667,30.87775 6.583,31.4166667 7.25,31.4166667 L7.25,31.4166667 Z M29,2.41666667 C30.3315833,2.41666667 31.4166667,3.50175 31.4166667,4.83333333 C31.4166667,6.16975 30.3315833,7.25 29,7.25 C27.666,7.25 26.5833333,6.16975 26.5833333,4.83333333 C26.5833333,3.50175 27.666,2.41666667 29,2.41666667 L29,2.41666667 Z M14.7440833,21.1023333 C17.8688333,16.211 23.2,13.2916667 29,13.2916667 C29.667,13.2916667 30.2083333,13.8354167 30.2083333,14.5 C30.2083333,15.1694167 29.667,15.7083333 29,15.7083333 C24.0265,15.7083333 19.4614167,18.212 16.7789167,22.4049167 C16.5493333,22.7625833 16.16025,22.9583333 15.7615,22.9583333 C15.5391667,22.9583333 15.312,22.8979167 15.1114167,22.7698333 C14.55075,22.40975 14.384,21.663 14.7440833,21.1023333 L14.7440833,21.1023333 Z" id="Shape"/>                        </g>                    </g>                    <g id="invisible_shape">                        <rect id="Rectangle-path" x="0" y="0" width="58" height="58"/>                    </g>                </g>            </g>        </g>    </g></svg>