<?xml version="1.0" encoding="UTF-8"?><svg width="136px" height="136px" viewBox="0 0 136 136" version="1.1" xmlns="http://www.w3.org/2000/svg" xmlns:xlink="http://www.w3.org/1999/xlink">        <title>Group 32</title>        <defs/>    <g id="Page-1" stroke="none" stroke-width="1" fill="none" fill-rule="evenodd">        <g id="Camp-Page" transform="translate(-1084.000000, -7525.000000)">            <g id="Group-32" transform="translate(1084.000000, 7525.000000)">                <circle id="Oval-4-Copy-2" fill="#FFFFFF" cx="68" cy="68" r="68"/>                <g id="hierarchy-business.3.3.1" transform="translate(28.000000, 22.000000)">                    <g id="Group">                        <g id="Invisible_Shape">                            <rect id="Rectangle-path" x="0" y="0" width="80" height="80"/>                        </g>                        <g id="Outline_Icons_1_" transform="translate(3.000000, 1.000000)" stroke-width="4" stroke="#4990E2">                            <g id="Outline_Icons">                                <g id="Group">                                    <ellipse id="Oval" cx="37" cy="9.96333333" rx="9.24666667" ry="9.24666667"/>                                    <path d="M51.7933333,34 L22.2066667,34 C22.2066667,25.8366667 28.8266667,19.2066667 37,19.2066667 C45.1766667,19.2066667 51.7933333,25.8366667 51.7933333,34 L51.7933333,34 Z" id="Shape"/>                                    <ellipse id="Oval" cx="11.8633333" cy="58.86" rx="6.66666667" ry="6.66666667"/>                                    <path d="M23.68,77.34 L0.0466666667,77.34 C0.0466666667,70.8133333 5.33333333,65.5266667 11.8633333,65.5266667 C18.39,65.5266667 23.68,70.8133333 23.68,77.34 L23.68,77.34 Z" id="Shape"/>                                    <ellipse id="Oval" cx="61.8633333" cy="58.86" rx="6.66666667" ry="6.66666667"/>                                    <path d="M73.68,77.34 L50.0466667,77.34 C50.0466667,70.8133333 55.3333333,65.5266667 61.8633333,65.5266667 C68.39,65.5266667 73.68,70.8133333 73.68,77.34 L73.68,77.34 Z" id="Shape"/>                                    <path d="M61.8633333,65.5266667 C65.5452317,65.5266667 68.53,62.5418983 68.53,58.86 C68.53,55.1781017 65.5452317,52.1933333 61.8633333,52.1933333 C58.181435,52.1933333 55.1966667,55.1781017 55.1966667,58.86 C55.1966667,62.5418983 58.181435,65.5266667 61.8633333,65.5266667 Z" id="Oval"/>                                    <path d="M73.68,77.34 L50.0466667,77.34 C50.0466667,70.8133333 55.3333333,65.5266667 61.8633333,65.5266667 C68.39,65.5266667 73.68,70.8133333 73.68,77.34 L73.68,77.34 Z" id="Shape"/>                                    <ellipse id="Oval" cx="37" cy="58.86" rx="6.66666667" ry="6.66666667"/>                                    <path d="M48.8166667,77.34 L25.1866667,77.34 C25.1866667,70.8133333 30.4733333,65.5266667 37,65.5266667 C43.53,65.5266667 48.8166667,70.8133333 48.8166667,77.34 L48.8166667,77.34 Z" id="Shape"/>                                    <polyline id="Shape" points="12 43.93 12 40.6666667 62 40.6666667 62 43.93"/>                                    <path d="M37,34 L37,43.93" id="Shape"/>                                </g>                            </g>                        </g>                    </g>                </g>            </g>        </g>    </g></svg>