<?xml version="1.0" encoding="UTF-8"?><svg width="136px" height="136px" viewBox="0 0 136 136" version="1.1" xmlns="http://www.w3.org/2000/svg" xmlns:xlink="http://www.w3.org/1999/xlink">        <title>Group 31</title>        <defs/>    <g id="Page-1" stroke="none" stroke-width="1" fill="none" fill-rule="evenodd">        <g id="Camp-Page" transform="translate(-247.000000, -7525.000000)">            <g id="Group-31" transform="translate(247.000000, 7525.000000)">                <circle id="Oval-4" fill="#FFFFFF" cx="68" cy="68" r="68"/>                <g id="account-check.3.3.1" transform="translate(30.000000, 29.000000)">                    <g id="Group">                        <g id="Outline_Icons_1_" transform="translate(4.333333, 1.000000)" stroke-width="4" stroke="#4990E2">                            <g id="New_icons_1_">                                <g id="Group" transform="translate(-0.000000, 0.000000)">                                    <path d="M62.5433333,27.02 C62.5433333,10.25 46.7066667,0.666666667 32.3333333,0.666666667 C14.47,0.666666667 0.666666667,14.6766667 0.666666667,32.54 C0.666666667,42.6833333 4,52.2 14,58.1333333 L14,77.3333333 L47.3333333,77.3333333 L47.3333333,65.7433333 C54,65.78 57.3933333,65.2966667 59.73,62.9566667 C62.7233333,59.9633333 62.4366667,47.33 62.4366667,47.33 C62.4366667,47.33 65.2833333,47.4366667 67.43,47.35 C68.18,47.3166667 68.92,46.94 69.3466667,46.3266667 C69.7766667,45.7133333 69.64,44.9733333 69.6933333,44.2266667 C70.08,38.8766667 62.5433333,29.69 62.5433333,27.02 L62.5433333,27.02 Z" id="Shape"/>                                    <g transform="translate(16.666667, 16.666667)" id="Shape">                                        <polyline points="35.6666667 2.33333333 14 22.3333333 7.33333333 15.6666667"/>                                        <polyline points="30.6666667 17.3333333 30.6666667 30.6666667 0.666666667 30.6666667 0.666666667 0.666666667 24 0.666666667"/>                                    </g>                                </g>                            </g>                        </g>                        <g id="Invisible_Shape">                            <rect id="Rectangle-path" x="0" y="0" width="80" height="80"/>                        </g>                    </g>                </g>            </g>        </g>    </g></svg>