<?xml version="1.0" encoding="UTF-8"?><svg width="136px" height="136px" viewBox="0 0 136 136" version="1.1" xmlns="http://www.w3.org/2000/svg" xmlns:xlink="http://www.w3.org/1999/xlink">        <title>Group 36</title>        <defs/>    <g id="Page-1" stroke="none" stroke-width="1" fill="none" fill-rule="evenodd">        <g id="Camp-Page" transform="translate(-1084.000000, -7930.000000)">            <g id="Group-36" transform="translate(1084.000000, 7930.000000)">                <circle id="Oval-4-Copy-5" fill="#FFFFFF" cx="68" cy="68" r="68"/>                <g id="find-job.3.3.1" transform="translate(32.000000, 33.000000)">                    <g id="Group">                        <g id="Outline_Icons" transform="translate(1.000000, 1.000000)" stroke-width="4" stroke="#4990E2">                            <g id="Group">                                <circle id="Oval" cx="34" cy="34" r="33.3333333"/>                                <path d="M57.5733333,57.58 L77.3333333,77.3333333" id="Shape"/>                                <path d="M36.3333333,33.1666667 L39.91,33.1666667 C42.9566667,33.1666667 43.4866667,34.8266667 43.4866667,36.8933333 C43.4866667,38.9633333 42.9566667,40.6666667 39.91,40.6666667 L36.3333333,40.6666667 L36.3333333,25.6666667 L39.91,25.6666667 C42.9566667,25.6666667 43.4866667,27.34 43.4866667,29.4133333 C43.4866667,31.48 42.9566667,33.1666667 39.91,33.1666667 L36.3333333,33.1666667 L36.3333333,33.1666667 Z" id="Shape"/>                                <path d="M9.18,37.09 C9.18,37.09 8.90666667,40.6666667 12.7566667,40.6666667 C16.5333333,40.6666667 16.3333333,37.2133333 16.3333333,37.2133333 L16.3333333,25.6666667" id="Shape"/>                                <path d="M30.5633333,33.1666667 C30.5633333,37.39 29.9333333,40.6666667 26.3333333,40.6666667 C22.7333333,40.6666667 22.1,37.39 22.1,33.1666667 C22.1,28.9466667 22.7333333,25.6666667 26.3333333,25.6666667 C29.93,25.6666667 30.5633333,28.9466667 30.5633333,33.1666667 L30.5633333,33.1666667 Z" id="Shape"/>                                <path d="M49.9966667,37.0833333 C50.1133333,39.09 51.67,40.6666667 53.57,40.6666667 C55.55,40.6666667 57.1533333,38.9533333 57.1533333,36.8433333 C57.1533333,33.7266667 54.2033333,33.3366667 53.58,33.1533333 C52.9533333,32.97 49.9966667,32.6133333 49.9966667,29.4966667 C49.9966667,27.38 51.6,25.6666667 53.58,25.6666667 C55.48,25.6666667 57.0366667,27.2533333 57.1533333,29.25" id="Shape"/>                            </g>                        </g>                        <g id="Invisibla_Shape">                            <rect id="Rectangle-path" x="0" y="0" width="80" height="80"/>                        </g>                    </g>                </g>            </g>        </g>    </g></svg>