<?xml version="1.0" encoding="UTF-8"?><svg width="136px" height="136px" viewBox="0 0 136 136" version="1.1" xmlns="http://www.w3.org/2000/svg" xmlns:xlink="http://www.w3.org/1999/xlink">        <title>Group 34</title>        <defs/>    <g id="Page-1" stroke="none" stroke-width="1" fill="none" fill-rule="evenodd">        <g id="Camp-Page" transform="translate(-247.000000, -7930.000000)">            <g id="Group-34" transform="translate(247.000000, 7930.000000)">                <circle id="Oval-4-Copy-3" fill="#FFFFFF" cx="68" cy="68" r="68"/>                <g id="hand-bag-3.3.3.1" transform="translate(30.000000, 25.000000)">                    <g id="Group">                        <g id="Outline_Icons" transform="translate(1.000000, 4.333333)" stroke-width="4" stroke="#4990E2">                            <g id="Group">                                <path d="M4,47.3333333 L4,67.3333333 L74,67.3333333 L74,47.3333333 L77.3333333,47.3333333 L77.3333333,20.6666667 C77.3333333,16.9866667 74.3466667,14 70.6666667,14 L7.33333333,14 C3.65333333,14 0.666666667,16.9866667 0.666666667,20.6666667 L0.666666667,47.3333333 L4,47.3333333 L4,47.3333333 Z" id="Shape"/>                                <rect id="Rectangle-path" x="30.6666667" y="40.6666667" width="16.6666667" height="10"/>                                <path d="M54,14 L24,14 L24,10.6666667 C24,5.14666667 28.48,0.666666667 34,0.666666667 L44,0.666666667 C49.5233333,0.666666667 54,5.14666667 54,10.6666667 L54,14 L54,14 Z" id="Shape"/>                                <path d="M4,46 L30.6666667,46" id="Shape"/>                                <path d="M47.3333333,46 L74,46" id="Shape"/>                            </g>                        </g>                        <g id="Invisible_Shape">                            <rect id="Rectangle-path" x="0" y="0" width="80" height="80"/>                        </g>                    </g>                </g>            </g>        </g>    </g></svg>