<?xml version="1.0" encoding="UTF-8"?><svg width="136px" height="136px" viewBox="0 0 136 136" version="1.1" xmlns="http://www.w3.org/2000/svg" xmlns:xlink="http://www.w3.org/1999/xlink">        <title>Group 33</title>        <defs/>    <g id="Page-1" stroke="none" stroke-width="1" fill="none" fill-rule="evenodd">        <g id="Camp-Page" transform="translate(-652.000000, -7525.000000)">            <g id="Group-33" transform="translate(652.000000, 7525.000000)">                <circle id="Oval-4-Copy" fill="#FFFFFF" cx="68" cy="68" r="68"/>                <g id="business-male-chat.3.3.1" transform="translate(29.000000, 32.000000)">                    <g id="Group">                        <g id="Outline_Icons_1_" transform="translate(3.333333, 1.000000)">                            <g id="New_icons_1_">                                <g id="Group" transform="translate(-0.000000, 0.000000)">                                    <g stroke="#4990E2" stroke-width="4">                                        <ellipse id="Oval" cx="18.3333333" cy="12.3333333" rx="11.6666667" ry="11.6666667"/>                                        <path d="M36.6666667,30.6666667 L0,30.6666667 C0,44.23 5.46666667,52.14 11.6666667,55.6666667 L11.6666667,77.3333333 L25,77.3333333 L25,55.6666667 C31.1933333,52.14 36.6666667,44.23 36.6666667,30.6666667 L36.6666667,30.6666667 Z" id="Shape"/>                                        <polygon id="Shape" points="20 30.6666667 16.6666667 30.6666667 15 50.6666667 18.3333333 54 21.6666667 50.6666667"/>                                    </g>                                    <g transform="translate(41.000000, 0.000000)" id="Shape">                                        <polyline stroke="#4990E2" stroke-width="4" points="5.66666667 20.6666667 10.6666667 20.6666667 10.6666667 29 19 20.6666667 34 20.6666667 34 0.666666667 0.666666667 0.666666667 0.666666667 14"/>                                        <polygon fill="#4990E2" points="25.6666667 9 22.3333333 9 22.3333333 12.3333333 25.6666667 12.3333333"/>                                        <polygon fill="#4990E2" points="19 9 15.6666667 9 15.6666667 12.3333333 19 12.3333333"/>                                        <polygon fill="#4990E2" points="12.3333333 9 9 9 9 12.3333333 12.3333333 12.3333333"/>                                    </g>                                </g>                            </g>                        </g>                        <g id="Invisible_Shape">                            <rect id="Rectangle-path" x="0" y="0" width="80" height="80"/>                        </g>                    </g>                </g>            </g>        </g>    </g></svg>