<?xml version="1.0" encoding="UTF-8"?><svg width="136px" height="136px" viewBox="0 0 136 136" version="1.1" xmlns="http://www.w3.org/2000/svg" xmlns:xlink="http://www.w3.org/1999/xlink">        <title>Group 35</title>        <defs/>    <g id="Page-1" stroke="none" stroke-width="1" fill="none" fill-rule="evenodd">        <g id="Camp-Page" transform="translate(-652.000000, -7930.000000)">            <g id="Group-35" transform="translate(652.000000, 7930.000000)">                <circle id="Oval-4-Copy-4" fill="#FFFFFF" cx="68" cy="68" r="68"/>                <g id="certificate-2.3.3.1" transform="translate(28.000000, 37.000000)">                    <g id="Group">                        <g id="Outline_Icons_1_" transform="translate(1.000000, 1.000000)" stroke-width="4" stroke="#4990E2">                            <g id="Outline_Icons">                                <g id="Group">                                    <polyline id="Shape" points="39 54 0.666666667 54 0.666666667 0.666666667 77.3333333 0.666666667 77.3333333 29"/>                                    <polyline id="Shape" points="70.6666667 55.6666667 70.6666667 77.3333333 60.6666667 69 50.6666667 77.3333333 50.6666667 55.6666667"/>                                    <circle id="Oval" cx="60.6666667" cy="45.6666667" r="5"/>                                    <path d="M73.07,45.6666667 C74.7433333,43.5833333 75.0766667,40.62 73.66,38.1666667 C72.2433333,35.7166667 69.5066667,34.5166667 66.87,34.9233333 C65.9,32.4366667 63.4966667,30.6666667 60.6666667,30.6666667 C57.8333333,30.6666667 55.4333333,32.4366667 54.4666667,34.9266667 C51.8266667,34.52 49.0933333,35.7133333 47.68,38.1666667 C46.2633333,40.62 46.5966667,43.5866667 48.2666667,45.6666667 C46.5966667,47.75 46.2633333,50.7166667 47.68,53.1666667 C49.0933333,55.62 51.83,56.8166667 54.47,56.41 C55.4366667,58.8966667 57.84,60.6666667 60.6666667,60.6666667 C63.5,60.6666667 65.9,58.8966667 66.87,56.4066667 C69.5066667,56.8133333 72.24,55.62 73.6566667,53.1666667 C75.0733333,50.7166667 74.7433333,47.7466667 73.07,45.6666667 L73.07,45.6666667 Z" id="Shape"/>                                    <path d="M70.6666667,25.6666667 L70.6666667,17.3333333 C65.1433333,17.3333333 60.6666667,12.8566667 60.6666667,7.33333333 L17.3333333,7.33333333 C17.3333333,12.8566667 12.8533333,17.3333333 7.33333333,17.3333333 L7.33333333,37.3333333 C12.8533333,37.3333333 17.3333333,41.81 17.3333333,47.3333333 L39,47.3333333" id="Shape"/>                                </g>                            </g>                        </g>                        <g id="Invisible_Shape">                            <rect id="Rectangle-path" x="0" y="0" width="80" height="80"/>                        </g>                    </g>                </g>            </g>        </g>    </g></svg>