<?xml version="1.0" encoding="UTF-8"?>
<svg width="176px" height="176px" viewBox="0 0 176 176" version="1.1" xmlns="http://www.w3.org/2000/svg" xmlns:xlink="http://www.w3.org/1999/xlink">
    <!-- Generator: Sketch 40.3 (33839) - http://www.bohemiancoding.com/sketch -->
    <title>Group 40</title>
    <desc>Created with Sketch.</desc>
    <defs></defs>
    <g id="Page-1" stroke="none" stroke-width="1" fill="none" fill-rule="evenodd">
        <g id="Camp-Page" transform="translate(-1024.000000, -868.000000)">
            <g id="Group-40" transform="translate(1024.000000, 868.000000)">
                <circle id="Oval-2-Copy-3" fill="#FFFFFF" cx="88" cy="88" r="88"></circle>
                <rect id="Rectangle-9" stroke="#4990E2" stroke-width="4" stroke-linecap="round" stroke-linejoin="round" x="50" y="43" width="78.5273815" height="92"></rect>
                <g id="account-circle-1.3.3.1" transform="translate(62.215370, 55.150943)">
                    <g id="Group">
                        <g id="Outline_Icons_1_" transform="translate(-0.000000, 0.000000)" stroke-width="3" stroke="#4990E2">
                            <g id="Outline_Icons" transform="translate(0.000000, 0.000000)">
                                <g id="Group">
                                    <path d="M10.1794754,15.1886792 C10.1794754,15.1886792 8.65255407,14.6823899 8.65255407,12.1509434 C7.81172941,12.1509434 7.81172941,10.1257862 8.65255407,10.1257862 C8.65255407,9.78657233 7.12563277,6.0754717 9.67050161,6.58176101 C10.1794754,4.55660377 15.7781868,4.55660377 16.2871606,6.58176101 C16.6403884,7.98722013 15.7781868,9.87669182 15.7781868,10.1257862 C16.6190115,10.1257862 16.6190115,12.1509434 15.7781868,12.1509434 C15.7781868,14.6823899 14.2512655,15.1886792 14.2512655,15.1886792 L14.2512655,17.7201258 C16.7727216,18.6608113 19.2697469,19.4384717 20.548289,20.3275157 C22.6330456,18.2254025 23.9217671,15.3375283 23.9217671,12.1509434 C23.9217671,5.71904403 18.6813732,0.506289308 12.2153705,0.506289308 C5.74936769,0.506289308 0.508973769,5.71904403 0.508973769,12.1509434 C0.508973769,15.3436038 1.80176714,18.2355283 3.89364933,20.3396667 C5.24751956,19.4080943 7.916578,18.5717044 10.1794754,17.7201258 L10.1794754,15.1886792 L10.1794754,15.1886792 Z" id="Shape"></path>
                                    <path d="M3.89364933,20.3396667 C6.01606995,22.4731698 8.95997423,23.7955975 12.2153705,23.7955975 C15.4758564,23.7955975 18.4248504,22.4681069 20.548289,20.3275157" id="Shape"></path>
                                    <path d="M0.872526461,34.9791667 L53.874984,34.9791667" id="Path-2" stroke-linecap="round" stroke-linejoin="round"></path>
                                    <path d="M0.872526461,41.6875 L47.9889554,41.6875" id="Path-2-Copy" stroke-linecap="round" stroke-linejoin="round"></path>
                                    <path d="M0.872526461,48.3958333 L53.874984,48.3958333" id="Path-2-Copy-2" stroke-linecap="round" stroke-linejoin="round"></path>
                                    <path d="M0.872526461,56.0625 L35.7735849,56.0625" id="Path-2-Copy-3" stroke-linecap="round" stroke-linejoin="round"></path>
                                    <path d="M0.872526461,68.5208333 L14.887566,68.5208333" id="Path-2-Copy-4" stroke-linecap="round" stroke-linejoin="round"></path>
                                </g>
                            </g>
                        </g>
                        <g id="Invisible_Shape" transform="translate(-0.000000, 0.000000)">
                            <rect id="Rectangle-path" x="0" y="0" width="24.4307409" height="24.3018868"></rect>
                        </g>
                    </g>
                </g>
            </g>
        </g>
    </g>
</svg>