<?xml version="1.0" encoding="UTF-8"?>
<svg width="176px" height="176px" viewBox="0 0 176 176" version="1.1" xmlns="http://www.w3.org/2000/svg" xmlns:xlink="http://www.w3.org/1999/xlink">
    <!-- Generator: Sketch 40.3 (33839) - http://www.bohemiancoding.com/sketch -->
    <title>Group 38</title>
    <desc>Created with Sketch.</desc>
    <defs>
        <rect id="path-1" x="21.5667555" y="2.39275266e-12" width="8.92042401" height="31.5384615"></rect>
        <mask id="mask-2" maskContentUnits="userSpaceOnUse" maskUnits="objectBoundingBox" x="0" y="0" width="8.92042401" height="31.5384615" fill="white">
            <use xlink:href="#path-1"></use>
        </mask>
    </defs>
    <g id="Page-1" stroke="none" stroke-width="1" fill="none" fill-rule="evenodd">
        <g id="Camp-Page" transform="translate(-240.000000, -868.000000)">
            <g id="Group-38" transform="translate(240.000000, 868.000000)">
                <circle id="Oval-2" fill="#FFFFFF" cx="88" cy="88" r="88"></circle>
                <g id="Group-14" transform="translate(41.000000, 50.000000)" stroke="#4990E2">
                    <ellipse id="Oval-2-Copy" stroke-width="4" stroke-linecap="round" stroke-linejoin="round" cx="76.7435897" cy="8.41025641" rx="6.30769231" ry="6.30769231"></ellipse>
                    <polyline id="Path-11" stroke-width="4" stroke-linecap="round" stroke-linejoin="round" points="84.9982224 24.6799616 96.5325028 51.7967176 69.6299597 51.7967176 81.8443757 78.9900602 70.4548628 78.9900602"></polyline>
                    <polyline id="Path-12" stroke-width="4" stroke-linecap="round" stroke-linejoin="round" points="51.5128205 35.8121024 70.964253 35.8121024 84.8385566 24.4010031"></polyline>
                    <polyline id="Path-13" stroke-width="4" points="79.7929655 58.4195891 104.987633 58.4195891 104.987633 30.4227712"></polyline>
                    <polyline id="Path-14" stroke-width="4" points="93.285807 58.8376058 93.285807 78.6873737 87.5808683 78.6873737"></polyline>
                    <path d="M0,81.4778507 L0,46.9419577 C0,42.4994114 3.75501967,38.8980161 8.4039492,38.8980161 L55.7242559,38.8980161 C60.3656289,38.8980161 64.1282051,42.5083688 64.1282051,46.9419577 L64.1282051,81.4778507" id="Rectangle-14" stroke-width="4"></path>
                    <path d="M17.8717948,36.7948718 L37.3736503,36.7948718" id="Path-15" stroke-width="4"></path>
                    <g id="Group-13" transform="translate(22.891918, 19.110894) rotate(-9.000000) translate(-22.891918, -19.110894) translate(7.391918, 3.110894)">
                        <use id="Rectangle-15" mask="url(#mask-2)" stroke-width="8" xlink:href="#path-1"></use>
                        <polyline id="Path-16" stroke-width="4" points="22.8696989 5.06898247 0.861727797 11.1311634 0.861727797 27.2947702 23.3215189 27.2947702"></polyline>
                    </g>
                </g>
            </g>
        </g>
    </g>
</svg>