<?xml version="1.0" encoding="UTF-8"?>
<svg width="137px" height="136px" viewBox="0 0 137 136" version="1.1" xmlns="http://www.w3.org/2000/svg" xmlns:xlink="http://www.w3.org/1999/xlink">
    <!-- Generator: Sketch 40.3 (33839) - http://www.bohemiancoding.com/sketch -->
    <title>account circle 1.3.3.1</title>
    <desc>Created with Sketch.</desc>
    <defs></defs>
    <g id="Page-1" stroke="none" stroke-width="1" fill="none" fill-rule="evenodd">
        <g id="Camp-Page" transform="translate(-322.000000, -8897.000000)">
            <g id="account-circle-1.3.3.1" transform="translate(322.000000, 8896.230447)">
                <g id="Group">
                    <g id="Outline_Icons_1_" transform="translate(2.403509, 2.403509)" stroke-linecap="round" stroke-width="4" stroke="#FFFFFF" stroke-linejoin="round">
                        <g id="Outline_Icons">
                            <g id="Group">
                                <path d="M54.6798246,83.2214912 C54.6798246,83.2214912 46.1173246,80.3673246 46.1173246,66.0964912 C41.4022412,66.0964912 41.4022412,54.6798246 46.1173246,54.6798246 C46.1173246,52.7675329 37.5548246,31.8464912 51.8256579,34.7006579 C54.6798246,23.2839912 86.0756579,23.2839912 88.9298246,34.7006579 C90.9106162,42.6238246 86.0756579,53.2755746 86.0756579,54.6798246 C90.7907412,54.6798246 90.7907412,66.0964912 86.0756579,66.0964912 C86.0756579,80.3673246 77.5131579,83.2214912 77.5131579,83.2214912 L77.5131579,97.4923246 C91.6526996,102.795366 105.655241,107.179366 112.824908,112.191283 C124.515575,100.340783 131.742325,84.0606162 131.742325,66.0964912 C131.742325,29.8371579 102.355825,0.450657895 66.0964912,0.450657895 C29.8371579,0.450657895 0.450657895,29.8371579 0.450657895,66.0964912 C0.450657895,84.0948662 7.70024123,100.397866 19.4308662,112.259783 C27.0229496,107.008116 41.9901996,102.293033 54.6798246,97.4923246 L54.6798246,83.2214912 L54.6798246,83.2214912 Z" id="Shape"></path>
                                <path d="M19.4308662,112.259783 C31.3327412,124.287241 47.8412412,131.742325 66.0964912,131.742325 C84.3802829,131.742325 100.917325,124.2587 112.824908,112.191283" id="Shape"></path>
                            </g>
                        </g>
                    </g>
                    <g id="Invisible_Shape">
                        <rect id="Rectangle-path" x="0" y="0" width="137" height="137"></rect>
                    </g>
                </g>
            </g>
        </g>
    </g>
</svg>