<?xml version="1.0" encoding="UTF-8"?>
<svg width="120px" height="120px" viewBox="0 0 120 120" version="1.1" xmlns="http://www.w3.org/2000/svg" xmlns:xlink="http://www.w3.org/1999/xlink">
    <!-- Generator: Sketch 40.3 (33839) - http://www.bohemiancoding.com/sketch -->
    <title>Group 28</title>
    <desc>Created with Sketch.</desc>
    <defs>
        <rect id="path-1" x="0" y="0" width="120" height="120" rx="20"></rect>
        <mask id="mask-2" maskContentUnits="userSpaceOnUse" maskUnits="objectBoundingBox" x="0" y="0" width="120" height="120" fill="white">
            <use xlink:href="#path-1"></use>
        </mask>
    </defs>
    <g id="Page-1" stroke="none" stroke-width="1" fill="none" fill-rule="evenodd">
        <g id="Camp-Page" transform="translate(-591.000000, -4768.000000)">
            <rect id="Rectangle-21" fill="#F8F8F8" x="0" y="3056" width="1440" height="2160"></rect>
            <g id="Group-28" transform="translate(591.000000, 4768.000000)">
                <use id="Rectangle-24-Copy" stroke="#DEDDDE" mask="url(#mask-2)" stroke-width="2" fill="#FFFFFF" xlink:href="#path-1"></use>
                <g id="business-male-briefcase.3.3.1" transform="translate(19.000000, 20.000000)">
                    <g id="Group">
                        <g id="Outline_Icons_1_" transform="translate(3.333333, 1.000000)" stroke-width="3" stroke="#4990E2">
                            <g id="New_icons_1_">
                                <g id="Group" transform="translate(0.000000, 0.000000)">
                                    <g>
                                        <ellipse id="Oval" cx="18.3333333" cy="12.3333333" rx="11.6666667" ry="11.6666667"></ellipse>
                                        <path d="M36.6666667,30.6666667 L0,30.6666667 C0,44.23 5.46666667,52.14 11.6666667,55.6666667 L11.6666667,77.3333333 L25,77.3333333 L25,55.6666667 C31.1933333,52.14 36.6666667,44.23 36.6666667,30.6666667 L36.6666667,30.6666667 Z" id="Shape"></path>
                                        <polygon id="Shape" points="20 30.6666667 16.6666667 30.6666667 15 50.6666667 18.3333333 54 21.6666667 50.6666667"></polygon>
                                    </g>
                                    <g transform="translate(44.333333, 46.666667)">
                                        <rect id="Rectangle-path" x="0.666666667" y="7.33333333" width="30" height="23.3333333"></rect>
                                        <path d="M10.6666667,7.33333333 L10.6666667,4 C10.6666667,2.16 12.16,0.666666667 14,0.666666667 L17.3333333,0.666666667 C19.1733333,0.666666667 20.6666667,2.16 20.6666667,4 L20.6666667,7.33333333" id="Shape"></path>
                                        <path d="M0.666666667,17 L30.6666667,17" id="Shape"></path>
                                        <path d="M15,17.3333333 L15,20.6666667" id="Shape"></path>
                                    </g>
                                </g>
                            </g>
                        </g>
                        <g id="Invisible_Shape">
                            <rect id="Rectangle-path" x="0" y="0" width="80" height="80"></rect>
                        </g>
                    </g>
                </g>
            </g>
        </g>
    </g>
</svg>