<?xml version="1.0" encoding="UTF-8"?>
<svg width="14px" height="26px" viewBox="0 0 14 26" version="1.1" xmlns="http://www.w3.org/2000/svg" xmlns:xlink="http://www.w3.org/1999/xlink">
    <!-- Generator: Sketch 40.3 (33839) - http://www.bohemiancoding.com/sketch -->
    <title>facebook f</title>
    <desc>Created with Sketch.</desc>
    <defs></defs>
    <g id="Page-1" stroke="none" stroke-width="1" fill="none" fill-rule="evenodd">
        <g id="Camp-Page" transform="translate(-364.000000, -13532.000000)">
            <g id="Button-Copy-6" transform="translate(344.000000, 13524.000000)" fill="#3765A3">
                <rect id="Background" x="0" y="0" width="167" height="45" rx="4"></rect>
            </g>
            <g id="facebook-f" transform="translate(364.000000, 13532.000000)" fill="#FFFFFF">
                <path d="M13.4973065,0.564347034 L13.4973065,4.52678559 L11.1408557,4.52678559 C10.2803265,4.52678559 9.69996883,4.70689655 9.39978448,5.06711848 C9.09960014,5.42733952 8.94950752,5.96767241 8.94950752,6.68811538 L8.94950752,9.52486152 L13.3472139,9.52486152 L12.7618534,13.9675954 L8.94950752,13.9675954 L8.94950752,25.3596057 L4.35668103,25.3596057 L4.35668103,13.9675954 L0.529325931,13.9675954 L0.529325931,9.52486152 L4.35668103,9.52486152 L4.35668103,6.25284759 C4.35668103,4.39170303 4.8770011,2.94831393 5.91764124,1.92268297 C6.95828228,0.897052 8.34413517,0.384236069 10.0751999,0.384236069 C11.5461051,0.384236069 12.6868076,0.444273655 13.4973065,0.564347034 L13.4973065,0.564347034 Z" id="Shape"></path>
            </g>
        </g>
    </g>
</svg>