<?xml version="1.0" encoding="UTF-8"?>
<svg width="36px" height="23px" viewBox="0 0 36 23" version="1.1" xmlns="http://www.w3.org/2000/svg" xmlns:xlink="http://www.w3.org/1999/xlink">
    <!-- Generator: Sketch 40.3 (33839) - http://www.bohemiancoding.com/sketch -->
    <title>google plus</title>
    <desc>Created with Sketch.</desc>
    <defs></defs>
    <g id="Page-1" stroke="none" stroke-width="1" fill="none" fill-rule="evenodd">
        <g id="Camp-Page" transform="translate(-555.000000, -13536.000000)">
            <g id="Button-Copy-7" transform="translate(539.000000, 13524.000000)" fill="#DB483B">
                <rect id="Background" x="0" y="0" width="167" height="45" rx="4"></rect>
            </g>
            <g id="google-plus" transform="translate(555.000000, 13536.000000)" fill="#FFFFFF">
                <path d="M22.2063877,11.5899729 C22.2063877,13.7328295 21.7582422,15.6413123 20.8619502,17.3154194 C19.9656591,18.9895265 18.6881871,20.2979058 17.0295332,21.2405566 C15.3708794,22.1832074 13.4701237,22.6545332 11.3272662,22.6545332 C9.79223908,22.6545332 8.32417569,22.3557692 6.92307692,21.7582422 C5.52197815,21.1607142 4.31662062,20.3571434 3.30700523,19.347528 C2.29738985,18.3379126 1.49381908,17.1325551 0.896291077,15.7314563 C0.298764,14.3303575 0,12.8622942 0,11.3272671 C0,9.79223908 0.298764,8.32417569 0.896291077,6.92307692 C1.49381908,5.52197815 2.29738985,4.31662154 3.30700523,3.30700615 C4.31662062,2.29739077 5.52197815,1.49381908 6.92307692,0.896291077 C8.32417569,0.298764 9.79223908,0 11.3272662,0 C14.2736954,0 16.8028846,0.989011385 18.9148348,2.96703323 L15.8396289,5.91861323 C14.6342723,4.75446462 13.1301508,4.17239077 11.3272662,4.17239077 C10.0600966,4.17239077 8.88822092,4.49175877 7.81164185,5.13049477 C6.73506185,5.76923077 5.88255508,6.63719077 5.25412062,7.73437477 C4.62568708,8.83155969 4.31146985,10.0291902 4.31146985,11.3272671 C4.31146985,12.625344 4.62568708,13.8229745 5.25412062,14.9201585 C5.88255508,16.0173425 6.73506185,16.8853025 7.81164185,17.5240385 C8.88822092,18.1627754 10.0600966,18.4821434 11.3272662,18.4821434 C12.1823492,18.4821434 12.9678914,18.3636674 13.6838945,18.1267172 C14.3998966,17.8897671 14.9896975,17.5935785 15.4532963,17.2381523 C15.916896,16.8827271 16.3212572,16.4783658 16.6663809,16.0250686 C17.0115037,15.5717723 17.263908,15.1442308 17.423592,14.7424449 C17.583276,14.34066 17.6940249,13.9594782 17.7558378,13.5989012 L11.3272662,13.5989012 L11.3272662,9.70467046 L22.020948,9.70467046 C22.1445738,10.3537089 22.2063877,10.9821434 22.2063877,11.5899729 L22.2063877,11.5899729 Z M35.604396,9.70467046 L35.604396,12.9498628 L32.3746569,12.9498628 L32.3746569,16.1796018 L29.1294646,16.1796018 L29.1294646,12.9498628 L25.8997255,12.9498628 L25.8997255,9.70467046 L29.1294646,9.70467046 L29.1294646,6.47493138 L32.3746569,6.47493138 L32.3746569,9.70467046 L35.604396,9.70467046 Z" id="Shape"></path>
            </g>
        </g>
    </g>
</svg>