<?xml version="1.0" encoding="UTF-8"?>
<svg width="74px" height="82px" viewBox="0 0 74 82" version="1.1" xmlns="http://www.w3.org/2000/svg" xmlns:xlink="http://www.w3.org/1999/xlink">
    <!-- Generator: Sketch 40.3 (33839) - http://www.bohemiancoding.com/sketch -->
    <title>Group 41</title>
    <desc>Created with Sketch.</desc>
    <defs></defs>
    <g id="Page-1" stroke="none" stroke-width="1" fill="none" fill-rule="evenodd">
        <g id="Camp-Page" transform="translate(-1101.000000, -2362.000000)">
            <g id="Group-41" transform="translate(1098.000000, 2363.000000)">
                <g id="account.3.3.1">
                    <g id="Group">
                        <g id="Outline_Icons_1_" transform="translate(4.333333, 1.000000)" stroke-width="4" stroke="#FFFFFF">
                            <g id="Outline_Icons">
                                <path d="M62.5433333,27.02 C62.5433333,10.25 46.7066667,0.666666667 32.3333333,0.666666667 C14.47,0.666666667 0.666666667,14.6766667 0.666666667,32.54 C0.666666667,42.6833333 4,52.2 14,58.1333333 L14,77.3333333 L47.3333333,77.3333333 L47.3333333,65.7433333 C54,65.78 57.3933333,65.2966667 59.73,62.9566667 C62.7233333,59.9633333 62.4366667,47.33 62.4366667,47.33 C62.4366667,47.33 65.2833333,47.4366667 67.43,47.35 C68.18,47.3166667 68.92,46.94 69.3466667,46.3266667 C69.7766667,45.7133333 69.64,44.9733333 69.6933333,44.2266667 C70.08,38.8766667 62.5433333,29.69 62.5433333,27.02 L62.5433333,27.02 Z" id="Shape"></path>
                            </g>
                        </g>
                        <g id="Invisible_Shape">
                            <rect id="Rectangle-path" x="0" y="0" width="80" height="80"></rect>
                        </g>
                    </g>
                </g>
                <path d="M11.2539063,37.8183598 C11.2539063,37.8183598 9.08380283,11.6011167 32.9941401,8.27539063 C41.4758447,7.09565712 45.1645879,9.11367229 47.8848869,9.94297859 C56.8251676,13.8450132 61.6344216,23.4131903 59.8999087,27.3853887 C57.4155342,33.074841 44.7988268,25.8945313 37.8691398,32.3613282 C30.9394528,38.8281251 28.4807357,47.278452 20.3007814,48.4775372 C12.120827,49.6766225 11.2539063,37.8183598 11.2539063,37.8183598 Z" id="Path-4" stroke="#FFFFFF" stroke-width="4"></path>
            </g>
        </g>
    </g>
</svg>