<?xml version="1.0" encoding="UTF-8"?>
<svg width="81px" height="81px" viewBox="0 0 81 81" version="1.1" xmlns="http://www.w3.org/2000/svg" xmlns:xlink="http://www.w3.org/1999/xlink">
    <!-- Generator: Sketch 40.3 (33839) - http://www.bohemiancoding.com/sketch -->
    <title>account find 2.3.3.1</title>
    <desc>Created with Sketch.</desc>
    <defs></defs>
    <g id="Page-1" stroke="none" stroke-width="1" fill="none" fill-rule="evenodd">
        <g id="Camp-Page" transform="translate(-684.000000, -2120.000000)">
            <g id="account-find-2.3.3.1" transform="translate(685.000000, 2121.000000)">
                <g id="Group">
                    <g id="Outline_Icons_1_" transform="translate(1.000000, 1.000000)" stroke-width="4" stroke="#FFFFFF">
                        <g id="Outline_Icons">
                            <g id="Group">
                                <circle id="Oval" cx="30.6666667" cy="30.6666667" r="30"></circle>
                                <path d="M51.8766667,51.88 L77.3333333,77.3333333" id="Shape"></path>
                                <path d="M45.66,49.31 C42.98,48.0333333 40.0666667,46.76 37.3333333,45.6666667 L37.3333333,39 C37.3333333,39 40.6666667,37.8333333 40.6666667,30.6666667 C42.9833333,30.6666667 44,24 40.7733333,24 C40.7733333,23.2966667 43.3266667,19.64 42.3333333,15.6666667 C40.6666667,9 24,9 22.3333333,15.6666667 C15.3166667,14.2333333 20.6666667,23.04 20.6666667,24 C17.3333333,24 18.35,30.6666667 20.6666667,30.6666667 C20.6666667,37.8333333 24,39 24,39 L24,45.6666667 C21.2633333,46.76 18.35,48.0366667 15.6666667,49.3133333" id="Shape"></path>
                            </g>
                        </g>
                    </g>
                    <g id="Invisible_Shape">
                        <rect id="Rectangle-path" x="0" y="0" width="80" height="80"></rect>
                    </g>
                </g>
            </g>
        </g>
    </g>
</svg>