<?xml version="1.0" encoding="UTF-8"?>
<svg width="81px" height="81px" viewBox="0 0 81 81" version="1.1" xmlns="http://www.w3.org/2000/svg" xmlns:xlink="http://www.w3.org/1999/xlink">
    <!-- Generator: Sketch 40.3 (33839) - http://www.bohemiancoding.com/sketch -->
    <title>clipboard check.3.3.1</title>
    <desc>Created with Sketch.</desc>
    <defs></defs>
    <g id="Page-1" stroke="none" stroke-width="1" fill="none" fill-rule="evenodd">
        <g id="Camp-Page" transform="translate(-1098.000000, -2121.000000)">
            <g id="clipboard-check.3.3.1" transform="translate(1098.000000, 2121.000000)">
                <g id="Group">
                    <g id="Outline_Icons_1_" transform="translate(1.000000, 1.000000)" stroke="#FFFFFF">
                        <g id="New_icons_1_">
                            <g id="Group">
                                <g transform="translate(36.666667, 36.666667)" stroke-width="4">
                                    <circle id="Oval" cx="20.6666667" cy="20.6666667" r="20"></circle>
                                    <polyline id="Shape" points="30.6666667 14 17.3333333 27.3333333 10.6666667 20.6666667"></polyline>
                                </g>
                                <g id="Shape" stroke-width="3">
                                    <g>
                                        <polyline points="35.6666667 77.3333333 0.666666667 77.3333333 0.666666667 7.33333333 7.33333333 7.33333333"></polyline>
                                        <polyline points="54 7.33333333 60.6666667 7.33333333 60.6666667 30.6666667"></polyline>
                                        <path d="M37.3333333,7.33333333 C37.3333333,3.65333333 34.35,0.666666667 30.6666667,0.666666667 C26.9866667,0.666666667 24,3.65333333 24,7.33333333 L14,7.33333333 L14,17.3333333 L47.3333333,17.3333333 L47.3333333,7.33333333 L37.3333333,7.33333333 L37.3333333,7.33333333 Z"></path>
                                        <polyline points="54 30.6666667 54 14 47.3333333 14"></polyline>
                                        <polyline points="14 14 7.33333333 14 7.33333333 70.6666667 34 70.6666667"></polyline>
                                    </g>
                                    <path d="M17.3333333,30 L44,30"></path>
                                    <path d="M17.3333333,37 L39,37"></path>
                                    <path d="M17.3333333,44 L34,44"></path>
                                    <path d="M17.3333333,50 L32.3333333,50"></path>
                                </g>
                            </g>
                        </g>
                    </g>
                    <g id="Invisible_Shape">
                        <rect id="Rectangle-path" x="0" y="0" width="80" height="80"></rect>
                    </g>
                </g>
            </g>
        </g>
    </g>
</svg>