<?xml version="1.0" encoding="UTF-8"?>
<svg width="72px" height="82px" viewBox="0 0 72 82" version="1.1" xmlns="http://www.w3.org/2000/svg" xmlns:xlink="http://www.w3.org/1999/xlink">
    <!-- Generator: Sketch 40.3 (33839) - http://www.bohemiancoding.com/sketch -->
    <title>timer three quarter 2.3.3.1</title>
    <desc>Created with Sketch.</desc>
    <defs></defs>
    <g id="Page-1" stroke="none" stroke-width="1" fill="none" fill-rule="evenodd">
        <g id="Camp-Page" transform="translate(-280.000000, -2362.000000)">
            <g id="timer-three-quarter-2.3.3.1" transform="translate(276.000000, 2363.000000)">
                <g id="Group">
                    <g id="Outline_Icons_1_" transform="translate(6.666667, 1.000000)" stroke-width="4" stroke="#FFFFFF">
                        <g id="Outline_Icons">
                            <g id="Group" transform="translate(0.000000, 0.000000)">
                                <path d="M30,0 L36.6666667,0" id="Shape"></path>
                                <path d="M33,0.666666667 L33,10.6666667" id="Shape"></path>
                                <path d="M60,10.6666667 L65,15.6666667" id="Shape"></path>
                                <path d="M62.5,13.1666667 L56.0533333,19.6133333" id="Shape"></path>
                                <path d="M16.6666667,27.3333333 L21.6666667,32.3333333" id="Shape"></path>
                                <path d="M33,67.3333333 L33,60.6666667" id="Shape"></path>
                                <path d="M16.6666667,60.6666667 L21.6666667,55.6666667" id="Shape"></path>
                                <path d="M56.6666667,44 L50,44" id="Shape"></path>
                                <path d="M50,60.6666667 L45,55.6666667" id="Shape"></path>
                                <path d="M50,27.3333333 L45,32.3333333" id="Shape"></path>
                                <path d="M33.3333333,10.6666667 L33.3333333,44 L0,44 C0,62.3333333 14.9233333,77.3333333 33.3333333,77.3333333 C51.74,77.3333333 66.6666667,62.41 66.6666667,44 C66.6666667,25.5933333 51.74,10.6666667 33.3333333,10.6666667 L33.3333333,10.6666667 Z" id="Shape"></path>
                            </g>
                        </g>
                    </g>
                    <g id="Invisible_Shape">
                        <rect id="Rectangle-path" x="0" y="0" width="80" height="80"></rect>
                    </g>
                </g>
            </g>
        </g>
    </g>
</svg>