<?xml version="1.0" encoding="UTF-8"?>
<svg width="82px" height="81px" viewBox="0 0 82 81" version="1.1" xmlns="http://www.w3.org/2000/svg" xmlns:xlink="http://www.w3.org/1999/xlink">
    <!-- Generator: Sketch 40.3 (33839) - http://www.bohemiancoding.com/sketch -->
    <title>staircase up 1.3.3.1</title>
    <desc>Created with Sketch.</desc>
    <defs></defs>
    <g id="Page-1" stroke="none" stroke-width="1" fill="none" fill-rule="evenodd">
        <g id="Camp-Page" transform="translate(-679.000000, -2362.000000)">
            <g id="staircase-up-1.3.3.1" transform="translate(680.000000, 2363.000000)">
                <g id="Group">
                    <g id="Outline_Icons" transform="translate(1.000000, 1.000000)" stroke-width="4" stroke="#FFFFFF">
                        <g id="Group">
                            <polyline id="Shape" points="37.3333333 77.3333333 37.3333333 64 50.6666667 64 50.6666667 50.6666667 64 50.6666667 64 37.3333333 77.3333333 37.3333333"></polyline>
                            <path d="M57.3333333,77.3333333 L77.3333333,57.3333333" id="Shape"></path>
                            <polyline id="Shape" points="67.3333333 57.3333333 77.3333333 57.3333333 77.3333333 67.3333333"></polyline>
                            <path d="M37.3333333,59 L37.3333333,52.3333333 L30.6666667,42.3333333 L30.6666667,32.3333333 L37.3333333,39 L46.14,33.9666667 C46.88,33.5466667 47.4133333,32.8333333 47.6066667,32.0033333 C47.8,31.1733333 47.6466667,30.3 47.1733333,29.59 C46.3133333,28.3 44.6266667,27.8533333 43.24,28.5466667 L39,30.6666667 L34.3133333,23.6366667 C33.0766667,21.78 30.9966667,20.6666667 28.7666667,20.6666667 L13.43,20.6666667 C11.6633333,20.6666667 9.96666667,21.37 8.71666667,22.62 L0.666666667,30.6666667 L0.666666667,40.6666667 C0.666666667,42.51 2.16,44 4,44 C5.84,44 7.33333333,42.51 7.33333333,40.6666667 L7.33333333,34.2766667 L14,29 L14,41.6666667 L9,70.6666667 L15.6666667,70.6666667 L22.3333333,47.3333333 L27.3333333,55.6666667 L27.3333333,60.6666667" id="Shape"></path>
                            <ellipse id="Oval" cx="22.3333333" cy="7.33333333" rx="6.66666667" ry="6.66666667"></ellipse>
                        </g>
                    </g>
                    <g id="invisible_shape">
                        <rect id="Rectangle-path" x="0" y="0" width="80" height="80"></rect>
                    </g>
                </g>
            </g>
        </g>
    </g>
</svg>