<?xml version="1.0" encoding="UTF-8"?>
<svg width="36px" height="36px" viewBox="0 0 36 36" version="1.1" xmlns="http://www.w3.org/2000/svg" xmlns:xlink="http://www.w3.org/1999/xlink">
    <!-- Generator: Sketch 40.3 (33839) - http://www.bohemiancoding.com/sketch -->
    <title>phone call 2.3.3.1</title>
    <desc>Created with Sketch.</desc>
    <defs></defs>
    <g id="Page-1" stroke="none" stroke-width="1" fill="none" fill-rule="evenodd">
        <g id="Camp-Page" transform="translate(-1044.000000, -14012.000000)">
            <g id="phone-call-2.3.3.1" transform="translate(1045.000000, 14013.000000)">
                <g id="Group">
                    <g id="Outline_Icons_1_" stroke-width="2" stroke="#4990E2">
                        <g id="Outline_Icons">
                            <g id="Group">
                                <path d="M10.6136667,14.1836667 C11.7186667,13.07725 11.7186667,11.2823333 10.6136667,10.1759167 L7.6075,7.17116667 C6.5025,6.06616667 4.70616667,6.06616667 3.60116667,7.17116667 L1.95216667,8.82016667 C0.52275,10.2481667 0.30175,12.4808333 1.41666667,14.1666667 C6.205,21.4058333 12.59275,27.7935833 19.8333333,32.5833333 C21.5163333,33.6954167 23.7546667,33.4744167 25.1784167,32.0464167 L26.8288333,30.3974167 C27.9338333,29.2924167 27.9338333,27.4975 26.8288333,26.3910833 L23.8226667,23.3863333 C22.71625,22.2799167 20.92275,22.2799167 19.8163333,23.3863333 L18.81475,24.3879167 C15.5195833,21.68775 12.3108333,18.4804167 9.61208333,15.18525 L10.6136667,14.1836667 L10.6136667,14.1836667 Z" id="Shape"></path>
                                <path d="M17,0.708333333 C25.9986667,0.708333333 33.2916667,8.00133333 33.2916667,17" id="Shape"></path>
                                <path d="M17,6.375 C22.8678333,6.375 27.625,11.13075 27.625,17" id="Shape"></path>
                                <path d="M17,12.0416667 C19.7384167,12.0416667 21.9583333,14.2601667 21.9583333,17" id="Shape"></path>
                            </g>
                        </g>
                    </g>
                    <g id="Invisible_Shape">
                        <rect id="Rectangle-path" x="0" y="0" width="34" height="34"></rect>
                    </g>
                </g>
            </g>
        </g>
    </g>
</svg>