<?xml version="1.0" encoding="UTF-8"?><svg width="102px" height="102px" viewBox="0 0 102 102" version="1.1" xmlns="http://www.w3.org/2000/svg" xmlns:xlink="http://www.w3.org/1999/xlink">        <title>Group 41</title>        <defs/>    <g id="Page-1" stroke="none" stroke-width="1" fill="none" fill-rule="evenodd">        <g id="Camp-Page" transform="translate(-150.000000, -12935.000000)">            <g id="Group-41" transform="translate(150.000000, 12935.000000)">                <g id="Group-37">                    <circle id="Oval-5" fill="#FFFFFF" cx="51" cy="51" r="51"/>                    <g id="phone-call-2.3.3.1" transform="translate(22.000000, 26.000000)">                        <g id="Group">                            <g id="Outline_Icons_1_" transform="translate(1.000000, 1.000000)" stroke-width="4" stroke="#4990E2">                                <g id="Outline_Icons">                                    <g id="Group">                                        <path d="M15.857,21.527 C17.612,19.76975 17.612,16.919 15.857,15.16175 L11.0825,10.3895 C9.3275,8.6345 6.4745,8.6345 4.7195,10.3895 L2.1005,13.0085 C-0.16975,15.2765 -0.52075,18.8225 1.25,21.5 C8.855,32.9975 19.00025,43.14275 30.5,50.75 C33.173,52.51625 36.728,52.16525 38.98925,49.89725 L41.6105,47.27825 C43.3655,45.52325 43.3655,42.6725 41.6105,40.91525 L36.836,36.143 C35.07875,34.38575 32.23025,34.38575 30.473,36.143 L28.88225,37.73375 C23.64875,33.44525 18.5525,28.35125 14.26625,23.11775 L15.857,21.527 L15.857,21.527 Z" id="Shape"/>                                        <path d="M26,0.125 C40.292,0.125 51.875,11.708 51.875,26" id="Shape"/>                                        <path d="M26,9.125 C35.3195,9.125 42.875,16.67825 42.875,26" id="Shape"/>                                        <path d="M26,18.125 C30.34925,18.125 33.875,21.6485 33.875,26" id="Shape"/>                                    </g>                                </g>                            </g>                            <g id="Invisible_Shape">                                <rect id="Rectangle-path" x="0" y="0" width="54" height="54"/>                            </g>                        </g>                    </g>                </g>            </g>        </g>    </g></svg>