<?xml version="1.0" encoding="UTF-8"?>
<svg width="272px" height="121px" viewBox="0 0 272 121" version="1.1" xmlns="http://www.w3.org/2000/svg" xmlns:xlink="http://www.w3.org/1999/xlink">
    <!-- Generator: Sketch 40.3 (33839) - http://www.bohemiancoding.com/sketch -->
    <title>Combined Shape</title>
    <desc>Created with Sketch.</desc>
    <defs>
        <linearGradient x1="100%" y1="0%" x2="0%" y2="100%" id="linearGradient-1">
            <stop stop-color="#EFF2F4" stop-opacity="0" offset="0%"></stop>
            <stop stop-color="#A1E9FF" offset="50.2276772%"></stop>
            <stop stop-color="#53B1F9" offset="100%"></stop>
        </linearGradient>
    </defs>
    <g id="Page-1" stroke="none" stroke-width="1" fill="none" fill-rule="evenodd">
        <g id="Camp-Page" transform="translate(-208.000000, -2737.000000)" fill="url(#linearGradient-1)">
            <path d="M212.652198,2849.35383 C233.882129,2804.43831 278.079841,2774.27414 338.403744,2756.29302 C366.275255,2747.98518 396.072024,2742.7638 426.198017,2740.03183 C445.987403,2738.23722 462.895697,2737.7479 475.322429,2737.9732 C475.837934,2737.98255 476.285959,2737.99258 477.132129,2738.01633 C478.23604,2738.05447 479.100013,2738.98029 479.061867,2740.0842 C479.023721,2741.18811 478.097901,2742.05209 476.558582,2742.00122 C476.190968,2741.99147 475.754147,2741.98169 475.249918,2741.97254 C462.959789,2741.74972 446.19373,2742.23493 426.559275,2744.01548 C396.680349,2746.72505 367.138724,2751.90172 339.546369,2760.12634 C280.236995,2777.80506 236.976102,2807.31873 216.294449,2851.00923 L248.780956,2836.63767 C249.795368,2836.20058 250.972038,2836.6686 251.409121,2837.68301 C251.846204,2838.69742 251.378187,2839.87409 250.363775,2840.31118 L211.535512,2857.48824 C210.224843,2858.05297 208.761435,2857.10262 208.744247,2855.67557 L208.130139,2813.68907 C208.116836,2812.58458 209.001417,2811.67843 210.105906,2811.66513 C211.210396,2811.65183 212.116546,2812.53641 212.129849,2813.6409 L212.652198,2849.35383 Z M210.802564,2853.43876 C210.721727,2853.62533 210.641275,2853.81216 210.561207,2853.99923 C210.53724,2854.05523 210.516026,2854.11171 210.497505,2854.16853 L209.952693,2853.81473 L210.802564,2853.43876 Z" id="Combined-Shape"></path>
        </g>
    </g>
</svg>