<?xml version="1.0" encoding="UTF-8"?>
<svg width="28px" height="22px" viewBox="0 0 28 22" version="1.1" xmlns="http://www.w3.org/2000/svg" xmlns:xlink="http://www.w3.org/1999/xlink">
    <!-- Generator: Sketch 40.3 (33839) - http://www.bohemiancoding.com/sketch -->
    <title>twitter</title>
    <desc>Created with Sketch.</desc>
    <defs></defs>
    <g id="Page-1" stroke="none" stroke-width="1" fill="none" fill-rule="evenodd">
        <g id="Camp-Page" transform="translate(-165.000000, -13536.000000)">
            <g id="Button-Copy-5" transform="translate(149.000000, 13524.000000)" fill="#11C1FF">
                <rect id="Background" x="0" y="0" width="167" height="45" rx="4"></rect>
            </g>
            <g id="twitter" transform="translate(165.000000, 13536.000000)" fill="#FFFFFF">
                <path d="M27.120536,2.6875 C26.372768,3.78125 25.46875,4.71317 24.408482,5.483259 C24.419643,5.639509 24.425223,5.873884 24.425223,6.186384 C24.425223,7.637277 24.21317,9.085379 23.789062,10.530692 C23.364955,11.976004 22.720424,13.362723 21.855469,14.690848 C20.990513,16.018973 19.960938,17.193638 18.766741,18.214844 C17.572545,19.236049 16.132812,20.050781 14.447545,20.65904 C12.762277,21.267299 10.959821,21.571429 9.040179,21.571429 C6.015625,21.571429 3.247768,20.762277 0.736607,19.143973 C1.127232,19.188616 1.5625,19.210938 2.042411,19.210938 C4.553571,19.210938 6.791295,18.440848 8.75558,16.90067 C7.583705,16.878348 6.534598,16.518415 5.608259,15.820871 C4.68192,15.123326 4.045759,14.233259 3.699777,13.15067 C4.06808,13.206473 4.408482,13.234375 4.720982,13.234375 C5.200893,13.234375 5.675223,13.172991 6.143973,13.050223 C4.893973,12.793527 3.858817,12.171317 3.038504,11.183594 C2.218192,10.195871 1.808036,9.049107 1.808036,7.743304 L1.808036,7.676339 C2.566964,8.100446 3.381696,8.329241 4.252232,8.362723 C3.515625,7.871652 2.929688,7.229911 2.49442,6.4375 C2.059152,5.645089 1.841518,4.785714 1.841518,3.859375 C1.841518,2.877232 2.087054,1.967634 2.578125,1.13058 C3.928571,2.793527 5.571987,4.124442 7.508371,5.123326 C9.444754,6.12221 11.517857,6.677455 13.727679,6.789062 C13.638393,6.364955 13.59375,5.952009 13.59375,5.550223 C13.59375,4.054688 14.121094,2.779576 15.175781,1.724888 C16.230469,0.670201 17.50558,0.142857 19.001116,0.142857 C20.563616,0.142857 21.88058,0.712054 22.952009,1.850446 C24.168527,1.616071 25.3125,1.180804 26.383929,0.544643 C25.970982,1.828125 25.178571,2.821429 24.006696,3.524554 C25.044643,3.412946 26.082589,3.133929 27.120536,2.6875 L27.120536,2.6875 Z" id="Shape"></path>
            </g>
        </g>
    </g>
</svg>