<?xml version="1.0" encoding="UTF-8"?>
<svg width="38px" height="38px" viewBox="0 0 38 38" version="1.1" xmlns="http://www.w3.org/2000/svg" xmlns:xlink="http://www.w3.org/1999/xlink">
    <!-- Generator: Sketch 40.3 (33839) - http://www.bohemiancoding.com/sketch -->
    <title>coins 2.3.3.1</title>
    <desc>Created with Sketch.</desc>
    <defs></defs>
    <g id="Page-1" stroke="none" stroke-width="1" fill="none" fill-rule="evenodd">
        <g id="Camp-Page" transform="translate(-162.000000, -1427.000000)">
            <g id="coins-2.3.3.1" transform="translate(163.000000, 1428.000000)">
                <g id="Group">
                    <g id="Outline_Icons" stroke-width="2" stroke="#4990E2">
                        <g id="Group">
                            <ellipse id="Oval" cx="12" cy="3.75" rx="11.25" ry="3"></ellipse>
                            <path d="M23.25,3.75 L23.25,8.25 C23.25,9.9075 18.2145,11.25 12,11.25 C5.787,11.25 0.75,9.9075 0.75,8.25 L0.75,3.75" id="Shape"></path>
                            <path d="M23.25,8.25 L23.25,12.75 C23.25,14.4075 18.2145,15.75 12,15.75 C5.787,15.75 0.75,14.4075 0.75,12.75 L0.75,8.25" id="Shape"></path>
                            <ellipse id="Oval" cx="24" cy="23.25" rx="11.25" ry="3"></ellipse>
                            <path d="M35.25,23.25 L35.25,27.75 C35.25,29.4075 30.2145,30.75 24,30.75 C17.787,30.75 12.75,29.4075 12.75,27.75 L12.75,23.25" id="Shape"></path>
                            <path d="M35.25,27.75 L35.25,32.25 C35.25,33.9075 30.2145,35.25 24,35.25 C17.787,35.25 12.75,33.9075 12.75,32.25 L12.75,27.75" id="Shape"></path>
                            <path d="M23.25,12.75 L23.25,17.25 C23.25,18.9075 18.2145,20.25 12,20.25 C5.787,20.25 0.75,18.9075 0.75,17.25 L0.75,12.75" id="Shape"></path>
                            <path d="M0.75,17.25 L0.75,21.75 C0.75,23.4075 5.787,24.75 12,24.75 L12.75,24.75" id="Shape"></path>
                            <path d="M0.75,21.75 L0.75,26.25 C0.75,27.9075 5.787,29.25 12,29.25 L12.75,29.25" id="Shape"></path>
                            <path d="M23,17.25 L23,20.25" id="Shape"></path>
                        </g>
                    </g>
                    <g id="Invisible_Shape">
                        <rect id="Rectangle-path" x="0" y="0" width="36" height="36"></rect>
                    </g>
                </g>
            </g>
        </g>
    </g>
</svg>