<?xml version="1.0" encoding="UTF-8"?>
<svg width="32px" height="33px" viewBox="0 0 32 33" version="1.1" xmlns="http://www.w3.org/2000/svg" xmlns:xlink="http://www.w3.org/1999/xlink">
    <!-- Generator: Sketch 40.3 (33839) - http://www.bohemiancoding.com/sketch -->
    <title>android.3.3.1</title>
    <desc>Created with Sketch.</desc>
    <defs></defs>
    <g id="Page-1" stroke="none" stroke-width="1" fill="none" fill-rule="evenodd">
        <g id="Camp-Page" transform="translate(-167.000000, -1516.000000)">
            <g id="android.3.3.1" transform="translate(165.000000, 1515.000000)">
                <g id="Group">
                    <g id="Outline_Icons" transform="translate(3.000000, 1.500000)">
                        <g id="Group">
                            <rect id="Rectangle-path" stroke="#4990E2" stroke-width="2" x="5.25" y="14.25" width="19.5" height="16.5"></rect>
                            <path d="M0.75,28.5 L0.75,17.25 C0.75,15.75 1.5,14.25 3,14.25 L5.25,14.25" id="Shape" stroke="#4990E2" stroke-width="2"></path>
                            <path d="M29.25,28.5 L29.25,17.25 C29.25,15.75 28.5,14.25 27,14.25 L24.75,14.25" id="Shape" stroke="#4990E2" stroke-width="2"></path>
                            <path d="M13.368,3.75 L10.5555,0.75" id="Shape" stroke="#4990E2" stroke-width="2"></path>
                            <path d="M16.65,3.75 L19.4625,0.75" id="Shape" stroke="#4990E2" stroke-width="2"></path>
                            <path d="M24.75,11.25 C23.6805,6.753 19.725,3.75 15.009,3.75 C10.2675,3.75 6.2925,6.753 5.25,11.25 L24.75,11.25 L24.75,11.25 Z" id="Shape" stroke="#4990E2" stroke-width="2"></path>
                            <g transform="translate(12.000000, 7.500000)" id="Shape" stroke="#000000">
                                <path d="M0.759,0 L0.759,1.5"></path>
                                <path d="M5.259,0 L5.259,1.5"></path>
                            </g>
                        </g>
                    </g>
                    <g id="Invisible_Shape">
                        <rect id="Rectangle-path" x="0" y="0" width="36" height="36"></rect>
                    </g>
                </g>
            </g>
        </g>
    </g>
</svg>