<svg width="111px" height="55px" viewBox="0 0 111 55" version="1.1" xmlns="http://www.w3.org/2000/svg" xmlns:xlink="http://www.w3.org/1999/xlink">
    <g stroke="none" stroke-width="1" fill="none" fill-rule="evenodd">
        <g transform="translate(-665.000000, -225.000000)">
            <g transform="translate(0.000000, -1.000000)">
                <g transform="translate(665.000000, 226.000000)">                                
                    <path d="M66.8065599,19.9671603 C66.8065599,12.8997788 61.1072991,7.17049445 54.0769533,7.17049445 C47.0466075,7.17049445 41.3473467,12.8997788 41.3473467,19.9671603 C41.3473467,27.0345419 47.0466075,32.7638262 54.0769533,32.7638262 C56.638909,32.7638262 59.0204784,31.9958129 61.0176955,30.6861606 L57.1222968,27.5169206 C55.5471598,26.2357133 55.3019289,23.8913764 56.5764222,22.3079416 C57.8509156,20.7245068 60.1829672,20.477984 61.7581043,21.7591914 L65.7702235,25.0232478 C66.4351765,23.4718136 66.8065599,21.7639322 66.8065599,19.9671603 L66.8065599,19.9671603 Z M73.1460148,40.5529981 L72.7380826,41.0602661 L66.2170625,35.7552854 C62.7484599,38.4539988 58.4592769,39.9343207 54.0769533,39.9343207 C43.1240919,39.9343207 34.2144283,30.976536 34.2144283,19.9671603 C34.2144283,8.95778464 43.1240919,0 54.0769533,0 C65.0286358,0 73.9394783,8.95778464 73.9394783,19.9671603 C73.9394783,23.1245483 73.1861006,26.2546766 71.7571589,29.0553176 L71.9575881,29.218876 C75.3943578,32.0147762 75.9260845,37.0993087 73.1460148,40.5529981 L73.1460148,40.5529981 Z M103.522815,22.6172803 L103.498056,16.2207251 C103.16558,11.5711632 99.274897,7.9290261 94.6426265,7.9290261 C90.010356,7.9290261 86.1208523,11.5711632 85.7871968,16.2207251 L85.7589009,22.6172803 L103.522815,22.6172803 Z M111,41.1515269 L110.29614,41.0898962 C106.498598,40.7604091 103.523994,37.4963526 103.523994,33.6622121 L103.523994,29.8766652 L85.7553639,29.8766652 L85.7553639,33.1999819 C85.7553639,37.0116034 82.7842971,40.2673635 78.9902919,40.6134435 L78.284074,40.6786299 L78.3064749,16.7410304 C78.3583507,7.76072689 85.6869822,0.436155696 94.6426265,0.436155696 C103.598271,0.436155696 110.926902,7.76072689 110.979957,16.767105 L111,41.1515269 Z M32.2172112,28.596643 C32.2172112,35.1117187 26.9435676,40.4901822 20.4602753,40.5849986 L6.69315333,40.6063323 C3.0017207,40.6063323 0,37.5887986 0,33.8791048 L0,33.2284269 L20.2846051,33.2142044 C22.8182649,33.2142044 24.8779687,31.1424648 24.8779687,28.596643 C24.8779687,26.136156 22.9585652,24.1141951 20.5086141,23.9956745 L12.4266049,24.0632312 C5.84191911,24.0632312 0.489282831,18.6823974 0.489282831,12.0677644 C0.489282831,6.04099343 5.23945278,1.64625071 12.0410736,1.38076463 L31.4308217,1.35706052 L31.4308217,2.01010886 C31.4308217,5.71980268 28.43028,8.73733638 24.7400263,8.73733638 L11.6791222,8.73733638 C9.48147597,8.73733638 7.7389217,10.5684792 7.7389217,12.6971086 C7.7389217,15.2476713 9.93656796,16.658066 11.6791222,16.6651773 L20.2810681,16.6023614 C26.8645749,16.6023614 32.2172112,21.9831952 32.2172112,28.596643 L32.2172112,28.596643 Z" id="Fill-1" fill="#FEFEFE"></path>
                    <path d="M105.799891,49.8745625 L105.799891,54.2320625 C105.799891,54.3858125 105.745598,54.5208125 105.638217,54.6370625 C105.52963,54.7520625 105.399326,54.8095625 105.247304,54.8095625 C105.096489,54.8095625 104.966185,54.7533125 104.857598,54.6408125 C104.749011,54.5308125 104.694717,54.3933125 104.694717,54.2320625 L104.694717,48.1220625 C104.681446,47.9195625 104.747804,47.7658125 104.893793,47.6608125 C105.038576,47.5558125 105.185772,47.5145625 105.334174,47.5395625 C105.482576,47.5633125 105.600815,47.6383125 105.688891,47.7658125 L108.962185,52.4570625 L108.962185,48.1320625 C108.962185,47.9783125 109.016478,47.8458125 109.123859,47.7333125 C109.232446,47.6208125 109.360337,47.5645625 109.508739,47.5645625 C109.657141,47.5645625 109.787446,47.6208125 109.899652,47.7333125 C110.010652,47.8458125 110.066152,47.9783125 110.066152,48.1320625 L110.066152,54.2320625 C110.066152,54.3933125 110.010652,54.5308125 109.899652,54.6408125 C109.787446,54.7533125 109.654728,54.8095625 109.499087,54.8095625 C109.343446,54.8095625 109.208315,54.7408125 109.093696,54.5995625 C109.067152,54.5720625 109.049054,54.5508125 109.043022,54.5358125 L105.799891,49.8745625 Z M88.8060326,51.0308125 C88.8060326,51.7370625 89.0316522,52.3445625 89.4840978,52.8520625 C89.93775,53.3595625 90.4830978,53.6120625 91.1213478,53.6120625 C91.7595978,53.6120625 92.3025326,53.3558125 92.7525652,52.8408125 C93.2025978,52.3270625 93.4270109,51.7233125 93.4270109,51.0308125 C93.4270109,50.3370625 93.2038043,49.7333125 92.7573913,49.2195625 C92.3121848,48.7033125 91.766837,48.4470625 91.1213478,48.4470625 C90.4758587,48.4470625 89.9280978,48.7020625 89.4792717,49.2083125 C89.0304457,49.7158125 88.8060326,50.3220625 88.8060326,51.0308125 L88.8060326,51.0308125 Z M88.6576304,53.6970625 C87.9855978,52.9558125 87.6501848,52.0658125 87.6501848,51.0308125 C87.6501848,49.9945625 87.9855978,49.1058125 88.6576304,48.3633125 C89.3308696,47.6208125 90.1500978,47.2495625 91.1165217,47.2495625 C92.0817391,47.2495625 92.9009674,47.6258125 93.5742065,48.3795625 C94.2462391,49.1308125 94.5816522,50.0183125 94.5816522,51.0408125 C94.5816522,52.0620625 94.2402065,52.9445625 93.5585217,53.6870625 C93.2544783,54.0358125 92.8889022,54.3108125 92.4642065,54.5108125 C92.0383043,54.7095625 91.5955109,54.8095625 91.1358261,54.8095625 C90.1561304,54.8095625 89.3308696,54.4383125 88.6576304,53.6970625 L88.6576304,53.6970625 Z M76.8361304,48.0370625 C76.8361304,47.8758125 76.8904239,47.7408125 76.9990109,47.6283125 C77.1063913,47.5158125 77.2391087,47.4595625 77.39475,47.4595625 C77.5491848,47.4595625 77.6831087,47.5158125 77.7941087,47.6283125 C77.9051087,47.7408125 77.9618152,47.8758125 77.9618152,48.0370625 L77.9618152,54.2320625 C77.9618152,54.3933125 77.9051087,54.5308125 77.7941087,54.6408125 C77.6831087,54.7533125 77.5491848,54.8095625 77.39475,54.8095625 C77.2391087,54.8095625 77.1063913,54.7533125 76.9990109,54.6408125 C76.8904239,54.5308125 76.8361304,54.3933125 76.8361304,54.2320625 L76.8361304,48.0370625 Z M66.824413,47.6283125 C66.9317935,47.7408125 66.986087,47.8758125 66.986087,48.0370625 C66.986087,48.1983125 66.930587,48.3370625 66.8183804,48.4520625 C66.7073804,48.5683125 66.5770761,48.6258125 66.4286739,48.6258125 L64.8167609,48.6258125 L64.8167609,54.2320625 C64.8167609,54.3933125 64.7636739,54.5308125 64.655087,54.6408125 C64.5477065,54.7533125 64.4149891,54.8095625 64.2593478,54.8095625 C64.1037065,54.8095625 63.9734022,54.7533125 63.8648152,54.6408125 C63.7562283,54.5308125 63.7019348,54.3933125 63.7019348,54.2320625 L63.7019348,48.6258125 L62.1008804,48.6258125 C61.9452391,48.6258125 61.8137283,48.5683125 61.7063478,48.4520625 C61.5977609,48.3370625 61.5434674,48.1983125 61.5434674,48.0370625 C61.5434674,47.8758125 61.5977609,47.7408125 61.7063478,47.6283125 C61.8137283,47.5158125 61.9452391,47.4595625 62.1008804,47.4595625 L66.4286739,47.4595625 C66.5843152,47.4595625 66.7158261,47.5158125 66.824413,47.6283125 L66.824413,47.6283125 Z M51.6029348,51.7758125 C51.6029348,52.6095625 51.3169891,53.3233125 50.7463043,53.9170625 C50.174413,54.5120625 49.4842826,54.8095625 48.6735,54.8095625 C47.8627174,54.8095625 47.172587,54.5145625 46.6019022,53.9220625 C46.0300109,53.3320625 45.7452717,52.6145625 45.7452717,51.7758125 L45.7452717,48.0370625 C45.7452717,47.8758125 45.7995652,47.7408125 45.9069457,47.6283125 C46.0155326,47.5158125 46.1470435,47.4595625 46.3026848,47.4595625 C46.4571196,47.4595625 46.5910435,47.5158125 46.70325,47.6283125 C46.81425,47.7408125 46.86975,47.8758125 46.86975,48.0370625 L46.86975,51.7758125 C46.86975,52.2870625 47.0459022,52.7258125 47.397,53.0933125 C47.7480978,53.4608125 48.174,53.6445625 48.6735,53.6445625 C49.173,53.6445625 49.5989022,53.4620625 49.95,53.0983125 C50.3010978,52.7345625 50.47725,52.2945625 50.47725,51.7758125 L50.47725,48.0370625 C50.47725,47.8758125 50.53275,47.7408125 50.6449565,47.6283125 C50.7559565,47.5158125 50.8898804,47.4595625 51.0455217,47.4595625 C51.201163,47.4595625 51.3314674,47.5158125 51.4400543,47.6283125 C51.5486413,47.7408125 51.6029348,47.8758125 51.6029348,48.0370625 L51.6029348,51.7758125 Z M32.4783587,54.8095625 C32.3239239,54.8095625 32.192413,54.7533125 32.0838261,54.6408125 C31.9752391,54.5308125 31.9221522,54.3933125 31.9221522,54.2320625 L31.9221522,48.0370625 C31.9221522,47.8758125 31.9752391,47.7408125 32.0838261,47.6283125 C32.192413,47.5158125 32.3239239,47.4595625 32.4783587,47.4595625 C32.634,47.4595625 32.7679239,47.5158125 32.8801304,47.6283125 C32.9911304,47.7408125 33.0466304,47.8758125 33.0466304,48.0370625 L33.0466304,53.6445625 L35.7926739,53.6445625 C35.9410761,53.6445625 36.0713804,53.7033125 36.183587,53.8170625 C36.294587,53.9333125 36.350087,54.0695625 36.350087,54.2270625 C36.350087,54.3845625 36.294587,54.5208125 36.183587,54.6370625 C36.0713804,54.7520625 35.9410761,54.8095625 35.7926739,54.8095625 L32.4783587,54.8095625 Z M16.041913,51.0308125 C16.041913,51.7370625 16.2675326,52.3445625 16.7199783,52.8520625 C17.1736304,53.3595625 17.7189783,53.6120625 18.3572283,53.6120625 C18.9954783,53.6120625 19.5396196,53.3558125 19.9884457,52.8408125 C20.4384783,52.3270625 20.6628913,51.7233125 20.6628913,51.0308125 C20.6628913,50.3370625 20.4396848,49.7333125 19.9944783,49.2195625 C19.5480652,48.7033125 19.0027174,48.4470625 18.3572283,48.4470625 C17.7117391,48.4470625 17.1651848,48.7020625 16.7163587,49.2083125 C16.2663261,49.7158125 16.041913,50.3220625 16.041913,51.0308125 L16.041913,51.0308125 Z M15.8947174,53.6970625 C15.2226848,52.9558125 14.8860652,52.0658125 14.8860652,51.0308125 C14.8860652,49.9945625 15.2226848,49.1058125 15.8947174,48.3633125 C16.56675,47.6208125 17.3859783,47.2495625 18.3524022,47.2495625 C19.3188261,47.2495625 20.1368478,47.6258125 20.810087,48.3795625 C21.4821196,49.1308125 21.8187391,50.0183125 21.8187391,51.0408125 C21.8187391,52.0620625 21.4772935,52.9445625 20.7944022,53.6870625 C20.4903587,54.0358125 20.1259891,54.3108125 19.700087,54.5108125 C19.2741848,54.7095625 18.8313913,54.8095625 18.372913,54.8095625 C17.3932174,54.8095625 16.56675,54.4383125 15.8947174,53.6970625 L15.8947174,53.6970625 Z M4.48826087,52.5733125 C4.48826087,52.0408125 3.89465217,51.6608125 2.70502174,51.4283125 L2.68451087,51.4283125 C2.15726087,51.3233125 1.70119565,51.1770625 1.31631522,50.9883125 C0.931434783,50.7983125 0.649108696,50.5558125 0.470543478,50.2583125 C0.290771739,49.9608125 0.20148913,49.6545625 0.20148913,49.3395625 C0.20148913,48.7308125 0.459684783,48.2308125 0.977282609,47.8383125 C1.49367391,47.4470625 2.08969565,47.2495625 2.76655435,47.2495625 C3.0633587,47.2495625 3.36740217,47.3020625 3.67747826,47.4070625 C3.98876087,47.5120625 4.22041304,47.6108125 4.37243478,47.7020625 C4.52445652,47.7933125 4.72473913,47.9220625 4.97569565,48.0895625 C5.09031522,48.1745625 5.16270652,48.2895625 5.19286957,48.4370625 C5.22303261,48.5845625 5.2001087,48.7183125 5.12168478,48.8408125 C5.04446739,48.9633125 4.93467391,49.0408125 4.79230435,49.0708125 C4.6511413,49.1033125 4.51963043,49.0770625 4.39777174,48.9933125 C4.07925,48.7695625 3.79813043,48.6008125 3.55079348,48.4895625 C3.30466304,48.3770625 3.04284783,48.3208125 2.76655435,48.3208125 C2.3201413,48.3208125 1.95456522,48.4295625 1.67103261,48.6470625 C1.3875,48.8633125 1.24513043,49.0945625 1.24513043,49.3395625 C1.24513043,49.4583125 1.27288043,49.5595625 1.32717391,49.6433125 C1.5153913,49.9658125 2.02575,50.2083125 2.85704348,50.3695625 L2.87755435,50.3695625 C3.44461957,50.4870625 3.91033696,50.6345625 4.27591304,50.8095625 C5.11323913,51.2370625 5.5331087,51.8245625 5.5331087,52.5733125 C5.5331087,53.2245625 5.2556087,53.7583125 4.70181522,54.1745625 C4.14802174,54.5908125 3.50856522,54.7983125 2.7858587,54.7983125 C1.90027174,54.7933125 1.03640217,54.4420625 0.191836957,53.7495625 C0.08325,53.6583125 0.0205108696,53.5358125 0.00361956522,53.3820625 C-0.0132717391,53.2283125 0.022923913,53.0945625 0.111,52.9820625 C0.197869565,52.8708125 0.316108696,52.8070625 0.465717391,52.7883125 C0.614119565,52.7708125 0.74201087,52.8120625 0.850597826,52.9095625 C1.4985,53.4545625 2.14398913,53.7245625 2.7858587,53.7170625 C3.29259783,53.7170625 3.70281522,53.5983125 4.01771739,53.3558125 C4.33141304,53.1145625 4.48826087,52.8533125 4.48826087,52.5733125 L4.48826087,52.5733125 Z" id="Fill-1" fill="#FEFEFE"></path>
                </g>
            </g>
        </g>
    </g>
</svg>