<?xml version="1.0" encoding="UTF-8" standalone="no"?>
<svg width="190px" height="100px" viewBox="0 0 190 100" version="1.1" xmlns="http://www.w3.org/2000/svg" xmlns:xlink="http://www.w3.org/1999/xlink">
    <!-- Generator: Sketch 3.7.1 (28215) - http://www.bohemiancoding.com/sketch -->
    <title>Artboard 20</title>
    <desc>Created with Sketch.</desc>
    <defs></defs>
    <g id="WEB" stroke="none" stroke-width="1" fill="none" fill-rule="evenodd">
        <g id="Artboard-20" fill="#FFFFFF">
            <path d="M44,24.1439096 L44,72.6720428 C44,78.6073204 46.252565,81.679 51.5773601,81.679 L84.1300072,81.679 L85.5629072,77.1744205 C71.8405365,72.6720428 65.0866949,60.5923051 65.0866949,49.1236005 C65.0866949,36.2219959 73.482619,26.3975756 84.1300072,21.8918951 L85.5629072,18 L50.7554931,18 C47.6821621,18 44,21.073331 44,24.1439096 L44,24.1439096 Z M146.987691,24.1439096 C146.987691,21.073331 143.915461,18 140.844332,18 L99.2825254,18 L97.6398924,21.8918951 C115.865191,22.7027524 125.691263,36.2219959 125.691263,49.1236005 C125.691263,60.5923051 117.306348,76.3553059 99.9034671,77.1744205 L97.6398924,81.679 L140.032924,81.679 C144.735676,81.679 146.987691,78.6073204 146.987691,72.6720428 L146.987691,24.1439096 L146.987691,24.1439096 Z M97.1846453,40.792633 C97.5369526,38.6804405 95.3895294,37.0444133 93.1375148,37.0444133 L88.6345867,37.0444133 L95.3895294,18 L88.6345867,18 L73.482619,61.2038887 L79.8114899,61.2297612 L86.9925043,40.7276764 L90.8871517,40.7276764 L83.3097917,61.2038887 L90.0652848,61.2038887 C90.0652848,61.2038887 97.0503281,41.600738 97.1846453,40.792633 L97.1846453,40.792633 Z M102.966339,37.0444133 L87.8127198,81.679 L94.5792225,81.679 L100.712122,62.0230032 L108.288932,62.0230032 C111.361162,62.0230032 112.096053,59.9410871 112.881038,57.6428322 C113.497576,56.0167137 118.387491,41.5071563 118.598325,40.7150153 C119.046967,39.0338488 117.645444,37.1280863 115.043875,37.0444133 C112.793512,36.9717499 102.966339,37.0444133 102.966339,37.0444133 L102.966339,37.0444133 Z M102.15383,58.9502227 L108.285079,40.6594168 L112.182479,40.7276764 L106.036918,58.9502227 L102.15383,58.9502227 L102.15383,58.9502227 Z" id="Fill-2"></path>
        </g>
    </g>
</svg>