<?xml version="1.0" encoding="UTF-8" standalone="no"?>
<svg width="190px" height="100px" viewBox="0 0 190 100" version="1.1" xmlns="http://www.w3.org/2000/svg" xmlns:xlink="http://www.w3.org/1999/xlink">
    <!-- Generator: Sketch 3.7.1 (28215) - http://www.bohemiancoding.com/sketch -->
    <title>Artboard 20</title>
    <desc>Created with Sketch.</desc>
    <defs>
        <polygon id="path-1" points="90.9788 51.9184848 0.066 51.9184848 0.066 0.1825 90.9788 0.1825"></polygon>
    </defs>
    <g id="WEB" stroke="none" stroke-width="1" fill="none" fill-rule="evenodd">
        <g id="Artboard-20">
            <g id="intel_logo" transform="translate(40.000000, 13.000000)">
                <g id="Group-3" transform="translate(0.000000, 21.015152)">
                    <mask id="mask-2" fill="white">
                        <use xlink:href="#path-1"></use>
                    </mask>
                    <g id="Clip-2"></g>
                    <path d="M0,21.9508788 L0,24.8896818 C0,30.0748939 2.0449,34.6838485 4.1272,37.8217424 C6.4856,41.3744091 9.6272,43.4759242 13.2264,45.7577273 C16.0666,47.5572879 21.8009,49.5548333 25.6751,50.3246515 C30.4513,51.2736515 35.2704,51.9848485 41.0135,51.9848485 L43.8449,51.9848485 C61.4966,51.9848485 79.4321,46.8317121 90.9788,40.6864394 L90.9788,32.3290455 C87.8548,33.9925606 84.0081,36.1869848 80.4012,37.3063182 C79.6345,37.5441212 78.4267,38.0717121 77.6226,38.3703485 C76.6337,38.7375606 75.6635,38.9786818 74.6845,39.365803 C73.2204,39.9453788 70.268,40.7395303 68.6367,41.0923636 C66.5346,41.5458485 64.537,42.1187879 62.3348,42.5623182 C60.0644,43.0202273 58.0415,43.2646667 55.6842,43.6816515 C53.5029,44.0676667 50.9212,44.2003939 48.5947,44.3618788 C46.1648,44.53 43.6436,44.6361818 41.0135,44.6361818 L40.4657,44.6361818 C31.1047,44.6361818 22.1749,43.1573788 15.9247,40.0139545 C9.9132,36.9899848 4.2933,31.3866818 4.2933,22.4098939 L4.2933,21.5836667 C4.2933,17.3596212 5.5825,14.1155455 6.7958,11.0572879 C7.3282,9.71563636 8.3325,8.00345455 9.0981,6.84983333 C9.5766,6.12978788 9.9649,5.60440909 10.4665,4.92086364 C10.9153,4.30810606 11.6149,3.64889394 11.9658,3.12130303 L11.9658,0.1825 C10.5094,1.1624697 8.9793,3.09254545 7.744,4.38663636 C6.3415,5.85437879 5.302,7.49245455 4.147,9.22012121 C2.4321,11.7839697 0,17.7489545 0,21.9508788" id="Fill-1" fill="#FFFFFF" mask="url(#mask-2)"></path>
                </g>
                <path d="M109.6139,27.0752576 L109.6139,24.4118636 C109.5831,24.363197 109.1893,21.4321364 109.1211,21.0505455 C108.9484,20.0904848 108.6019,18.8627576 108.273,18.0453788 C107.448,16.005803 106.7616,14.6254394 105.5285,12.9973182 C103.2471,9.98551515 100.5301,7.80878788 97.1311,5.9185303 C90.893,2.44992424 81.3978,0.34730303 71.7057,0.34730303 L70.884,0.34730303 C60.8839,0.34730303 52.613,2.01966667 44.7964,4.24284848 C42.7317,4.83016667 41.052,5.43628788 39.1292,6.07669697 C37.5375,6.6065 35.2066,7.49466667 33.7656,8.21471212 C32.0584,9.06859091 30.3545,9.80190909 28.6825,10.6347727 C27.797,11.0760909 24.3958,13.1687576 23.8414,13.2981667 L23.8414,15.5025455 C24.5938,15.3255758 27.3702,13.7837273 28.4383,13.3280303 C29.9178,12.6953636 31.7768,11.7552121 33.2673,11.296197 C33.9427,11.0871515 35.0614,10.6624242 35.7313,10.3748485 C36.5464,10.0253333 37.3967,9.8129697 38.2613,9.5209697 C39.9113,8.96572727 41.7549,8.33859091 43.4984,7.89837879 C47.2571,6.95159091 50.5681,6.18177273 54.6788,5.45398485 C58.1801,4.83237879 63.1059,4.20524242 67.0472,4.20524242 L71.1568,4.20524242 C79.1615,4.20524242 87.8251,6.0534697 92.9588,8.92148485 C96.0729,10.6613182 98.1651,12.1257424 100.3134,14.8433333 C101.9315,16.8917576 103.95,20.9764394 103.95,24.5954697 L103.95,26.1572273 C103.95,29.9720303 101.9788,34.0744091 100.3343,36.298697 C99.3366,37.6480909 98.3488,38.8492727 97.1234,39.9586515 C96.5283,40.4984091 93.7497,42.7171667 93.0798,42.8742273 L93.0798,48.9354394 C94.369,48.8281515 98.2432,46.3196061 99.2387,45.5752273 C101.0735,44.2037121 102.7169,42.6253636 104.1172,40.8368636 C105.71,38.8028182 106.568,37.3129545 107.7274,34.8221061 C108.251,33.6939242 108.5535,32.5358788 108.9363,31.261697 C109.0903,30.7451667 109.6029,27.0929545 109.6139,27.0752576" id="Fill-4" fill="#FFFFFF"></path>
                <path d="M66.0429,35.0665455 L66.0429,35.7091667 L74.6284,35.7091667 L74.6284,35.2501515 C74.6284,32.9705606 72.9971,30.933197 70.609,30.933197 L70.1525,30.933197 C68.0493,30.933197 66.0429,32.9971061 66.0429,35.0665455 L66.0429,35.0665455 Z M60.3801,37.2709242 L60.3801,38.3725606 C60.3801,44.6881667 64.2334,49.3026515 70.5177,49.3026515 L71.7057,49.3026515 C73.6098,49.3026515 74.9672,48.8392121 76.3301,48.2574242 C77.8118,47.6247576 78.5664,46.5441364 79.6774,45.788697 L76.0914,42.4152121 C75.3841,43.4759242 73.4272,44.5277879 71.6144,44.5277879 L70.609,44.5277879 C68.2308,44.5277879 66.0429,42.4937424 66.0429,40.2108333 L66.0429,39.5671061 L80.2923,39.5671061 L80.2923,37.0873182 C80.2923,34.1662121 79.2528,31.3523939 77.9845,29.6722879 C76.7789,28.0784545 74.3336,26.2490303 71.6144,26.2490303 L69.8775,26.2490303 C67.0054,26.2490303 64.4061,28.0629697 63.0025,29.6236212 C61.5714,31.2163485 60.3801,34.2513788 60.3801,37.2709242 L60.3801,37.2709242 Z" id="Fill-5" fill="#FFFFFF"></path>
                <path d="M26.6728,48.9354394 L32.2443,48.9354394 L32.2443,31.2086061 L37.268,31.2086061 C38.3757,31.2086061 39.2788,32.0713333 39.2788,33.1375758 L39.2788,48.9354394 L44.9416,48.9354394 L44.9416,33.2293788 C44.9416,29.5030606 42.4193,26.6162424 38.7299,26.6162424 L26.6728,26.6162424 L26.6728,48.9354394" id="Fill-6" fill="#FFFFFF"></path>
                <path d="M49.0523,42.322303 C49.0523,46.0950758 51.491,48.9354394 55.1727,48.9354394 L59.0095,48.9354394 L59.0095,44.1594697 L56.177,44.1594697 C55.3388,44.1594697 54.7162,43.1839242 54.7162,42.322303 L54.7162,31.2086061 L59.0095,31.2086061 L59.0095,26.6162424 L54.7162,26.6162424 L54.7162,20.4621212 L49.0523,20.4621212 L49.0523,42.322303" id="Fill-7" fill="#FFFFFF"></path>
                <path d="M83.5802,43.5168485 C83.5802,45.041 84.4987,46.4235758 85.2918,47.2166212 C85.7186,47.6391364 86.3896,47.9908636 87.0144,48.2397273 C87.8856,48.5892424 88.3377,48.5405758 89.2441,48.7518333 L89.2441,17.3397121 L83.5802,17.3397121 L83.5802,43.5168485" id="Fill-8" fill="#FFFFFF"></path>
                <path d="M15.8719,31.8512273 L15.8939,42.9660303 C15.8939,46.7310606 18.0884,49.1312121 21.648,49.2108485 L21.648,26.6162424 L16.0061,26.6173485 L15.8719,31.8512273" id="Fill-9" fill="#FFFFFF"></path>
                <polygon id="Fill-10" fill="#FFFFFF" points="15.9852 23.4938333 21.648 23.4938333 21.648 18.0741364 15.9852 18.0741364"></polygon>
                <path d="M94.7551,19.4755152 L95.2314,19.4755152 C95.4591,19.4755152 95.6153,19.4401212 95.6989,19.3726515 C95.7814,19.3040758 95.8232,19.2133788 95.8232,19.1005606 C95.8232,19.0286667 95.8034,18.9634091 95.7627,18.9047879 C95.7231,18.8483788 95.6681,18.8052424 95.5966,18.7775909 C95.5251,18.7488333 95.3931,18.7344545 95.2017,18.7344545 L94.7551,18.7344545 L94.7551,19.4755152 L94.7551,19.4755152 Z M94.3591,20.8547727 L94.3591,18.4026364 L95.1973,18.4026364 C95.4844,18.4026364 95.6912,18.4247576 95.8199,18.4701061 C95.9497,18.5154545 96.0498,18.5950909 96.1268,18.706803 C96.2027,18.8207273 96.2401,18.9401818 96.2401,19.0673788 C96.2401,19.2465606 96.1774,19.4025152 96.0498,19.5352424 C95.9222,19.6690758 95.7539,19.7431818 95.5427,19.7597727 C95.6296,19.7951667 95.6989,19.838303 95.7506,19.8891818 C95.8496,19.9854091 95.9695,20.148 96.1114,20.3758485 L96.4095,20.8547727 L95.9277,20.8547727 L95.7121,20.4687576 C95.5405,20.165697 95.4041,19.9743485 95.3007,19.8980303 C95.2281,19.8416212 95.1225,19.8139697 94.985,19.8139697 L94.7551,19.8139697 L94.7551,20.8547727 L94.3591,20.8547727 L94.3591,20.8547727 Z M95.3546,17.6925455 C95.0356,17.6925455 94.7254,17.7743939 94.424,17.9380909 C94.1226,18.1028939 93.8872,18.3384848 93.7156,18.6415455 C93.5462,18.9479242 93.4604,19.2642576 93.4604,19.5960758 C93.4604,19.9245758 93.5451,20.238697 93.7112,20.5395455 C93.8806,20.8415 94.1138,21.0759848 94.413,21.2441061 C94.7155,21.4122273 95.0279,21.4973939 95.3546,21.4973939 C95.6802,21.4973939 95.9948,21.4122273 96.2951,21.2441061 C96.5954,21.0759848 96.8275,20.8415 96.9947,20.5395455 C97.1608,20.238697 97.2433,19.9245758 97.2433,19.5960758 C97.2433,19.2642576 97.1597,18.9479242 96.9914,18.6415455 C96.822,18.3384848 96.5855,18.1028939 96.2819,17.9380909 C95.9805,17.7743939 95.6714,17.6925455 95.3546,17.6925455 L95.3546,17.6925455 Z M95.3546,17.3142727 C95.7352,17.3142727 96.1059,17.4127121 96.4689,17.6084848 C96.8319,17.8053636 97.1146,18.086303 97.317,18.4524091 C97.5183,18.8174091 97.6195,19.199 97.6195,19.5960758 C97.6195,19.9887273 97.5205,20.367 97.3214,20.7286818 C97.1223,21.0914697 96.8418,21.3735152 96.4832,21.5737121 C96.1235,21.7750152 95.7473,21.8745606 95.3546,21.8745606 C94.9619,21.8745606 94.5846,21.7750152 94.226,21.5737121 C93.8663,21.3735152 93.5858,21.0914697 93.3856,20.7286818 C93.1854,20.367 93.0853,19.9887273 93.0853,19.5960758 C93.0853,19.199 93.1865,18.8174091 93.39,18.4524091 C93.5935,18.086303 93.8762,17.8053636 94.2392,17.6084848 C94.6011,17.4127121 94.974,17.3142727 95.3546,17.3142727 L95.3546,17.3142727 Z" id="Fill-11" fill="#FFFFFF"></path>
            </g>
        </g>
    </g>
</svg>