<?xml version="1.0" encoding="UTF-8" standalone="no"?>
<svg width="190px" height="100px" viewBox="0 0 190 100" version="1.1" xmlns="http://www.w3.org/2000/svg" xmlns:xlink="http://www.w3.org/1999/xlink">
    <!-- Generator: Sketch 3.7.1 (28215) - http://www.bohemiancoding.com/sketch -->
    <title>Artboard 20</title>
    <desc>Created with Sketch.</desc>
    <defs></defs>
    <g id="WEB" stroke="none" stroke-width="1" fill="none" fill-rule="evenodd">
        <g id="Artboard-20">
            <g id="Motorola" transform="translate(8.000000, -37.000000)">
                <polygon id="Fill-1" points="-1.13686838e-13 173.945907 173.780021 173.945907 173.780021 0.219979275 -1.13686838e-13 0.219979275"></polygon>
                <polyline id="Fill-2" fill="#FFFFFF" points="22.1854508 124.589409 25.3481036 113.829358 30.7961969 113.829358 32.1719689 118.428187 36.1243834 113.80772 41.9069534 113.80772 38.8975648 124.580394 34.5277306 124.594819 36.1243834 119.037637 31.0531399 124.594819 28.9047358 124.594819 27.3396373 118.649969 25.5807047 124.594819 22.1854508 124.589409"></polyline>
                <polyline id="Fill-3" fill="#FFFFFF" points="60.6710052 113.805917 74.0933472 113.829358 73.286456 117.303948 68.6786114 117.303948 66.7853472 124.589409 62.5372228 124.594819 64.3033679 117.334601 59.7667461 117.334601 60.6710052 113.805917"></polyline>
                <path d="M96.6727772,113.825751 L96.6727772,116.327565 L96.6799896,116.327565 L96.1561865,118.409254 L100.75772,118.409254 C100.75772,118.409254 101.875648,118.21542 101.938756,117.195762 C101.991047,116.293306 101.152601,116.356415 101.152601,116.356415 L96.6727772,116.340187 L96.6727772,113.829358 L103.605731,113.825751 C103.605731,113.825751 106.572746,114.050238 106.282446,116.616964 C105.985834,119.182788 103.257731,120.001399 103.257731,120.001399 C103.257731,120.001399 103.092746,120.16458 103.221668,120.261948 C103.349689,120.357513 104.368446,120.548642 104.497368,121.508798 C104.625389,122.470756 104.162891,123.170363 104.162891,123.461565 C104.162891,123.748259 104.192642,124.324352 104.55687,124.580394 L100.176218,124.580394 C100.176218,124.580394 99.3936684,124.459585 99.4621865,123.652694 C99.5270984,122.854819 99.5631606,122.152508 99.5631606,122.152508 C99.5631606,122.152508 99.4982487,121.315865 98.3244249,121.415036 L95.1212021,121.38258 L94.208829,124.589409 L90.190601,124.589409 L93.2486736,113.825751 L96.6727772,113.825751" id="Fill-4" fill="#FFFFFF"></path>
                <polyline id="Fill-5" fill="#FFFFFF" points="127.098435 113.825751 131.210425 113.825751 129.217088 121.632311 135.983254 121.632311 135.197098 124.598425 124.289192 124.598425 127.098435 113.825751"></polyline>
                <polyline id="Fill-6" fill="#FFFFFF" points="149.127016 113.816736 151.59457 124.594819 147.317596 124.594819 146.864114 122.726798 146.848788 122.689834 141.667554 122.689834 141.648622 122.706964 140.397264 124.589409 136.77572 124.594819 144.08913 113.816736 145.508176 116.993813 143.386819 120.133927 143.448124 120.158269 146.196062 120.158269 146.245648 120.151959 145.508176 116.993813 144.08913 113.816736 149.127016 113.816736"></polyline>
                <path d="M51.4904767,116.212166 C52.7959275,116.212166 54.0797409,116.856777 54.2825907,117.793492 C54.9028601,120.789358 51.7068497,122.072269 52.0818964,121.883845 C50.2445285,122.795316 47.451513,122.503212 47.1224456,120.614456 C46.8114093,118.798725 48.2133264,117.010943 49.3934611,116.584508 C50.2012539,116.293306 50.8675026,116.169793 51.4904767,116.212166 L51.5003938,116.183316 L51.5148187,113.391202 C50.6700622,113.40743 49.7198238,113.51201 48.968829,113.658964 C45.7484767,114.276528 41.6878756,117.202974 42.4037098,120.907461 C43.0050466,124.03856 47.253171,125.719057 52.0151813,124.79857 C56.4805803,123.942093 59.4043212,120.503565 58.7750363,117.452705 C58.1709948,114.501016 54.6756684,113.391202 51.5148187,113.391202 L51.5148187,115.805565 L51.4904767,116.212166" id="Fill-7" fill="#FFFFFF"></path>
                <path d="M82.7113057,116.212166 C84.0140518,116.212166 85.3032746,116.856777 85.4944041,117.793492 C86.1254922,120.789358 82.9267772,122.072269 83.3081347,121.883845 C81.4671606,122.795316 78.6714404,122.503212 78.3450777,120.614456 C78.0304352,118.798725 79.4323523,117.010943 80.6151917,116.584508 C81.4211813,116.293306 82.095544,116.169793 82.7113057,116.212166 L82.7203212,116.183316 L82.7383523,113.391202 C81.8981036,113.40743 80.9415544,113.51201 80.1878549,113.658964 C76.9693057,114.276528 72.9032953,117.202974 73.618228,120.907461 C74.2195648,124.03856 78.4776062,125.719057 83.2315026,124.79857 C87.7014093,123.942093 90.6278549,120.503565 89.9985699,117.452705 C89.3927254,114.501016 85.8983005,113.391202 82.7383523,113.391202 L82.7383523,115.805565 L82.7113057,116.212166" id="Fill-8" fill="#FFFFFF"></path>
                <path d="M116.653026,116.183316 C117.95487,116.25544 119.233275,116.856777 119.430715,117.793492 C120.055492,120.789358 116.857679,122.072269 117.241741,121.883845 C115.399865,122.795316 112.605948,122.503212 112.277782,120.614456 C111.964943,118.798725 113.363254,117.010943 114.547896,116.584508 C115.51887,116.232 115.897523,116.133731 116.653026,116.183316 L116.670155,113.391202 C115.829005,113.40743 114.881472,113.51201 114.118756,113.658964 C110.904715,114.276528 106.843212,117.202974 107.554539,120.907461 C108.156777,124.03856 112.411212,125.719057 117.167813,124.79857 C121.634114,123.942093 124.561461,120.503565 123.926767,117.452705 C123.323627,114.501016 119.829202,113.391202 116.670155,113.391202 L116.670155,115.805565 L116.653026,116.183316" id="Fill-9" fill="#FFFFFF"></path>
                <path d="M86.9377927,38.0771503 C105.098705,38.0771503 119.39285,52.7039689 119.39285,70.5195855 C119.39285,88.4406839 104.858891,102.964725 86.9377927,102.964725 C69.0175959,102.964725 54.4926528,88.4406839 54.4926528,70.5195855 C54.4926528,52.598487 69.0175959,38.0771503 86.9377927,38.0771503 L86.9377927,38.0771503 Z M86.8656684,77.322715 L77.7888187,47.2107979 L66.037057,85.7630674 L68.2422591,85.7630674 C68.2422591,85.7630674 69.7271192,79.0564041 72.1333679,75.0498964 C73.4469326,72.8789534 75.4682176,71.099285 78.1737824,71.1506736 C80.0796684,71.1849326 81.7268083,72.2280311 83.7877617,75.1048912 C85.0264974,76.8349741 86.9341865,81.2354611 86.9341865,81.2354611 C86.9341865,81.2354611 88.8418756,76.8403834 90.0851192,75.1048912 C92.1379585,72.2280311 93.7887047,71.1849326 95.6972953,71.1506736 C98.3965492,71.099285 100.42685,72.8789534 101.734104,75.0544041 C104.14486,79.0564041 105.625212,85.7630674 105.625212,85.7630674 L107.835824,85.7630674 L96.0759482,47.2107979 L86.9990984,77.322715 L86.9377927,77.3768083 L86.8656684,77.322715 L86.8656684,77.322715 Z" id="Fill-10" fill="#FFFFFF"></path>
            </g>
        </g>
    </g>
</svg>