<?xml version="1.0" encoding="UTF-8" standalone="no"?>
<svg width="190px" height="100px" viewBox="0 0 190 100" version="1.1" xmlns="http://www.w3.org/2000/svg" xmlns:xlink="http://www.w3.org/1999/xlink">
    <!-- Generator: Sketch 3.7.1 (28215) - http://www.bohemiancoding.com/sketch -->
    <title>Artboard 20</title>
    <desc>Created with Sketch.</desc>
    <defs>
        <polygon id="path-1" points="0 31.8333333 135.197077 31.8333333 135.197077 0 0 0"></polygon>
    </defs>
    <g id="WEB" stroke="none" stroke-width="1" fill="none" fill-rule="evenodd">
        <g id="Artboard-20">
            <g id="Novell-Logo" transform="translate(27.000000, 34.000000)">
                <path d="M94.7381231,10.6737333 C97.8569692,10.6737333 100.063046,12.5124 100.719508,15.6110667 L88.5592769,15.6110667 C89.2418923,12.6417333 91.6702769,10.6737333 94.7381231,10.6737333 L94.7381231,10.6737333 Z M101.718585,21.8630667 L101.547277,22.1390667 C99.9610462,24.6750667 98.2218154,26.3657333 94.8858923,26.3657333 C90.7692769,26.3657333 88.4402769,22.9417333 88.2428154,19.5950667 L105.958123,19.5950667 L105.958123,19.2430667 L105.958123,18.5670667 C105.958123,14.6457333 104.821738,11.4150667 102.670585,9.22173333 C100.709046,7.22173333 98.0400462,6.2084 94.7381231,6.2084 C87.5405846,6.2084 83.0682769,10.9990667 83.0682769,18.7124 C83.0682769,22.2404 84.2661231,25.4044 86.4368923,27.6190667 C88.5592769,29.7830667 91.4636615,30.9284 94.8348923,30.9284 C99.5478154,30.9284 103.687969,28.5537333 105.912354,24.5764 L106.088892,24.2644 L101.718585,21.8630667 L101.718585,21.8630667 Z" id="Fill-1" fill="#FFFFFF"></path>
                <path d="M43.1857538,25.8828 C41.3955231,25.8828 39.6968308,25.1574667 38.4048308,23.8401333 C37.0840615,22.4934667 36.3282154,20.6374667 36.3282154,18.7481333 C36.3282154,16.8201333 37.0605231,15.0094667 38.3917538,13.6521333 C39.6811385,12.3374667 41.3837538,11.6134667 43.1857538,11.6134667 C44.9890615,11.6134667 46.6903692,12.3374667 47.9797538,13.6521333 C49.3122923,15.0094667 50.0446,16.8201333 50.0446,18.7481333 C50.0446,22.6828 46.9689077,25.8828 43.1857538,25.8828 M51.7367538,10.1028 C49.4966769,7.8188 46.4602154,6.56013333 43.1857538,6.56013333 C36.4576769,6.56013333 31.1863692,11.9134667 31.1863692,18.7481333 C31.1863692,22.0561333 32.4129846,25.1268 34.6347538,27.3948 C36.8748308,29.6788 39.9112923,30.9361333 43.1857538,30.9361333 C46.4602154,30.9361333 49.4966769,29.6788 51.7367538,27.3948 C53.9611385,25.1268 55.1851385,22.0561333 55.1851385,18.7481333 C55.1851385,15.4414667 53.9611385,12.3694667 51.7367538,10.1028" id="Fill-3" fill="#FFFFFF"></path>
                <polygon id="Fill-5" fill="#FFFFFF" points="74.8545308 6.47586667 68.9725308 20.1465333 63.1363 6.47586667 57.3733 6.47586667 68.9699154 31.6225333 80.6162231 6.47586667"></polygon>
                <mask id="mask-2" fill="white">
                    <use xlink:href="#path-1"></use>
                </mask>
                <g id="Clip-8"></g>
                <polygon id="Fill-7" fill="#FFFFFF" mask="url(#mask-2)" points="112.033923 30.288 117.009692 30.288 117.009692 0 112.033923 0"></polygon>
                <polygon id="Fill-9" fill="#FFFFFF" mask="url(#mask-2)" points="122.991077 30.288 127.966846 30.288 127.966846 0 122.991077 0"></polygon>
                <polygon id="Fill-10" fill="#FFFFFF" mask="url(#mask-2)" points="19.7622385 1.39573333 19.7622385 19.4770667 0.000392307693 0.8504 0.000392307693 30.2784 5.10039231 30.2784 5.10039231 13.2064 24.8622385 31.8330667 24.8622385 1.39573333"></polygon>
                <path d="M132.265362,28.6393333 L132.607977,28.6393333 C132.9859,28.6393333 133.327208,28.494 133.327208,28.11 C133.327208,27.8393333 133.151977,27.5566667 132.587054,27.5566667 C132.4419,27.5566667 132.342515,27.5686667 132.265362,27.5793333 L132.265362,28.6393333 Z M132.265362,30.1646667 L131.908362,30.1646667 L131.908362,27.334 C132.155515,27.3006667 132.354285,27.2673333 132.630208,27.2673333 C133.018592,27.2673333 133.284054,27.358 133.450131,27.4806667 C133.610977,27.606 133.701208,27.798 133.701208,28.0566667 C133.701208,28.4393333 133.450131,28.6646667 133.162438,28.7566667 L133.162438,28.7766667 C133.404362,28.8246667 133.567823,29.0486667 133.634515,29.4673333 C133.703823,29.9073333 133.769208,30.074 133.825438,30.1646667 L133.450131,30.1646667 C133.382131,30.074 133.304977,29.8166667 133.238285,29.4433333 C133.163746,29.0606667 132.9859,28.9126667 132.597515,28.9126667 L132.265362,28.9126667 L132.265362,30.1646667 Z M132.753131,26.478 C131.619362,26.478 130.705285,27.47 130.705285,28.6886667 C130.705285,29.9286667 131.619362,30.9206667 132.771438,30.9206667 C133.905208,30.934 134.806208,29.9286667 134.806208,28.6993333 C134.806208,27.47 133.905208,26.478 132.763592,26.478 L132.753131,26.478 Z M132.763592,26.1606667 C134.117054,26.1606667 135.197208,27.2726667 135.197208,28.6886667 C135.197208,30.126 134.117054,31.2353333 132.753131,31.2353333 C131.394438,31.2353333 130.293362,30.126 130.293362,28.6886667 C130.293362,27.2726667 131.394438,26.1606667 132.753131,26.1606667 L132.763592,26.1606667 Z" id="Fill-11" fill="#FFFFFF" mask="url(#mask-2)"></path>
            </g>
        </g>
    </g>
</svg>