<?xml version="1.0" encoding="UTF-8" standalone="no"?>
<svg width="190px" height="100px" viewBox="0 0 190 100" version="1.1" xmlns="http://www.w3.org/2000/svg" xmlns:xlink="http://www.w3.org/1999/xlink">
    <!-- Generator: Sketch 3.7.1 (28215) - http://www.bohemiancoding.com/sketch -->
    <title>Artboard 20</title>
    <desc>Created with Sketch.</desc>
    <defs></defs>
    <g id="WEB" stroke="none" stroke-width="1" fill="none" fill-rule="evenodd">
        <g id="Artboard-20" fill="#FFFFFF">
            <g id="msft_logo_print" transform="translate(3.000000, 30.000000)">
                <path d="M0,0 L18.7934716,0 C18.7923429,6.34285714 18.7934716,12.6857143 18.7923429,19.0285714 L0,19.0285714 L0,0" id="Fill-1"></path>
                <path d="M20.7123246,0 L39.5057962,0 C39.5057962,6.34285714 39.506925,12.6857143 39.5046675,19.0285714 C33.2413057,19.0274286 26.9768151,19.0285714 20.7134533,19.0285714 C20.7111959,12.6857143 20.7123246,6.34285714 20.7123246,0" id="Fill-3"></path>
                <path d="M169.474222,7.25028571 C171.206833,6.10857143 173.445119,6.00228571 175.397834,6.54628571 C175.414765,7.72114286 175.400092,8.89714286 175.405735,10.0731429 C174.477913,9.65942857 173.386425,9.38971429 172.410067,9.79542857 C171.635754,10.1062857 171.175229,10.9108571 171.054454,11.7154286 C170.908847,12.736 171.003661,13.7702857 170.978829,14.7965714 C172.960891,14.8011429 174.942953,14.7977143 176.925015,14.7988571 C176.939689,13.496 176.909213,12.192 176.941946,10.8891429 C178.289658,10.5005714 179.622697,10.0651429 180.963636,9.656 C180.974924,11.3725714 180.947834,13.0902857 180.97831,14.808 C182.318121,14.7885714 183.65906,14.8034286 185,14.7988571 L185,18.1405714 C183.654545,18.0845714 182.307962,18.1257143 180.962508,18.1211429 C180.968151,20.0422857 180.963636,21.9634286 180.964765,23.8857143 C180.986211,24.9497143 180.908328,26.0194286 181.031361,27.08 C181.105857,27.7051429 181.330476,28.3977143 181.909518,28.7211429 C182.879103,29.2708571 184.109426,29.0308571 185,28.4274286 L185,31.8022857 C183.83853,32.3131429 182.540482,32.4685714 181.284198,32.3782857 C180.092251,32.2891429 178.857413,31.8502857 178.079713,30.8902857 C177.181239,29.8057143 176.949847,28.3371429 176.931788,26.9634286 C176.921629,24.0148571 176.932916,21.0662857 176.927273,18.1165714 C174.944082,18.1154286 172.960891,18.1142857 170.978829,18.1177143 C170.976571,22.7451429 170.9777,27.3725714 170.9777,32 L166.913118,32 C166.913118,27.3737143 166.907474,22.7485714 166.915375,18.1222857 C165.97288,18.104 165.029256,18.1268571 164.08676,18.1074286 C164.090146,17.0091429 164.094661,15.9097143 164.084503,14.8102857 C165.022483,14.7885714 165.961592,14.7977143 166.90183,14.8045714 C166.970683,13.344 166.75058,11.8411429 167.181757,10.4182857 C167.546339,9.13371429 168.356772,7.97485714 169.474222,7.25028571" id="Fill-4"></path>
                <path d="M82.4508542,7.49028571 C83.2703173,7.36457143 84.1575046,7.648 84.7004271,8.29714286 C85.3370348,9.008 85.4544234,10.1394286 84.9826113,10.9702857 C84.4611348,11.9074286 83.2940207,12.3428571 82.2770287,12.1177143 C81.2216595,11.9257143 80.3423734,10.9325714 80.3897804,9.82514286 C80.3593045,8.65942857 81.3221171,7.62057143 82.4508542,7.49028571" id="Fill-5"></path>
                <path d="M51.3010982,8 L57.2122941,8 C59.0521354,12.7302857 60.9055217,17.456 62.7476205,22.1862857 C63.2183038,23.3691429 63.6585113,24.5657143 64.1517694,25.7394286 C66.5187309,19.8285714 68.9195546,13.9325714 71.2684564,8.01371429 C73.1636059,7.98285714 75.0598841,8.00685714 76.9561623,8.00228571 C76.9516473,16.0011429 76.9539048,24 76.9550336,31.9988571 C75.5870043,31.9954286 74.2201037,32.0102857 72.8532032,31.9908571 C72.8678768,26.088 72.8520744,20.1851429 72.8599756,14.2811429 C72.8622331,14.016 72.8532032,13.7508571 72.8351434,13.4857143 C72.7550031,13.6091429 72.6838926,13.7371429 72.6218121,13.8697143 C70.2729103,19.912 67.8788591,25.9371429 65.5435021,31.9851429 C64.5705308,32.0205714 63.5964308,31.9874286 62.6223307,32.0034286 C60.1989323,25.9611429 57.8060098,19.9051429 55.3950275,13.8582857 C55.3318182,13.7325714 55.264094,13.6102857 55.1907261,13.4925714 C55.1410616,16.0788571 55.1828249,18.6674286 55.16928,21.2537143 C55.1704088,24.8354286 55.1670226,28.4171429 55.1704088,31.9988571 C53.8802624,32.0022857 52.5901159,31.9988571 51.3010982,32 C51.2999695,24 51.2988408,16 51.3010982,8" id="Fill-6"></path>
                <path d="M93.6366382,14.7828571 C95.5983832,14.2171429 97.7136364,14.24 99.6742526,14.8011429 C100.07834,14.9154286 100.470012,15.0742857 100.833466,15.2902857 C100.810891,16.6011429 100.833466,17.9131429 100.821049,19.2251429 C99.5105857,18.2114286 97.8479561,17.5691429 96.1819402,17.7817143 C94.8590604,17.9028571 93.5971324,18.5977143 92.8058877,19.68 C91.7888957,21.0217143 91.5541184,22.8034286 91.7290726,24.4445714 C91.8600061,25.7291429 92.3848688,27.0125714 93.371385,27.864 C94.3962782,28.7862857 95.8331605,29.1131429 97.1741001,29.0102857 C98.4992373,28.856 99.749878,28.288 100.821049,27.4948571 C100.832337,28.7371429 100.815406,29.9794286 100.830079,31.2217143 C99.1685784,32.2228571 97.1763575,32.4811429 95.2744356,32.3862857 C93.328493,32.2822857 91.388194,31.536 89.9795302,30.1508571 C88.4489628,28.6571429 87.6182123,26.5268571 87.5200122,24.3931429 C87.4206833,22.1748571 87.8665345,19.8605714 89.1273337,18.008 C90.1838316,16.4274286 91.8363026,15.3085714 93.6366382,14.7828571" id="Fill-7"></path>
                <path d="M121.174436,14.4868571 C123.124893,14.2354286 125.182581,14.3474286 126.993075,15.1817143 C128.564277,15.8994286 129.837492,17.2262857 130.542953,18.8148571 C131.295821,20.5062857 131.478676,22.4057143 131.351129,24.24 C131.225839,26.0308571 130.6705,27.8251429 129.564338,29.248 C128.432215,30.7588571 126.725564,31.7828571 124.898139,32.1634286 C123.335967,32.4925714 121.701556,32.4914286 120.139384,32.1588571 C118.270195,31.7542857 116.539841,30.656 115.443838,29.0582857 C114.157077,27.2068571 113.791367,24.8525714 113.955034,22.6342857 C114.06565,20.752 114.643563,18.8548571 115.830995,17.3782857 C117.1313,15.7245714 119.125778,14.7485714 121.174436,14.4868571 Z M122.386699,17.7531429 C123.607993,17.672 124.908298,18.0217143 125.786455,18.9211429 C126.725564,19.856 127.089018,21.2125714 127.189475,22.5062857 C127.261714,23.9222857 127.204149,25.3977143 126.617206,26.7097143 C126.22892,27.5942857 125.517816,28.3417143 124.62047,28.696 C123.570744,29.104 122.391214,29.128 121.307627,28.8434286 C120.204851,28.5497143 119.269128,27.7428571 118.760067,26.7154286 C118.1054,25.392 118.0072,23.8617143 118.142648,22.4102857 C118.26568,21.0902857 118.719433,19.7325714 119.712721,18.8217143 C120.432855,18.1405714 121.414857,17.808 122.386699,17.7531429 Z" id="Combined-Shape"></path>
                <path d="M138.035509,14.5211429 C139.914857,14.1862857 141.882245,14.432 143.661135,15.1142857 C143.663392,16.376 143.661135,17.6365714 143.662264,18.8971429 C142.419524,18.032 140.901373,17.5668571 139.39338,17.6205714 C138.63374,17.6502857 137.798475,17.976 137.451952,18.7074286 C137.176541,19.4308571 137.367297,20.3794286 138.041153,20.8125714 C139.193594,21.5931429 140.568395,21.9245714 141.762599,22.624 C142.702837,23.1588571 143.614857,23.8582857 144.091184,24.8662857 C144.986272,26.7542857 144.607016,29.2491429 143.033557,30.6571429 C141.531208,32.0788571 139.367419,32.472 137.377456,32.3965714 C135.964277,32.304 134.544326,32.0217143 133.245149,31.4365714 C133.250793,30.1097143 133.237248,28.784 133.251922,27.4582857 C134.344539,28.2617143 135.605339,28.8365714 136.939506,29.0697143 C137.868456,29.2228571 138.878676,29.2297143 139.744417,28.8091429 C140.57291,28.392 140.721904,27.2 140.229774,26.4708571 C139.76925,25.9085714 139.093136,25.5988571 138.4554,25.2948571 C137.25781,24.7497143 135.999268,24.2937143 134.947285,23.4765714 C134.207962,22.8925714 133.648109,22.0697143 133.429134,21.1417143 C133.104057,19.7737143 133.205644,18.232 133.991245,17.0365714 C134.888591,15.6434286 136.447376,14.808 138.035509,14.5211429" id="Fill-9"></path>
                <path d="M153.570317,14.4811429 C155.598658,14.2262857 157.752288,14.3645714 159.603417,15.3108571 C161.217511,16.128 162.46928,17.6045714 163.0946,19.312 C163.583344,20.6182857 163.754912,22.0285714 163.726693,23.4194286 C163.730079,25.4971429 163.175869,27.6297143 161.88798,29.2777143 C160.682489,30.8731429 158.838133,31.9097143 156.891062,32.2354286 C154.986882,32.5474286 152.975473,32.4662857 151.166107,31.7451429 C149.333038,31.0148571 147.809243,29.5245714 147.037187,27.6891429 C146.232398,25.8182857 146.147743,23.7131429 146.398322,21.7142857 C146.661318,19.7154286 147.555278,17.7611429 149.079073,16.432 C150.327456,15.3222857 151.934777,14.6937143 153.570317,14.4811429 Z M154.66745,17.7565714 C155.815375,17.6754286 157.041184,17.944 157.923856,18.7291429 C158.737675,19.4125714 159.188041,20.4365714 159.3946,21.4674286 C159.62712,22.6765714 159.624863,23.928 159.428462,25.1428571 C159.272697,26.048 158.963423,26.9508571 158.377608,27.6674286 C157.787279,28.3874286 156.909121,28.8262857 156.002746,28.9611429 C155.029774,29.1085714 154.004881,29.0377143 153.095119,28.6411429 C152.113118,28.2205714 151.352349,27.36 150.951647,26.3702857 C150.469677,25.1908571 150.373734,23.8845714 150.469677,22.6228571 C150.562233,21.4011429 150.90424,20.1474286 151.701129,19.1977143 C152.428035,18.3108571 153.543228,17.8205714 154.66745,17.7565714 Z" id="Combined-Shape"></path>
                <path d="M109.922056,15.0628571 C111.044021,14.3805714 112.469616,14.3234286 113.694295,14.7405714 C113.688652,16.1131429 113.694295,17.4857143 113.690909,18.8582857 C112.889506,18.3325714 111.889445,18.1074286 110.943563,18.2045714 C109.789994,18.3371429 108.875717,19.2342857 108.401647,20.2628571 C107.886943,21.352 107.789872,22.584 107.822605,23.7748571 C107.822605,26.5165714 107.823734,29.2582857 107.822605,32 L103.815589,32 C103.812203,26.2697143 103.820104,20.5382857 103.812203,14.808 C105.149756,14.7908571 106.487309,14.7977143 107.824863,14.8045714 C107.819219,15.7885714 107.824863,16.7725714 107.821477,17.7577143 C108.25604,16.6868571 108.902807,15.6468571 109.922056,15.0628571" id="Fill-11"></path>
                <path d="M80.7588774,14.8045714 C82.1065894,14.7988571 83.4554301,14.7851429 84.8031422,14.8114286 C84.7873398,20.5405714 84.8020134,26.2708571 84.7963697,32 L80.7611348,32 C80.7577486,26.2685714 80.7622636,20.5371429 80.7588774,14.8045714" id="Fill-12"></path>
                <path d="M0,20.9702857 C6.26449054,20.9725714 12.5289811,20.9691429 18.7934716,20.9725714 C18.7946004,27.3154286 18.7934716,33.6571429 18.7934716,40 L0,40 L0,20.9702857" id="Fill-16"></path>
                <path d="M20.7134533,20.9725714 C26.9768151,20.9702857 33.2413057,20.9714286 39.5057962,20.9714286 L39.5057962,40 L20.7123246,40 C20.7134533,33.6571429 20.7111959,27.3142857 20.7134533,20.9725714" id="Fill-17"></path>
            </g>
        </g>
    </g>
</svg>