<?xml version="1.0" encoding="UTF-8" standalone="no"?>
<svg width="190px" height="100px" viewBox="0 0 190 100" version="1.1" xmlns="http://www.w3.org/2000/svg" xmlns:xlink="http://www.w3.org/1999/xlink">
    <!-- Generator: Sketch 3.7.1 (28215) - http://www.bohemiancoding.com/sketch -->
    <title>Artboard 20</title>
    <desc>Created with Sketch.</desc>
    <defs></defs>
    <g id="WEB" stroke="none" stroke-width="1" fill="none" fill-rule="evenodd">
        <g id="Artboard-20" fill="#FFFFFF">
            <g id="Oracle-Logo" transform="translate(7.000000, 39.000000)">
                <polyline id="Fill-2" points="123 0 126.612 0 126.612 18.501 142.267 18.501 139.968 22.113 123 22.113 123 0"></polyline>
                <path d="M94.542,22.0922266 L81.187,1.01922662 C80.366,-0.348773383 78.176,-0.348773383 77.246,1.07422662 L64,22.0922266 L68.379,22.0922266 L72.374,15.7432266 L80.913,15.7432266 L83.157,12.1302266 L74.618,12.1302266 L79.271,4.85122662 L90.163,22.0922266 L94.542,22.0922266" id="Fill-3"></path>
                <path d="M102.119,0.01 C96.017,0.01 92,4.957 92,11.06 C92,17.162 96.017,22.11 102.119,22.11 L116.956,22.092 L119.279,18.51 L102.229,18.51 C98.114,18.51 95.709,15.174 95.709,11.06 C95.709,6.945 98.114,3.609 102.229,3.609 L117.419,3.609 L119.659,0 L102.119,0.01" id="Fill-4"></path>
                <path d="M10.119,3.599 L25.774,3.599 C29.889,3.599 32.294,6.935 32.294,11.05 C32.294,15.164 29.889,18.5 25.774,18.5 L10.119,18.5 C6.004,18.5 3.599,15.164 3.599,11.05 C3.599,6.935 6.004,3.599 10.119,3.599 L10.119,3.599 Z M10.119,0 C4.017,0 -5.68434189e-14,4.947 -5.68434189e-14,11.05 C-5.68434189e-14,17.152 4.017,22.1 10.119,22.1 L25.774,22.1 C31.876,22.1 35.893,17.152 35.893,11.05 C35.893,4.947 31.876,0 25.774,0 L10.119,0 L10.119,0 Z" id="Fill-5"></path>
                <path d="M145.88,12.811 C146.468,16.082 148.717,18.51 152.229,18.51 L169.279,18.51 L166.956,22.092 L152.119,22.11 C146.017,22.11 142,17.162 142,11.06 C142,4.957 146.017,0.01 152.119,0.01 L169.659,0 L167.418,3.609 L152.229,3.609 C148.766,3.609 146.506,5.997 145.88,9.199 L167.309,9.199 L165.01,12.811 L145.88,12.811" id="Fill-6"></path>
                <path d="M55.419,13.129 C59.041,13.129 61.979,10.191 61.979,6.568 C61.979,2.945 59.041,0.008 55.419,0.008 L37,0 L37,22.113 L41.05,22.113 L41.05,3.607 L55.419,3.607 C57.054,3.607 58.379,4.933 58.379,6.568 C58.379,8.204 57.054,9.529 55.419,9.529 L43.897,9.529 L56.894,22.088 L62.124,22.088 L52.819,13.137 L55.419,13.129" id="Fill-7"></path>
                <path d="M173.11,0.345 C174.049,0.345 174.791,1.087 174.791,2.071 C174.791,3.071 174.049,3.808 173.11,3.808 C172.159,3.808 171.417,3.071 171.417,2.071 C171.417,1.087 172.159,0.345 173.11,0.345 L173.11,0 C171.967,0 171,0.879 171,2.071 C171,3.275 171.967,4.154 173.11,4.154 C174.242,4.154 175.209,3.275 175.209,2.071 C175.209,0.879 174.242,0 173.11,0 L173.11,0.345" id="Fill-8"></path>
                <path d="M172.363,1.307 L172.858,1.307 C173.11,1.307 173.38,1.362 173.38,1.659 C173.38,2.027 173.105,2.049 172.797,2.049 L172.363,2.049 L172.363,2.357 L172.781,2.357 L173.413,3.396 L173.819,3.396 L173.138,2.341 C173.49,2.296 173.759,2.11 173.759,1.681 C173.759,1.208 173.479,1 172.912,1 L172,1 L172,3.396 L172.363,3.396 L172.363,1.307" id="Fill-9"></path>
            </g>
        </g>
    </g>
</svg>