<?xml version="1.0" encoding="UTF-8" standalone="no"?>
<svg width="190px" height="100px" viewBox="0 0 190 100" version="1.1" xmlns="http://www.w3.org/2000/svg" xmlns:xlink="http://www.w3.org/1999/xlink">
    <!-- Generator: Sketch 3.7.1 (28215) - http://www.bohemiancoding.com/sketch -->
    <title>Artboard 20</title>
    <desc>Created with Sketch.</desc>
    <defs>
        <polygon id="path-1" points="0.0682978723 0.296042965 0.0682978723 3.33360543 86.2863936 3.33360543 86.2863936 0.296042965 0.0682978723 0.296042965"></polygon>
        <polygon id="path-3" points="0.0682978723 0.351621912 0.0682978723 3.40255543 73.9757021 3.40255543 73.9757021 0.351621912 0.0682978723 0.351621912"></polygon>
    </defs>
    <g id="WEB" stroke="none" stroke-width="1" fill="none" fill-rule="evenodd">
        <g id="Artboard-20">
            <g id="ibm_logo" transform="translate(42.000000, 28.000000)">
                <polyline id="Fill-1" fill="#FFFFFF" points="106.700628 3.22925027 88.939766 3.22925027 90.0348085 0.17694522 106.700628 0.17694522 106.700628 3.22925027"></polyline>
                <path d="M59.3531277,0.17694522 L75.8436489,0.174676692 L76.9238936,3.23378733 C76.9318617,3.22925027 59.3588191,3.23719012 59.3588191,3.23378733 C59.3588191,3.22925027 59.3485745,0.17694522 59.3531277,0.17694522" id="Fill-2" fill="#FFFFFF"></path>
                <g id="Group-6" fill="#FFFFFF">
                    <path d="M46.2570106,0.17694522 C48.9741277,0.437825994 51.337234,1.40195059 53.3497447,3.23378733 C53.3497447,3.23378733 23.4591809,3.23605585 23.4591809,3.23378733 L23.4591809,0.175810956 L46.2570106,0.17694522" id="Fill-3"></path>
                    <polygon id="Fill-5" points="0.0682978723 3.228116 20.7682447 3.228116 20.7682447 0.17694522 0.0682978723 0.17694522"></polygon>
                </g>
                <path d="M106.700628,8.95388185 L86.9044894,8.95388185 C86.9044894,8.95388185 87.9835957,5.91859076 87.9779043,5.9174565 L106.700628,5.9174565 L106.700628,8.95388185" id="Fill-7" fill="#FFFFFF"></path>
                <polyline id="Fill-8" fill="#FFFFFF" points="78.9637234 8.95728464 59.3519894 8.95728464 59.3519894 5.91632223 77.8903085 5.91632223 78.9637234 8.95728464"></polyline>
                <g id="Group-12" transform="translate(0.000000, 5.671321)" fill="#FFFFFF">
                    <path d="M55.6775638,0.245001074 C56.0714149,1.24769066 56.538117,2.10406015 56.538117,3.28142642 L23.4648723,3.28142642 L23.4648723,0.245001074 L55.6775638,0.245001074" id="Fill-9"></path>
                    <polygon id="Fill-11" points="0.0682978723 3.28142642 20.7682447 3.28142642 20.7682447 0.245001074 0.0682978723 0.245001074"></polygon>
                </g>
                <polyline id="Fill-13" fill="#FFFFFF" points="84.8794574 14.6932589 85.9665319 11.6432223 100.830426 11.6477594 100.830426 14.6864533 84.8794574 14.6932589"></polyline>
                <polyline id="Fill-14" fill="#FFFFFF" points="79.917617 11.6420881 81.0001383 14.6932589 65.1994255 14.6932589 65.1994255 11.6420881 79.917617 11.6420881"></polyline>
                <path d="M56.7999255,11.6409538 C56.7999255,12.6878797 56.667883,13.7779076 56.3628191,14.6932589 L47.3076596,14.6932589 L47.3076596,11.6409538 L56.7999255,11.6409538" id="Fill-15" fill="#FFFFFF"></path>
                <polygon id="Fill-16" fill="#FFFFFF" points="5.79052128 14.6921246 14.7159149 14.6921246 14.7159149 11.6556992 5.79052128 11.6556992"></polygon>
                <polygon id="Fill-17" fill="#FFFFFF" points="29.4728085 14.6921246 38.382266 14.6921246 38.382266 11.6409538 29.4728085 11.6409538"></polygon>
                <path d="M73.9757021,17.9882965 C73.9757021,17.9882965 73.979117,20.2976584 73.9768404,20.3021955 L65.1994255,20.3021955 L65.1994255,17.2657701 L81.9267128,17.2657701 L82.9648404,20.0968937 C82.9693936,20.0980279 83.9665426,17.2589646 83.9688191,17.2657701 L100.824734,17.2657701 L100.824734,20.3021955 L92.0905745,20.3021955 C92.0905745,20.2976584 92.0860213,17.9882965 92.0860213,17.9882965 L91.2789681,20.3021955 L74.7827553,20.2976584 L73.9757021,17.9882965" id="Fill-18" fill="#FFFFFF"></path>
                <path d="M29.4728085,17.2657701 L55.0492234,17.2657701 L55.0492234,17.2635016 C54.4914574,18.2809366 53.4760957,19.5172846 52.5130957,20.3021955 C52.5130957,20.3021955 29.4716702,20.3067325 29.4716702,20.3021955 C29.4716702,20.2976584 29.4728085,17.2703072 29.4728085,17.2657701" id="Fill-19" fill="#FFFFFF"></path>
                <polygon id="Fill-20" fill="#FFFFFF" points="5.79052128 20.3021955 14.7159149 20.3021955 14.7159149 17.2646359 5.79052128 17.2646359"></polygon>
                <polygon id="Fill-21" fill="#FFFFFF" points="92.0905745 26.0279613 100.824734 26.0279613 100.824734 22.991536 92.0905745 22.991536"></polygon>
                <path d="M73.9757021,22.991536 L65.1994255,22.991536 L65.1994255,26.0268271 C65.1948723,26.0256928 73.979117,26.0290956 73.979117,26.0268271 C73.979117,26.0256928 73.9882234,22.991536 73.9757021,22.991536" id="Fill-22" fill="#FFFFFF"></path>
                <path d="M90.3273511,22.991536 C90.2863723,22.9858647 89.3040213,26.0256928 89.2630426,26.0268271 L76.8214468,26.0324984 C76.8123404,26.0279613 75.7275426,22.9858647 75.7264043,22.991536 L90.3273511,22.991536" id="Fill-23" fill="#FFFFFF"></path>
                <path d="M29.4705319,22.9904017 L52.4687021,22.9904017 C53.5182128,23.8626509 54.4675532,24.9367991 55.2097234,26.0268271 C55.2529787,26.0256928 29.4716702,26.0290956 29.4716702,26.0268271 C29.4716702,26.0256928 29.4705319,22.9926702 29.4705319,22.9904017" id="Fill-24" fill="#FFFFFF"></path>
                <path d="M14.7147766,26.0268271 L14.7147766,22.9904017 L5.80531915,22.9904017 C5.80531915,22.9904017 5.80759574,26.0256928 5.80531915,26.0256928 C5.80304255,26.0256928 14.7102234,26.0268271 14.7147766,26.0268271" id="Fill-25" fill="#FFFFFF"></path>
                <polygon id="Fill-26" fill="#FFFFFF" points="92.0905745 31.7537272 100.823596 31.7537272 100.823596 28.7161676 92.0905745 28.7161676"></polygon>
                <polygon id="Fill-27" fill="#FFFFFF" points="65.1994255 31.7525929 73.9757021 31.7525929 73.9757021 28.7161676 65.1994255 28.7161676"></polygon>
                <path d="M87.2197979,31.7684726 C87.2220745,31.7537272 88.2966277,28.7127648 88.3137021,28.7161676 L77.7377766,28.7161676 C77.7184255,28.713899 78.8214362,31.7537272 78.8214362,31.7537272 C78.8214362,31.7537272 87.2175213,31.7809495 87.2197979,31.7684726" id="Fill-28" fill="#FFFFFF"></path>
                <path d="M29.4716702,31.7525929 C29.4716702,31.7650698 29.4705319,28.7161676 29.4716702,28.7150333 L38.5143085,28.7150333 C38.5143085,28.7150333 38.5222766,31.7537272 38.5143085,31.7537272 C38.5063404,31.7537272 29.4716702,31.7491901 29.4716702,31.7525929" id="Fill-29" fill="#FFFFFF"></path>
                <path d="M56.4789255,28.7150333 C56.9160319,29.6303845 56.9615638,30.7204125 57.0480745,31.7673383 L47.4670213,31.7673383 L47.4670213,28.7150333 L56.4789255,28.7150333" id="Fill-30" fill="#FFFFFF"></path>
                <polygon id="Fill-31" fill="#FFFFFF" points="5.80531915 31.7514586 14.7147766 31.7514586 14.7147766 28.7150333 5.80531915 28.7150333"></polygon>
                <polygon id="Fill-32" fill="#FFFFFF" points="92.0905745 37.3626638 106.699489 37.3626638 106.699489 34.3239699 92.0905745 34.3239699"></polygon>
                <polygon id="Fill-33" fill="#FFFFFF" points="59.3519894 37.3626638 73.9757021 37.3626638 73.9757021 34.3239699 59.3519894 34.3239699"></polygon>
                <g id="Group-37" transform="translate(0.000000, 34.027927)">
                    <mask id="mask-2" fill="white">
                        <use xlink:href="#path-1"></use>
                    </mask>
                    <g id="Clip-35"></g>
                    <polyline id="Fill-34" fill="#FFFFFF" mask="url(#mask-2)" points="85.2539574 3.33360258 80.7941064 3.33360258 79.7229681 0.296042965 86.2863936 0.296042965 85.2539574 3.33360258"></polyline>
                    <path d="M0.00113829787,0.296042965 L0.00113829787,3.33360258 L20.7523085,3.33360258 C20.7614149,3.33700537 20.7432021,0.298311493 20.7523085,0.298311493 C20.7614149,0.298311493 -0.0227659574,0.296042965 0.00113829787,0.296042965" id="Fill-36" fill="#FFFFFF" mask="url(#mask-2)"></path>
                </g>
                <path d="M56.667883,34.3239699 C56.4493298,35.3255252 56.2501277,36.5471278 55.5147872,37.3615295 L55.2404574,37.3615295 L23.463734,37.3615295 L23.463734,34.3239699 L56.667883,34.3239699" id="Fill-38" fill="#FFFFFF"></path>
                <polyline id="Fill-39" fill="#FFFFFF" points="83.2323404 43.094101 82.8225532 43.094101 81.7798723 40.05087 84.3034787 40.05087 83.2323404 43.094101"></polyline>
                <polygon id="Fill-40" fill="#FFFFFF" points="92.0905745 43.1009066 106.699489 43.1009066 106.699489 40.05087 92.0905745 40.05087"></polygon>
                <path d="M23.4591809,43.094101 L23.4591809,40.0542728 C23.4591809,40.0542728 53.4385319,40.0576756 53.5250426,40.0576756 C51.5125319,41.9768507 48.7510213,43.0589388 45.7766489,43.1009066 L23.463734,43.094101" id="Fill-41" fill="#FFFFFF"></path>
                <g id="Group-45" transform="translate(0.000000, 39.699248)">
                    <mask id="mask-4" fill="white">
                        <use xlink:href="#path-3"></use>
                    </mask>
                    <g id="Clip-43"></g>
                    <polygon id="Fill-42" fill="#FFFFFF" mask="url(#mask-4)" points="59.3519894 3.40165843 73.9757021 3.40165843 73.9757021 0.351621912 59.3519894 0.351621912"></polygon>
                    <path d="M20.7523085,0.364098818 C20.7523085,0.364098818 20.7432021,3.39485285 20.7523085,3.39485285 C20.7614149,3.39485285 0.00682978723,3.40732975 0.00113829787,3.40052417 C-0.00341489362,3.39485285 0.00682978723,0.355024705 0.00113829787,0.355024705 C-0.00341489362,0.355024705 20.7432021,0.373172932 20.7523085,0.364098818" id="Fill-44" fill="#FFFFFF" mask="url(#mask-4)"></path>
                </g>
            </g>
        </g>
    </g>
</svg>