<?xml version="1.0" encoding="UTF-8" standalone="no"?>
<svg width="190px" height="100px" viewBox="0 0 190 100" version="1.1" xmlns="http://www.w3.org/2000/svg" xmlns:xlink="http://www.w3.org/1999/xlink">
    <!-- Generator: Sketch 3.7.1 (28215) - http://www.bohemiancoding.com/sketch -->
    <title>Artboard 20</title>
    <desc>Created with Sketch.</desc>
    <defs></defs>
    <g id="WEB" stroke="none" stroke-width="1" fill="none" fill-rule="evenodd">
        <g id="Artboard-20" fill="#FFFFFF">
            <g id="Adobe-2" transform="translate(16.000000, 31.000000)">
                <path d="M61.7180508,27.5856977 L59.5621186,37.7066512 L54.6034746,37.7066512 L62.7960169,1.03032558 L68.6700339,1.03032558 L76.3774915,37.7066512 L71.3649492,37.7066512 L69.2629153,27.5856977 L61.7180508,27.5856977 L61.7180508,27.5856977 Z M68.6700339,23.5043023 L66.9991864,14.742907 C66.5141017,12.2396512 66.0290169,8.97544186 65.6526271,6.36334884 L65.4361356,6.36334884 C65.0597458,9.02986047 64.5198644,12.402907 64.035678,14.742907 L62.3109322,23.5043023 L68.6700339,23.5043023 L68.6700339,23.5043023 Z" id="Fill-2"></path>
                <path d="M95.3047797,0.0507906977 L95.3047797,30.9043256 C95.3047797,32.917814 95.4125763,35.8564186 95.5203729,37.7066512 L91.1546102,37.7066512 L90.8312203,34.4959535 L90.6695254,34.4959535 C89.8071525,36.346186 87.8129153,38.142 85.1727966,38.142 C80.3219492,38.142 77.3575424,32.8089767 77.3575424,24.5926744 C77.3575424,15.2326744 81.2921186,10.8247674 85.4422881,10.8247674 C87.5434237,10.8247674 89.2142712,11.8052093 90.1305424,13.8177907 L90.238339,13.8177907 L90.238339,0.0507906977 L95.3047797,0.0507906977 L95.3047797,0.0507906977 Z M90.238339,21.3275581 C90.238339,20.8377907 90.238339,20.239186 90.1844407,19.695 C89.9149492,17.3005814 88.5674915,15.2326744 86.7358475,15.2326744 C83.5549492,15.2326744 82.4778814,19.695 82.4778814,24.5926744 C82.4778814,30.0345349 83.878339,33.8429302 86.5732542,33.8429302 C87.7051186,33.8429302 89.2142712,33.2443256 90.0766441,30.0880465 C90.1844407,29.6526977 90.238339,28.9996744 90.238339,28.4019767 L90.238339,21.3275581 L90.238339,21.3275581 Z" id="Fill-3"></path>
                <path d="M107.37261,38.142 C102.144475,38.142 98.3715932,33.6252558 98.3715932,24.5382558 C98.3715932,14.9061628 102.845153,10.8247674 107.642102,10.8247674 C112.815441,10.8247674 116.534424,15.5047674 116.534424,24.4294186 C116.534424,34.9313023 111.414085,38.142 107.426508,38.142 L107.37261,38.142 L107.37261,38.142 Z M107.534305,34.1150233 C110.659508,34.1150233 111.360186,28.510814 111.360186,24.4838372 C111.360186,20.5112791 110.659508,14.8517442 107.426508,14.8517442 C104.084814,14.8517442 103.438034,20.5112791 103.438034,24.4838372 C103.438034,28.8917442 104.19261,34.1150233 107.480407,34.1150233 L107.534305,34.1150233 L107.534305,34.1150233 Z" id="Fill-4"></path>
                <path d="M119.587763,0.0507906977 L124.653305,0.0507906977 L124.653305,14.2531395 L124.761102,14.2531395 C126.108559,11.8596279 127.941102,10.8247674 130.258729,10.8247674 C134.732288,10.8247674 137.535,15.9401163 137.535,24.0484884 C137.535,33.5164186 133.70822,38.142 129.396356,38.142 C126.809237,38.142 125.353983,36.7271163 124.222119,34.3871163 L124.007424,34.3871163 L123.737932,37.7066512 L119.372169,37.7066512 C119.479966,35.9108372 119.587763,32.917814 119.587763,30.9043256 L119.587763,0.0507906977 L119.587763,0.0507906977 Z M124.653305,28.3466512 C124.653305,28.9461628 124.707203,29.5447674 124.868898,29.9801163 C125.677373,33.189907 127.240424,33.8429302 128.264492,33.8429302 C131.282797,33.8429302 132.414661,29.8159535 132.414661,24.375 C132.414661,19.3140698 131.228898,15.2326744 128.210593,15.2326744 C126.539746,15.2326744 125.192288,17.2461628 124.815,19.150814 C124.707203,19.695 124.653305,20.4024419 124.653305,20.9466279 L124.653305,28.3466512 L124.653305,28.3466512 Z" id="Fill-5"></path>
                <path d="M145.010695,25.5177907 C145.064593,32.3192093 147.974203,34.006186 151.046407,34.006186 C152.878949,34.006186 154.442,33.5708372 155.573864,33.0266512 L156.328441,36.7271163 C154.76539,37.5433953 152.393864,37.9787442 150.076237,37.9787442 C143.501542,37.9787442 140.052051,32.9722326 140.052051,24.8103488 C140.052051,16.1577907 143.985729,10.8247674 149.429458,10.8247674 C154.873186,10.8247674 157.406407,16.1033721 157.406407,22.7424419 C157.406407,24.0484884 157.352508,24.8647674 157.29861,25.5713023 L145.010695,25.5177907 L145.010695,25.5177907 Z M152.609458,21.8717442 C152.663356,17.1917442 151.046407,14.6884884 149.053068,14.6884884 C146.411153,14.6884884 145.226288,18.5522093 145.064593,21.8717442 L152.609458,21.8717442 L152.609458,21.8717442 Z" id="Fill-6"></path>
                <polyline id="Fill-7" points="26.0517458 1.12737209 41.1854915 1.12737209 41.1854915 37.7066512 26.0517458 1.12737209"></polyline>
                <polyline id="Fill-8" points="15.390661 1.12737209 0.246135593 1.12737209 0.246135593 37.7066512 15.390661 1.12737209"></polyline>
                <polyline id="Fill-9" points="20.7221017 14.6077674 30.3645085 37.7066512 24.0458305 37.7066512 21.1622712 30.3492558 14.1042881 30.3492558 20.7221017 14.6077674"></polyline>
                <path d="M156.977017,10.7567442 C157.613915,10.7567442 158.121458,11.2791628 158.121458,11.933093 C158.121458,12.597 157.613915,13.1148837 156.971627,13.1148837 C156.334729,13.1148837 155.816407,12.597 155.816407,11.933093 C155.816407,11.2791628 156.334729,10.7567442 156.971627,10.7567442 L156.977017,10.7567442 L156.977017,10.7567442 Z M156.971627,10.9390465 C156.458695,10.9390465 156.039186,11.3843721 156.039186,11.933093 C156.039186,12.4926977 156.458695,12.9325814 156.977017,12.9325814 C157.494441,12.9371163 157.908559,12.4926977 157.908559,11.9385349 C157.908559,11.3843721 157.494441,10.9390465 156.977017,10.9390465 L156.971627,10.9390465 L156.971627,10.9390465 Z M156.754237,12.6187674 L156.546729,12.6187674 L156.546729,11.3054651 C156.655424,11.2900465 156.759627,11.2737209 156.915034,11.2737209 C157.111763,11.2737209 157.241119,11.3163488 157.318373,11.3734884 C157.396525,11.4306279 157.437847,11.5195116 157.437847,11.6455814 C157.437847,11.817907 157.323763,11.9231163 157.183627,11.9648372 L157.183627,11.974814 C157.297712,11.9956744 157.375864,12.1008837 157.401017,12.2940698 C157.432458,12.4981395 157.463898,12.5761395 157.484559,12.6187674 L157.267169,12.6187674 C157.235729,12.5761395 157.204288,12.4564186 157.179136,12.284093 C157.147695,12.1163023 157.065051,12.0537209 156.898864,12.0537209 L156.754237,12.0537209 L156.754237,12.6187674 L156.754237,12.6187674 Z M156.754237,11.8913721 L156.904254,11.8913721 C157.074932,11.8913721 157.220458,11.8287907 157.220458,11.6664419 C157.220458,11.5512558 157.136915,11.4360698 156.904254,11.4360698 C156.836881,11.4360698 156.790169,11.4415116 156.754237,11.4469535 L156.754237,11.8913721 L156.754237,11.8913721 Z" id="Fill-10"></path>
                <path d="M43.1806271,1.12737209 C43.8175254,1.12737209 44.3250678,1.6497907 44.3250678,2.30372093 C44.3250678,2.96762791 43.8175254,3.48551163 43.1752373,3.48551163 C42.538339,3.48551163 42.0200169,2.96762791 42.0200169,2.30372093 C42.0200169,1.6497907 42.538339,1.12737209 43.1752373,1.12737209 L43.1806271,1.12737209 L43.1806271,1.12737209 Z M43.1752373,1.30967442 C42.6623051,1.30967442 42.2427966,1.755 42.2427966,2.30372093 C42.2427966,2.86332558 42.6623051,3.30230233 43.1806271,3.30230233 C43.6980508,3.30774419 44.1130678,2.86332558 44.1130678,2.30916279 C44.1130678,1.755 43.6980508,1.30967442 43.1806271,1.30967442 L43.1752373,1.30967442 L43.1752373,1.30967442 Z M42.9578475,2.98939535 L42.750339,2.98939535 L42.750339,1.67609302 C42.8590339,1.66067442 42.9632373,1.64525581 43.1186441,1.64525581 C43.3153729,1.64525581 43.4447288,1.68606977 43.5219831,1.74411628 C43.6001356,1.80125581 43.6414576,1.89104651 43.6414576,2.0162093 C43.6414576,2.18853488 43.5273729,2.29374419 43.3872373,2.33546512 L43.3872373,2.34544186 C43.501322,2.36630233 43.5794746,2.47151163 43.6055254,2.66469767 C43.6360678,2.86876744 43.6675085,2.94676744 43.6881695,2.98939535 L43.4707797,2.98939535 C43.439339,2.94676744 43.4078983,2.82704651 43.3827458,2.65472093 C43.3513051,2.48693023 43.268661,2.42434884 43.1024746,2.42434884 L42.9578475,2.42434884 L42.9578475,2.98939535 L42.9578475,2.98939535 Z M42.9578475,2.262 L43.1078644,2.262 C43.2785424,2.262 43.4240678,2.1994186 43.4240678,2.03706977 C43.4240678,1.92188372 43.3414237,1.80669767 43.1078644,1.80669767 C43.0404915,1.80669767 42.9937797,1.81213953 42.9578475,1.8175814 L42.9578475,2.262 L42.9578475,2.262 Z" id="Fill-11"></path>
            </g>
        </g>
    </g>
</svg>