<svg id="Layer_1" data-name="Layer 1" xmlns="http://www.w3.org/2000/svg" xmlns:xlink="http://www.w3.org/1999/xlink" viewBox="0 0 240 240"><defs><style>.cls-1{fill:url(#radial-gradient);}.cls-2{fill:#f2f2f2;}.cls-2,.cls-7{stroke:#e6e6e6;}.cls-2,.cls-5,.cls-7{stroke-miterlimit:10;}.cls-3{fill:#ccc;}.cls-4{fill:url(#radial-gradient-2);}.cls-5{fill:none;stroke:#fff;stroke-width:2px;}.cls-6,.cls-7{fill:#fff;}.cls-8{fill:#0071bc;}</style><radialGradient id="radial-gradient" cx="120" cy="120" r="70.77" gradientUnits="userSpaceOnUse"><stop offset="0" stop-color="#63e0f4"/><stop offset="0.14" stop-color="#5ad7f0"/><stop offset="0.37" stop-color="#40bee5"/><stop offset="0.61" stop-color="#1e9cd7"/><stop offset="0.87" stop-color="#0075be"/><stop offset="0.99" stop-color="#29abe2"/></radialGradient><radialGradient id="radial-gradient-2" cx="120" cy="120" r="59.6" gradientUnits="userSpaceOnUse"><stop offset="0" stop-color="#63e0f4"/><stop offset="0.14" stop-color="#5ad7f0"/><stop offset="0.37" stop-color="#40bee5"/><stop offset="0.61" stop-color="#1e9cd7"/><stop offset="0.87" stop-color="#0075be"/><stop offset="0.99" stop-color="#005b97"/></radialGradient></defs><title>Money back-d</title><path class="cls-1" d="M190.89,120c0,1.92-4.07,3.65-4.23,5.53s3.58,4.28,3.27,6.14-4.61,2.93-5.08,4.76,2.82,4.81,2.21,6.6-5,2.12-5.79,3.85,2,5.21,1.08,6.87S177,155,176,156.59s1.1,5.46-.06,7-5.45.36-6.73,1.76,0.2,5.57-1.2,6.85-5.43-.53-6.93.63-0.72,5.52-2.31,6.56-5.27-1.42-6.94-.51-1.61,5.33-3.36,6.09-5-2.27-6.76-1.65-2.47,5-4.32,5.45S132.9,185.68,131,186s-3.26,4.51-5.16,4.66-3.94-3.76-5.85-3.76-4,3.92-5.85,3.76-3.3-4.36-5.16-4.66-4.56,3.21-6.39,2.75-2.53-4.84-4.32-5.45-5,2.41-6.76,1.65-1.69-5.19-3.36-6.09-5.35,1.55-6.94.51-0.81-5.4-2.31-6.56-5.53.65-6.93-.63,0.09-5.46-1.2-6.85-5.56-.26-6.73-1.76,1-5.37-.06-7-5.44-1.17-6.35-2.84,1.85-5.13,1.08-6.87-5.18-2-5.79-3.85,2.68-4.75,2.21-6.6-4.76-2.87-5.08-4.76,3.42-4.23,3.27-6.14-4.22-3.61-4.22-5.53,4.07-3.65,4.23-5.53-3.58-4.28-3.27-6.14,4.61-2.93,5.08-4.76-2.82-4.81-2.21-6.6,5-2.12,5.79-3.85-2-5.21-1.08-6.87S63,85,64,83.41s-1.1-5.46.06-7,5.45-.36,6.73-1.76-0.2-5.57,1.2-6.85,5.43,0.53,6.93-.63,0.72-5.52,2.31-6.56,5.27,1.42,6.94.51,1.61-5.33,3.36-6.09,5,2.27,6.76,1.65,2.47-5,4.32-5.45S107.1,54.32,109,54s3.26-4.51,5.16-4.66,3.94,3.76,5.85,3.76,4-3.92,5.85-3.76S129.16,53.7,131,54s4.56-3.21,6.39-2.75,2.53,4.84,4.32,5.45,5-2.41,6.76-1.65,1.69,5.19,3.36,6.09,5.35-1.55,6.94-.51,0.81,5.4,2.31,6.56,5.53-.65,6.93.63-0.09,5.46,1.2,6.85,5.56,0.26,6.73,1.76-1,5.37.06,7,5.44,1.17,6.35,2.84-1.85,5.13-1.08,6.87,5.18,2,5.79,3.85-2.68,4.75-2.21,6.6,4.76,2.87,5.08,4.76-3.42,4.23-3.27,6.14S190.89,118.08,190.89,120Z"/><polygon class="cls-2" points="92.48 174.77 35.52 174.77 45.52 162.4 35.52 150.03 92.48 150.03 92.48 174.77"/><polygon class="cls-2" points="147.52 174.77 204.48 174.77 194.48 162.4 204.48 150.03 147.52 150.03 147.52 174.77"/><polygon class="cls-3" points="92.48 174.77 53.37 159.19 53.37 134.45 92.48 150.03 92.48 174.77"/><polygon class="cls-3" points="147.52 174.77 186.63 159.19 186.63 134.45 147.52 150.03 147.52 174.77"/><circle class="cls-4" cx="120" cy="120" r="59.6"/><circle class="cls-5" cx="120" cy="120" r="56.58"/><circle class="cls-5" cx="120" cy="120" r="37.76"/><path class="cls-6" d="M102,99.7v25.92H95.54v-13.9a24.4,24.4,0,0,0-.14-3.62,1.35,1.35,0,0,0-.79-0.92,8.23,8.23,0,0,0-2.89-.31H91.07v-3A11.76,11.76,0,0,0,98.2,99.7H102Z"/><path class="cls-6" d="M119.78,108.48v8.65a20.47,20.47,0,0,1-.32,4.29,5.93,5.93,0,0,1-1.33,2.51,5.73,5.73,0,0,1-2.43,1.68,9.36,9.36,0,0,1-3.19.51,11.86,11.86,0,0,1-3.86-.54,5.29,5.29,0,0,1-2.45-1.67,7.16,7.16,0,0,1-1.3-2.39,14.93,14.93,0,0,1-.38-4v-9a17.39,17.39,0,0,1,.62-5.35,5.28,5.28,0,0,1,2.45-2.85A8.66,8.66,0,0,1,112,99.21a9.32,9.32,0,0,1,3.81.74,6.36,6.36,0,0,1,2.51,1.82,6,6,0,0,1,1.13,2.42A22.06,22.06,0,0,1,119.78,108.48Zm-6.47-2.18a9.69,9.69,0,0,0-.2-2.59,0.89,0.89,0,0,0-.94-0.52,0.93,0.93,0,0,0-1,.55,8.41,8.41,0,0,0-.23,2.55v12.65a9.39,9.39,0,0,0,.22,2.72,0.92,0.92,0,0,0,.94.46,0.91,0.91,0,0,0,.94-0.54,8.12,8.12,0,0,0,.22-2.45V106.3Z"/><path class="cls-6" d="M137.36,108.48v8.65a20.47,20.47,0,0,1-.32,4.29,5.93,5.93,0,0,1-1.33,2.51,5.73,5.73,0,0,1-2.43,1.68,9.36,9.36,0,0,1-3.19.51,11.86,11.86,0,0,1-3.86-.54,5.29,5.29,0,0,1-2.45-1.67,7.16,7.16,0,0,1-1.3-2.39,14.93,14.93,0,0,1-.38-4v-9a17.39,17.39,0,0,1,.62-5.35,5.28,5.28,0,0,1,2.45-2.85,8.66,8.66,0,0,1,4.44-1.07,9.32,9.32,0,0,1,3.81.74,6.36,6.36,0,0,1,2.51,1.82,6,6,0,0,1,1.13,2.42A22.06,22.06,0,0,1,137.36,108.48Zm-6.47-2.18a9.69,9.69,0,0,0-.2-2.59,0.89,0.89,0,0,0-.94-0.52,0.93,0.93,0,0,0-1,.55,8.41,8.41,0,0,0-.23,2.55v12.65a9.39,9.39,0,0,0,.22,2.72,0.92,0.92,0,0,0,.94.46,0.91,0.91,0,0,0,.94-0.54,8.12,8.12,0,0,0,.22-2.45V106.3Z"/><path class="cls-6" d="M145.06,111.75v2.87a5.08,5.08,0,0,1-.21,1.69,2,2,0,0,1-.91,1,3.56,3.56,0,0,1-1.84.42,4.11,4.11,0,0,1-2-.4,2.1,2.1,0,0,1-.93-1,4.15,4.15,0,0,1-.24-1.6v-3a5,5,0,0,1,.25-1.83,2,2,0,0,1,1-1,4.58,4.58,0,0,1,3.7,0,2.13,2.13,0,0,1,1,1A4.78,4.78,0,0,1,145.06,111.75Zm-2.64-.73a2.81,2.81,0,0,0-.07-0.82A0.36,0.36,0,0,0,142,110a0.36,0.36,0,0,0-.36.17,2.32,2.32,0,0,0-.08.81v4.21a2.85,2.85,0,0,0,.07.87,0.39,0.39,0,0,0,.38.14,0.34,0.34,0,0,0,.35-0.17,2.32,2.32,0,0,0,.08-0.77V111Zm7.51-2.44-6.54,17.36h-1.59l6.56-17.36h1.57Zm2.89,11.25v2.88a5.09,5.09,0,0,1-.21,1.68,2,2,0,0,1-.91,1,3.56,3.56,0,0,1-1.84.42,4.07,4.07,0,0,1-2-.4,2.13,2.13,0,0,1-.94-1,4.11,4.11,0,0,1-.24-1.59v-3a4.93,4.93,0,0,1,.25-1.82,2,2,0,0,1,1-1,3.83,3.83,0,0,1,1.79-.38,3.9,3.9,0,0,1,1.92.41,2.12,2.12,0,0,1,1,1A4.84,4.84,0,0,1,152.82,119.83Zm-2.64-.72a2.87,2.87,0,0,0-.07-0.82,0.48,0.48,0,0,0-.72,0,2.54,2.54,0,0,0-.08.82v4.21a2.78,2.78,0,0,0,.07.86,0.38,0.38,0,0,0,.37.14,0.34,0.34,0,0,0,.35-0.16,2.49,2.49,0,0,0,.07-0.78v-4.28Z"/><path class="cls-6" d="M67.52,112.86l10.8,0.58-0.13,2.45-7.29-.39,7.24,1.37L78,118.62l-7.18.65L78,119.66l-0.13,2.45-10.8-.58,0.2-3.63q1-.11,2.31-0.21l2.77-.25-5-.92Z"/><path class="cls-6" d="M76,104.79q1.57,0.42,2.21.67a2.58,2.58,0,0,1,1.62,2.06,4,4,0,0,1-.12,1.63,4.07,4.07,0,0,1-.68,1.43,2.6,2.6,0,0,1-2.44,1,23,23,0,0,1-2.28-.53l-1.79-.48q-1.57-.42-2.21-0.67a2.58,2.58,0,0,1-1.62-2.06,4,4,0,0,1,.13-1.63,4,4,0,0,1,.68-1.43,2.6,2.6,0,0,1,2.43-1,23,23,0,0,1,2.28.53Zm-4.16,1.79a3.38,3.38,0,0,0-1-.17,0.33,0.33,0,0,0-.29.28,0.39,0.39,0,0,0,.08.37,2.44,2.44,0,0,0,.94.37l4.88,1.31a5,5,0,0,0,1.14.23,0.34,0.34,0,0,0,.31-0.29,0.35,0.35,0,0,0-.15-0.42,5.29,5.29,0,0,0-1.15-.39Z"/><path class="cls-6" d="M73.73,94.39L83.48,99l-1.06,2.22-5.07-.8,4.44,2.12-1,2.12L71,100.06l1-2.12,5.07,0.67-4.39-2.1Z"/><path class="cls-6" d="M75.41,91.64l2.68-3.84L79.87,89l-1.07,1.54,1.68,1.17,1-1.44,1.69,1.18-1,1.44,1.95,1.36,1.18-1.69,1.77,1.24-2.79,4Z"/><path class="cls-6" d="M84.09,81.16l3.58,6.25,2.83,2.7L88.69,92l-2.83-2.7L79.51,86l1.78-1.87q2.71,1.75,3.55,2.45Q83.75,85.18,82.3,83Z"/><path class="cls-6" d="M91.78,81.95l1.17,1.45-2.77,2.22L89,84.17Z"/><path class="cls-6" d="M90.56,76.06L93,74.64a7.42,7.42,0,0,1,1.84-.84A2,2,0,0,1,96.2,74a3.77,3.77,0,0,1,1.39,1.54A2.19,2.19,0,0,1,98,76.8a2.07,2.07,0,0,1-.72,1.09,2.08,2.08,0,0,1,1.51,0A2.82,2.82,0,0,1,99.89,79l0.51,0.87a4,4,0,0,1,.6,1.53,1.35,1.35,0,0,1-.32,1,8.18,8.18,0,0,1-1.84,1.3L96,85.39Zm3.36,0.18,1.22,2.07,0.24-.15a0.56,0.56,0,0,0,.35-0.44,3.32,3.32,0,0,0-.49-1.06,1.9,1.9,0,0,0-.44-0.57,0.45,0.45,0,0,0-.34-0.1A2.18,2.18,0,0,0,93.92,76.24ZM96,79.76l1.53,2.61a1.2,1.2,0,0,0,.56-0.54A1.31,1.31,0,0,0,97.81,81l-0.51-.87a1.43,1.43,0,0,0-.55-0.65A1.32,1.32,0,0,0,96,79.76Z"/><path class="cls-6" d="M103.68,69.75l5.24,9.6-2.7,1-0.81-1.77-0.94.35L105,80.79l-2.73,1L99.87,71.15Zm1,7q-0.83-1.65-2-4.12,0.67,3.06,1.06,4.45Z"/><path class="cls-6" d="M115.08,72l-2.77.48L112,70.67a3.44,3.44,0,0,0-.26-1,0.39,0.39,0,0,0-.43-0.13,0.42,0.42,0,0,0-.39.32,3.76,3.76,0,0,0,.09,1.07l0.86,4.95a3.51,3.51,0,0,0,.27,1,0.4,0.4,0,0,0,.46.16,0.39,0.39,0,0,0,.36-0.31,3.91,3.91,0,0,0-.1-1.13l-0.23-1.34,2.77-.48,0.07,0.42a8.33,8.33,0,0,1,.17,2.39A2.44,2.44,0,0,1,114.8,78a3.59,3.59,0,0,1-1.88.86,4.15,4.15,0,0,1-2.08-.09,2.17,2.17,0,0,1-1.26-1,8.14,8.14,0,0,1-.66-2.3l-0.54-3.11a13.91,13.91,0,0,1-.22-1.74,2.44,2.44,0,0,1,.28-1.19,2.66,2.66,0,0,1,.94-1,4.52,4.52,0,0,1,3.65-.46,2.3,2.3,0,0,1,1.25,1A7.17,7.17,0,0,1,114.9,71Z"/><path class="cls-6" d="M124.19,67.24l-1.67,4.86,1.7,6-2.91,0-1.08-4.65L120.17,78l-2.81,0,0.13-10.81,2.81,0,0,4.2,1.3-4.19Z"/><path class="cls-6" d="M135.86,73.71L133.15,73,133.4,72a4.84,4.84,0,0,0,.22-1.14,0.42,0.42,0,0,0-.7-0.22,3.28,3.28,0,0,0-.36,1l-1.35,5a3.11,3.11,0,0,0-.16,1,0.36,0.36,0,0,0,.3.32,0.41,0.41,0,0,0,.47-0.14,3.05,3.05,0,0,0,.37-1l0.33-1.24L132,75.44l0.43-1.59,3.18,0.86-1.51,5.6-1.71-.46,0-.82a2,2,0,0,1-.9.54,2.05,2.05,0,0,1-1.06,0,2.69,2.69,0,0,1-1.19-.68,2.54,2.54,0,0,1-.69-1.07,2.71,2.71,0,0,1-.11-1.13,12.89,12.89,0,0,1,.36-1.64l0.84-3.1a10.69,10.69,0,0,1,.75-2.13,2.3,2.3,0,0,1,1.26-1,3.37,3.37,0,0,1,2.13,0,3.81,3.81,0,0,1,1.85,1,2.39,2.39,0,0,1,.71,1.44,6.39,6.39,0,0,1-.29,2Z"/><path class="cls-6" d="M145.79,73.8l-3.13,6.51a12.57,12.57,0,0,1-.82,1.52,2.35,2.35,0,0,1-.87.72,2.46,2.46,0,0,1-1.28.27,3.92,3.92,0,0,1-1.49-.41,4.3,4.3,0,0,1-1.4-1,2.58,2.58,0,0,1-.64-1.23,2.32,2.32,0,0,1,.08-1.17q0.19-.54,1-2.19L140,71l2.53,1.22L139,79.54a3.17,3.17,0,0,0-.32.85,0.3,0.3,0,0,0,.19.31,0.32,0.32,0,0,0,.4,0,4.06,4.06,0,0,0,.51-0.89l3.45-7.18Z"/><path class="cls-6" d="M152.57,78.37l-5,9.7-2.33-1.69,1-1.66-0.81-.59-1.28,1.47-2.35-1.71L149.28,76Zm-5.29,4.75q0.91-1.61,2.32-3.93-2.17,2.26-3.1,3.36Z"/><path class="cls-6" d="M155.84,81.09l1.38,1.43a15.13,15.13,0,0,1,1.76,2,1.86,1.86,0,0,1,.23,1.37,3.55,3.55,0,0,1-1.14,1.72,3.14,3.14,0,0,1-1.44,1,1.65,1.65,0,0,1-1.23-.53,2.12,2.12,0,0,1,.38,1.19,1.67,1.67,0,0,1-.21.7,10,10,0,0,1-1.1,1.16l-2.05,2-1.81-1.88,2.59-2.49a2.46,2.46,0,0,0,.68-0.84,0.85,0.85,0,0,0-.35-0.66L150,90.61l-2-2Zm0.62,3.31-1.73,1.67a1.24,1.24,0,0,0,.55.39A1.14,1.14,0,0,0,156,86l0.43-.41a0.9,0.9,0,0,0,.36-0.6A1,1,0,0,0,156.46,84.4Z"/><path class="cls-6" d="M164.93,92.19l-8.08,7.36-1.6-2.39L156.78,96l-0.56-.83-1.71.94-1.62-2.41,9.78-4.83Zm-6.6,2.64q1.41-1.2,3.53-2.89Q159,93.32,157.79,94Z"/><path class="cls-6" d="M169.6,101.61L159.71,106l-1-2.26,3.91-3.32-4.5,2-0.95-2.15,9.9-4.36L168,98l-3.82,3.4,4.45-2Z"/><path class="cls-6" d="M172,110.22l-2.1.52-0.4-1.62-8.39,2.1-0.68-2.73,8.39-2.1-0.4-1.61,2.1-.52Z"/><path class="cls-6" d="M172.38,112.81l0.44,4.67-2.16.2-0.17-1.87-2,.19,0.16,1.75-2,.19-0.16-1.75-2.37.22,0.19,2.05-2.15.2-0.45-4.85Z"/><path class="cls-6" d="M172.86,120.35L172.62,125l-2.16-.11,0.09-1.87-2-.1-0.09,1.75-2.05-.1,0.09-1.75-2.37-.12L164,124.78l-2.16-.11,0.25-4.87Z"/><rect class="cls-7" x="53.37" y="134.45" width="133.26" height="24.74"/><path class="cls-8" d="M70,141.89v9.49H67.85V145L67,151.38H65.46l-0.91-6.26v6.26H62.4v-9.49h3.19q0.14,0.86.29,2l0.35,2.41,0.57-4.43H70Z"/><path class="cls-8" d="M76.64,147.45q0,1.43-.07,2a2.27,2.27,0,0,1-1.38,1.84,3.49,3.49,0,0,1-1.41.26,3.57,3.57,0,0,1-1.37-.25A2.28,2.28,0,0,1,71,149.5a20,20,0,0,1-.07-2.05v-1.62q0-1.43.07-2A2.27,2.27,0,0,1,72.38,142a3.49,3.49,0,0,1,1.41-.26,3.57,3.57,0,0,1,1.37.25,2.28,2.28,0,0,1,1.42,1.83,20,20,0,0,1,.07,2.05v1.62Zm-2.47-3.12a2.94,2.94,0,0,0-.07-0.85,0.29,0.29,0,0,0-.3-0.18,0.34,0.34,0,0,0-.3.15,2.12,2.12,0,0,0-.1.88v4.43a4.36,4.36,0,0,0,.07,1,0.29,0.29,0,0,0,.31.19,0.3,0.3,0,0,0,.32-0.22,4.69,4.69,0,0,0,.07-1.06v-4.36Z"/><path class="cls-8" d="M83.07,141.89v9.49H80.9l-1.28-4.31v4.31H77.56v-9.49h2.06L81,146.16v-4.27h2.06Z"/><path class="cls-8" d="M84.06,141.89h4.11v1.9H86.52v1.8h1.54v1.8H86.52v2.09h1.81v1.9H84.06v-9.49Z"/><path class="cls-8" d="M94.3,141.89l-1.8,6.05v3.43H90.21v-3.43l-1.73-6.05h2.27q0.53,2.78.6,3.74,0.21-1.52.69-3.74H94.3Z"/><path class="cls-8" d="M96.83,141.89H99.3a6.49,6.49,0,0,1,1.77.18,1.75,1.75,0,0,1,1,.73,3.3,3.3,0,0,1,.37,1.78,1.92,1.92,0,0,1-.26,1.16,1.82,1.82,0,0,1-1,.5,1.82,1.82,0,0,1,1.16.64,2.47,2.47,0,0,1,.3,1.37v0.88a3.49,3.49,0,0,1-.22,1.42,1.18,1.18,0,0,1-.7.63,7.19,7.19,0,0,1-2,.17H96.83v-9.49Zm2.47,1.62v2.11h0.25a0.49,0.49,0,0,0,.46-0.18,2.92,2.92,0,0,0,.1-1,1.65,1.65,0,0,0-.08-0.62,0.39,0.39,0,0,0-.21-0.23A1.9,1.9,0,0,0,99.3,143.51Zm0,3.59v2.65a1.05,1.05,0,0,0,.67-0.16,1.15,1.15,0,0,0,.14-0.72V148a1.25,1.25,0,0,0-.13-0.74A1.16,1.16,0,0,0,99.3,147.1Z"/><path class="cls-8" d="M107.73,141.89l1.41,9.49h-2.52l-0.13-1.71H105.6l-0.15,1.71H102.9l1.26-9.49h3.57Zm-1.31,6.1q-0.19-1.61-.38-4-0.38,2.72-.47,4h0.85Z"/><path class="cls-8" d="M115.32,146h-2.47v-1.65a3,3,0,0,0-.08-0.9,0.34,0.34,0,0,0-.35-0.18,0.36,0.36,0,0,0-.39.22,3.3,3.3,0,0,0-.08.94v4.41a3.08,3.08,0,0,0,.08.9,0.35,0.35,0,0,0,.37.21,0.35,0.35,0,0,0,.36-0.21,3.45,3.45,0,0,0,.08-1v-1.19h2.47v0.37a7.29,7.29,0,0,1-.21,2.09,2.13,2.13,0,0,1-.92,1.08,3.15,3.15,0,0,1-1.75.46,3.64,3.64,0,0,1-1.79-.39,1.91,1.91,0,0,1-.93-1.09,7.13,7.13,0,0,1-.23-2.09v-2.77a12.32,12.32,0,0,1,.07-1.54,2.15,2.15,0,0,1,.42-1,2.34,2.34,0,0,1,1-.75,4,4,0,0,1,3.22.15,2,2,0,0,1,.93,1.05,6.31,6.31,0,0,1,.22,2V146Z"/><path class="cls-8" d="M122.08,141.89l-1.42,4.28,1.55,5.2h-2.55l-1-4.07v4.07H116.2v-9.49h2.47v3.69l1.1-3.69h2.31Z"/><path class="cls-8" d="M130.42,145.38h-2.47v-0.86a4.27,4.27,0,0,0-.07-1,0.37,0.37,0,0,0-.64,0,2.86,2.86,0,0,0-.08.9v4.55a2.71,2.71,0,0,0,.08.84,0.32,0.32,0,0,0,.33.2,0.36,0.36,0,0,0,.37-0.23,2.67,2.67,0,0,0,.1-0.89v-1.12h-0.5v-1.44h2.89v5.09h-1.55l-0.23-.68a1.72,1.72,0,0,1-.64.66,1.79,1.79,0,0,1-.91.22,2.36,2.36,0,0,1-1.16-.3,2.22,2.22,0,0,1-.82-0.75,2.36,2.36,0,0,1-.35-0.93,11.23,11.23,0,0,1-.07-1.47v-2.82a9.44,9.44,0,0,1,.15-2,2,2,0,0,1,.84-1.13,3,3,0,0,1,1.8-.51,3.35,3.35,0,0,1,1.8.45,2.1,2.1,0,0,1,.93,1.06,5.6,5.6,0,0,1,.22,1.78v0.41Z"/><path class="cls-8" d="M137,141.89v6.34a11,11,0,0,1-.07,1.51,2.06,2.06,0,0,1-.42.9,2.16,2.16,0,0,1-.91.7,3.43,3.43,0,0,1-1.33.24,3.75,3.75,0,0,1-1.5-.28,2.26,2.26,0,0,1-1-.73,2,2,0,0,1-.38-1q-0.06-.5-0.06-2.11v-5.61h2.47V149a2.81,2.81,0,0,0,.07.79,0.26,0.26,0,0,0,.27.17,0.29,0.29,0,0,0,.3-0.19,3.55,3.55,0,0,0,.07-0.9v-7H137Z"/><path class="cls-8" d="M142.2,141.89l1.41,9.49h-2.52L141,149.67h-0.88l-0.15,1.71h-2.55l1.26-9.49h3.57Zm-1.31,6.1q-0.19-1.61-.38-4-0.38,2.72-.47,4h0.85Z"/><path class="cls-8" d="M144,141.89h1.75a13.35,13.35,0,0,1,2.36.13,1.63,1.63,0,0,1,1,.69,3.13,3.13,0,0,1,.39,1.77,2.76,2.76,0,0,1-.28,1.49,1.45,1.45,0,0,1-1.08.46,1.85,1.85,0,0,1,1,.49,1.45,1.45,0,0,1,.31.56,8.84,8.84,0,0,1,.06,1.4v2.5h-2.29v-3.15a2.17,2.17,0,0,0-.12-0.94,0.75,0.75,0,0,0-.63-0.18v4.28H144v-9.49Zm2.47,1.62v2.11a1.09,1.09,0,0,0,.58-0.11,1,1,0,0,0,.17-0.74v-0.52a0.79,0.79,0,0,0-.16-0.59A0.92,0.92,0,0,0,146.49,143.51Z"/><path class="cls-8" d="M154.75,141.89l1.41,9.49h-2.52l-0.13-1.71h-0.88l-0.15,1.71h-2.55l1.26-9.49h3.57Zm-1.31,6.1q-0.19-1.61-.38-4-0.38,2.72-.47,4h0.85Z"/><path class="cls-8" d="M162.09,141.89v9.49h-2.16l-1.28-4.31v4.31h-2.06v-9.49h2.06l1.38,4.27v-4.27h2.06Z"/><path class="cls-8" d="M168,141.89v1.9h-1.46v7.59h-2.47v-7.59h-1.46v-1.9H168Z"/><path class="cls-8" d="M168.61,141.89h4.11v1.9h-1.65v1.8h1.54v1.8h-1.54v2.09h1.81v1.9h-4.28v-9.49Z"/><path class="cls-8" d="M173.6,141.89h4.11v1.9h-1.65v1.8h1.54v1.8h-1.54v2.09h1.81v1.9H173.6v-9.49Z"/></svg>