<?xml version="1.0" encoding="UTF-8" standalone="no"?>
<svg width="100px" height="100px" viewBox="0 0 100 100" version="1.1" xmlns="http://www.w3.org/2000/svg" xmlns:xlink="http://www.w3.org/1999/xlink">
    <!-- Generator: Sketch 3.7.1 (28215) - http://www.bohemiancoding.com/sketch -->
    <title>Artboard 18</title>
    <desc>Created with Sketch.</desc>
    <defs></defs>
    <g id="WEB" stroke="none" stroke-width="1" fill="none" fill-rule="evenodd">
        <g id="Artboard-18">
            <g id="Icon-4" transform="translate(9.000000, 3.000000)">
                <g id="Group-2">
                    <path d="M44.350327,64.2806198 C58.8060924,62.506257 70,50.1853671 70,35.25 C70,19.0956711 56.9043289,6 40.75,6 C24.5956711,6 11.5,19.0956711 11.5,35.25 C11.5,50.1530467 22.6455124,62.4529195 37.0558713,64.2689525 L37.0558713,64.2689525" id="Oval-247" stroke="#4990E2" stroke-width="2" stroke-linecap="round"></path>
                    <circle id="Oval-247-Copy" stroke="#4990E2" stroke-width="2" cx="40.75" cy="35.25" r="35.25"></circle>
                    <polyline id="Rectangle-224" stroke="#4990E2" stroke-width="2" transform="translate(17.142305, 76.191343) rotate(-330.000000) translate(-17.142305, -76.191343) " points="29.1423048 62.691343 29.1423048 89.691343 17.3444533 81.925856 5.14230485 89.691343 5.14230485 62.691343"></polyline>
                    <g id="Group-17" transform="translate(64.500000, 76.500000) scale(-1, 1) translate(-64.500000, -76.500000) translate(47.000000, 58.500000)" stroke-width="2" stroke="#4990E2">
                        <polyline id="Rectangle-224-Copy" transform="translate(17.623395, 17.806988) rotate(-330.000000) translate(-17.623395, -17.806988) " points="29.1233945 4.08229203 29.1233945 31.531684 17.8171201 23.6369472 6.12339454 31.531684 6.12339454 4.08229203"></polyline>
                    </g>
                    <text id="20" font-family="OpenSans-Semibold, Open Sans" font-size="29.25" font-weight="500" letter-spacing="1.94999993" fill="#4990E2">
                        <tspan x="23.5" y="46">20</tspan>
                    </text>
                </g>
            </g>
        </g>
    </g>
</svg>