<?xml version="1.0" encoding="UTF-8" standalone="no"?>
<svg width="100px" height="100px" viewBox="0 0 100 100" version="1.1" xmlns="http://www.w3.org/2000/svg" xmlns:xlink="http://www.w3.org/1999/xlink">
    <!-- Generator: Sketch 3.7.1 (28215) - http://www.bohemiancoding.com/sketch -->
    <title>Artboard 18</title>
    <desc>Created with Sketch.</desc>
    <defs>
        <rect id="path-1" x="0" y="10.5714286" width="78" height="46.8163265" rx="9.75"></rect>
        <mask id="mask-2" maskContentUnits="userSpaceOnUse" maskUnits="objectBoundingBox" x="0" y="0" width="78" height="46.8163265" fill="white">
            <use xlink:href="#path-1"></use>
        </mask>
        <rect id="path-3" x="31.5" y="45.3061224" width="15" height="10.5714286" rx="1.95"></rect>
        <mask id="mask-4" maskContentUnits="userSpaceOnUse" maskUnits="objectBoundingBox" x="0" y="0" width="15" height="10.5714286" fill="white">
            <use xlink:href="#path-3"></use>
        </mask>
    </defs>
    <g id="WEB" stroke="none" stroke-width="1" fill="none" fill-rule="evenodd">
        <g id="Artboard-18" stroke="#4990E2">
            <g id="Icon-6" transform="translate(11.000000, 13.000000)">
                <g id="Group-9">
                    <use id="Rectangle-225" mask="url(#mask-2)" stroke-width="4" xlink:href="#path-1"></use>
                    <path d="M16,6.04081633 L16,42.2857143" id="Path-1215" stroke-width="2"></path>
                    <path d="M62,6.04081633 L62,42.2857143" id="Path-1215-Copy" stroke-width="2"></path>
                    <path d="M27,7.55102041 C27,3.38070699 30.5930425,0 34.9916525,0 L43.0083475,0 C47.4220153,0 51,3.38919274 51,7.55102041" id="Rectangle-226" stroke-width="2"></path>
                    <use id="Rectangle-226" mask="url(#mask-4)" stroke-width="4" xlink:href="#path-3"></use>
                    <path d="M31.5,59 L46.5,59" id="Path-1218" stroke-width="2"></path>
                    <path d="M76.5,58.8979592 L76.5,66.4491401 C76.5,70.6193649 73.0535255,74 68.7731311,74 L10.7268689,74 C6.45943707,74 3,70.602719 3,66.4491401 L3,58.8979592" id="Rectangle-227" stroke-width="2"></path>
                </g>
            </g>
        </g>
    </g>
</svg>